<?xml version="1.0" standalone="no"?>
<!DOCTYPE svg PUBLIC "-//W3C//DTD SVG 20010904//EN"
 "http://www.w3.org/TR/2001/REC-SVG-20010904/DTD/svg10.dtd">
<svg version="1.0" xmlns="http://www.w3.org/2000/svg"
 width="736.000000pt" height="1041.000000pt" viewBox="0 0 736.000000 1041.000000"
 preserveAspectRatio="xMidYMid meet">

<g transform="translate(0.000000,1041.000000) scale(0.100000,-0.100000)"
fill="#000000" stroke="none">
<path d="M4817 9214 c-4 -4 61 -140 144 -303 83 -163 171 -334 194 -381 l43
-85 52 -460 51 -460 -71 -350 -70 -350 -92 -92 c-51 -51 -95 -93 -98 -93 -4 0
2 44 11 98 10 53 18 111 19 129 0 24 -39 95 -159 290 -87 142 -161 269 -165
281 -4 12 -14 22 -23 22 -22 0 -17 -19 77 -314 l82 -258 -66 -273 -65 -272
-168 -246 c-92 -135 -171 -243 -175 -239 -5 6 -422 1005 -516 1240 -18 43 -28
58 -33 49 -5 -8 -55 -129 -113 -269 -133 -326 -438 -1049 -441 -1046 -2 2 -78
113 -170 248 l-168 245 -64 265 c-41 169 -63 277 -59 297 2 18 41 148 86 289
45 141 79 259 75 262 -10 11 -32 -21 -200 -295 l-166 -272 21 -116 c12 -64 20
-121 18 -126 -2 -5 -45 33 -97 85 l-93 94 -73 363 c-40 200 -71 367 -69 370 2
4 26 208 54 454 40 357 54 454 69 479 10 17 96 185 191 373 152 302 184 379
149 358 -8 -5 -477 -547 -516 -596 -7 -8 -40 -181 -73 -384 -33 -203 -62 -370
-64 -372 -2 -2 -68 94 -147 214 l-144 218 2 60 c1 33 7 153 14 267 11 210 8
248 -16 248 -9 0 -35 -91 -85 -297 -40 -164 -74 -301 -76 -305 -2 -3 53 -100
123 -215 69 -114 169 -279 221 -365 l94 -157 48 -333 c27 -183 47 -334 46
-336 -2 -2 -60 37 -130 85 -106 74 -126 93 -130 118 -3 17 -8 145 -11 285 -8
351 -20 356 -74 30 -42 -248 -37 -237 -80 -205 -34 24 -35 28 -117 351 -45
179 -85 333 -89 341 -16 43 -28 -19 -37 -195 l-11 -189 77 -229 c76 -227 77
-230 141 -308 44 -54 87 -92 133 -121 37 -23 227 -148 424 -276 l356 -234 106
-137 c58 -76 106 -142 106 -148 0 -5 4 -10 9 -10 5 0 33 -33 63 -72 l55 -73
21 -155 c19 -147 20 -157 4 -192 l-17 -38 -53 41 c-49 38 -86 51 -410 150
-195 60 -360 113 -366 119 -15 15 -36 12 -36 -6 0 -8 44 -118 97 -244 69 -163
102 -231 117 -238 12 -5 84 -62 161 -127 77 -65 149 -121 160 -126 11 -4 70
-18 130 -30 61 -11 112 -23 114 -25 2 -1 -81 -204 -185 -449 -130 -309 -191
-444 -200 -441 -18 7 -27 -11 -11 -21 10 -6 -13 -70 -105 -288 -65 -153 -118
-284 -118 -290 0 -7 91 -9 285 -7 179 2 285 -1 285 -7 0 -5 -18 -47 -40 -92
-22 -46 -40 -93 -40 -105 0 -18 52 -249 159 -703 12 -55 26 -90 39 -100 11 -9
145 -196 298 -416 471 -678 446 -646 487 -623 9 4 195 225 413 489 l397 481
94 357 c51 196 101 385 109 421 l16 65 -41 98 -40 98 296 -3 c338 -3 316 -10
276 88 -152 371 -573 1427 -570 1430 2 2 63 12 134 22 l130 19 167 134 167
134 119 222 c101 187 133 255 118 253 -2 -1 -102 -27 -223 -59 -203 -53 -220
-57 -223 -39 -4 20 -17 24 -28 7 -3 -6 0 -15 7 -20 8 -5 12 -9 9 -9 -3 0 -71
-18 -152 -39 -116 -30 -161 -48 -213 -81 -37 -23 -68 -40 -70 -38 -1 2 -12 22
-24 46 l-22 43 21 155 20 155 168 218 c166 216 168 218 267 284 345 227 638
418 691 451 42 25 82 63 125 116 62 78 65 84 141 311 l78 231 -11 181 c-5 100
-12 188 -15 195 -9 28 -28 4 -39 -49 -10 -45 -136 -546 -151 -601 -5 -16 -72
-65 -78 -57 -1 2 -19 103 -40 224 -34 204 -46 248 -61 233 -5 -5 -23 -407 -25
-544 0 -29 -11 -39 -126 -119 -69 -48 -127 -85 -130 -83 -2 3 18 155 44 339
l49 334 216 355 c120 195 217 362 217 370 -1 8 -33 148 -73 310 -54 220 -76
295 -87 295 -23 0 -24 -29 -10 -310 l13 -261 -143 -217 c-78 -120 -145 -215
-148 -212 -3 3 -33 171 -67 373 l-61 367 -259 300 c-143 164 -265 300 -271
302 -5 2 -13 0 -17 -3z m-2203 -236 c-25 -49 -38 -67 -44 -58 -6 10 -15 6 -35
-16 -14 -16 -23 -22 -18 -12 12 24 72 88 83 88 6 0 10 5 10 10 0 11 30 60 36
60 2 0 -12 -32 -32 -72z m2381 -6 c-2 -2 -11 2 -19 11 -8 8 -12 18 -8 21 3 4
12 -1 19 -10 7 -10 11 -20 8 -22z m25 -27 c0 -8 -4 -15 -10 -15 -5 0 -7 7 -4
15 4 8 8 15 10 15 2 0 4 -7 4 -15z m40 -49 c0 -5 -7 -1 -15 10 -8 10 -14 24
-14 29 0 6 6 1 14 -9 8 -11 15 -24 15 -30z m-2523 -72 c-8 -16 -17 -23 -21
-16 -4 6 1 20 11 31 23 27 28 19 10 -15z m2613 -17 c17 -20 19 -26 8 -22 -9 4
-24 17 -32 30 -16 25 -22 47 -8 30 4 -6 18 -23 32 -38z m-2683 -8 c-7 -11 -15
-15 -20 -10 -12 12 -2 28 17 28 11 0 12 -4 3 -18z m2683 -23 c0 -11 -19 -15
-25 -6 -3 5 1 10 9 10 9 0 16 -2 16 -4z m-2700 -10 c0 -3 -7 -12 -16 -21 -23
-23 -116 -186 -109 -193 3 -3 12 3 21 14 15 19 16 19 9 -1 -4 -11 -10 -27 -13
-35 -14 -38 37 24 54 65 10 25 21 45 25 45 4 0 10 11 13 25 4 14 11 25 16 25
11 0 2 -28 -31 -92 -32 -64 -60 -100 -73 -95 -6 3 -12 -3 -12 -12 -1 -9 -4
-25 -8 -36 -8 -20 -7 -20 8 -1 30 37 18 -6 -60 -209 -42 -110 -90 -237 -106
-283 -17 -45 -33 -81 -35 -79 -2 2 22 159 53 348 49 300 59 348 81 377 25 33
57 45 47 17 -4 -8 -13 -15 -21 -15 -8 0 -13 -6 -10 -13 3 -7 -3 -30 -13 -50
l-18 -37 24 0 c17 0 22 4 17 15 -3 9 1 23 8 33 25 31 50 82 45 91 -3 4 17 34
45 65 48 52 59 62 59 52z m2780 -51 c19 -19 29 -35 23 -35 -6 0 -23 16 -37 35
-15 19 -25 35 -23 35 1 0 18 -16 37 -35z m-65 -63 c0 -18 -4 -32 -9 -32 -5 0
-6 13 -3 29 4 16 2 32 -4 35 -5 2 -4 3 3 2 7 -2 13 -17 13 -34z m664 -92 c-1
-32 -22 37 -25 80 l-3 45 14 -55 c8 -30 14 -62 14 -70z m-505 37 c8 -18 38
-174 66 -347 28 -173 53 -326 56 -340 11 -53 -16 11 -121 288 -59 155 -104
289 -101 297 3 8 1 17 -3 19 -5 3 -6 18 -3 32 5 26 6 26 19 8 12 -16 13 -15 7
14 -5 25 -3 32 9 32 8 0 17 -7 21 -15 3 -8 2 -15 -2 -15 -4 0 -8 -8 -9 -18 -1
-10 5 -19 12 -19 8 0 13 3 13 6 -1 3 3 15 7 25 6 13 4 21 -3 24 -7 2 -12 17
-12 33 0 16 -4 29 -10 29 -5 0 -7 -8 -4 -17 5 -14 4 -15 -4 -4 -6 8 -8 20 -5
28 7 18 44 -15 67 -60z m-123 -10 c-4 -12 -6 -28 -4 -34 7 -20 -5 -15 -17 7
-8 14 -7 25 2 39 16 26 30 17 19 -12z m-3434 1 c-3 -8 -6 -5 -6 6 -1 11 2 17
5 13 3 -3 4 -12 1 -19z m4081 -113 c-3 -3 -9 2 -12 12 -6 14 -5 15 5 6 7 -7
10 -15 7 -18z m-4126 -47 c-8 -8 -9 -4 -5 13 4 13 8 18 11 10 2 -7 -1 -18 -6
-23z m4138 -8 c0 -16 5 -32 10 -35 6 -3 10 -16 10 -28 0 -18 -2 -19 -10 -7 -7
11 -10 2 -10 -32 0 -27 4 -48 9 -48 5 0 7 15 5 33 l-5 32 20 -30 20 -29 -23
-41 c-57 -100 -330 -545 -332 -542 -3 3 195 464 242 564 18 38 24 70 25 120 0
47 3 62 9 48 8 -18 9 -17 9 8 1 37 21 25 21 -13z m-4100 -32 c0 -34 -2 -59 -4
-57 -8 10 -14 119 -5 119 5 0 9 -28 9 -62z m3585 -298 c48 -129 94 -248 102
-263 13 -27 11 -33 -48 -137 -35 -60 -64 -108 -66 -106 -2 2 -23 173 -46 380
-23 206 -40 372 -36 368 3 -4 45 -113 94 -242z m-3618 215 c-4 -8 -11 -15 -17
-15 -14 0 -13 27 3 33 16 6 21 1 14 -18z m563 -354 c-22 -194 -40 -360 -40
-369 -1 -23 -18 0 -81 110 l-50 88 103 270 c57 148 104 266 106 262 1 -4 -16
-167 -38 -361z m-590 319 c5 0 12 5 15 10 4 6 11 8 16 5 5 -4 9 -1 9 4 0 6 4
11 8 11 9 0 25 -35 159 -345 52 -121 102 -233 110 -248 8 -16 13 -31 10 -33
-2 -3 -27 33 -54 78 -27 46 -107 177 -177 293 -69 115 -124 215 -121 223 3 7
6 19 6 25 1 7 3 4 6 -5 2 -10 8 -18 13 -18z m459 -604 l74 -121 69 -340 c37
-186 67 -343 66 -347 -2 -4 -47 43 -100 106 l-97 114 -26 184 c-15 100 -28
203 -30 228 -2 32 -39 128 -125 325 -67 154 -124 287 -127 295 -7 23 211 -305
296 -444z m3426 160 c-73 -167 -125 -301 -125 -319 0 -18 -12 -117 -27 -222
l-27 -190 -99 -118 c-55 -65 -101 -116 -102 -115 -1 2 29 158 67 347 l69 344
72 121 c39 66 76 126 82 133 7 6 56 79 110 162 54 84 99 150 101 148 2 -2 -53
-133 -121 -291z m457 -169 c3 -29 1 -35 -8 -25 -7 8 -10 27 -6 48 6 38 9 34
14 -23z m-4489 -14 c4 -18 2 -35 -4 -38 -5 -4 -8 -40 -6 -86 2 -44 0 -76 -4
-72 -10 10 -11 38 -10 153 1 91 12 110 24 43z m4496 -109 c3 -67 -6 -83 -27
-53 -14 20 -14 23 2 34 15 12 15 13 -1 19 -15 6 -15 8 -3 16 13 9 13 10 0 10
-12 0 -13 2 -1 9 7 5 11 14 7 20 -4 6 -2 9 7 5 9 -3 14 -24 16 -60z m-4440
-127 c1 -10 -3 -15 -9 -12 -5 3 -10 21 -9 38 0 27 2 29 9 12 5 -11 9 -28 9
-38z m4410 -1 c-9 -8 -10 -7 -5 7 3 10 7 24 7 30 1 7 3 4 6 -7 3 -10 -1 -23
-8 -30z m-62 -200 c-47 -140 -62 -173 -98 -216 -23 -28 -46 -47 -49 -43 -4 5
-10 42 -13 84 l-6 75 59 42 c36 26 62 52 66 67 4 15 11 22 18 18 7 -4 7 -1 -1
8 -10 13 -10 25 1 60 13 40 14 41 15 15 1 -23 4 -27 13 -18 7 7 12 28 11 47
-1 19 4 35 9 35 7 0 6 5 -1 14 -9 11 -9 15 1 19 7 2 17 -6 21 -19 6 -17 -6
-67 -46 -188z m-4319 104 c8 -34 8 -46 -1 -52 -8 -5 -9 -8 -1 -8 7 0 15 -7 18
-16 3 -8 2 -13 -2 -10 -4 2 -14 1 -22 -5 -12 -7 -10 -9 7 -9 12 0 24 -8 28
-19 3 -11 30 -36 60 -57 55 -37 55 -38 54 -88 0 -28 -3 -69 -7 -91 l-7 -39
-48 59 c-41 52 -82 147 -82 190 0 6 -3 12 -6 15 -3 3 -15 34 -27 70 -19 60
-20 66 -4 92 19 33 26 28 40 -32z m219 13 c-3 -10 -5 -2 -5 17 0 19 2 27 5 18
2 -10 2 -26 0 -35z m3870 5 c-3 -8 -6 -5 -6 6 -1 11 2 17 5 13 3 -3 4 -12 1
-19z m-3880 -78 c-2 -22 0 -40 5 -40 5 0 3 -6 -4 -14 -19 -20 -21 -13 -13 43
8 60 19 69 12 11z m3893 12 c0 -4 7 -38 14 -76 14 -64 14 -71 -2 -82 -9 -7
-19 -10 -22 -8 -2 3 1 8 7 12 10 7 5 72 -12 140 -3 12 -1 22 5 22 5 0 10 -3
10 -8z m-954 -86 c19 -33 33 -64 31 -70 -2 -6 -10 4 -18 22 -10 23 -15 27 -19
16 -3 -8 -15 14 -27 53 -12 37 -17 61 -12 53 5 -8 25 -42 45 -74z m-1955 41
c-10 -9 -11 -8 -5 6 3 10 9 15 12 12 3 -3 0 -11 -7 -18z m-981 -68 c0 -13 4
-18 12 -13 7 4 8 3 4 -5 -4 -6 -12 -8 -18 -5 -7 5 -9 0 -6 -14 8 -28 -6 -37
-23 -16 -11 14 -10 18 6 31 14 11 16 17 7 20 -6 3 -10 9 -6 14 10 16 24 10 24
-12z m2959 -98 c12 -38 21 -75 20 -83 -1 -12 -49 129 -49 145 0 22 10 -1 29
-62z m-2058 32 c-12 -20 -14 -14 -5 12 4 9 9 14 11 11 3 -2 0 -13 -6 -23z
m2103 -23 c-6 -5 -24 21 -24 34 0 6 6 1 14 -10 8 -10 12 -21 10 -24z m929 -85
l6 -70 -116 -77 c-65 -42 -119 -75 -121 -73 -10 9 142 263 175 293 44 39 47
36 56 -73z m-3934 58 c33 -31 181 -273 181 -297 0 -3 -54 29 -120 72 l-120 77
7 55 c3 30 7 72 7 93 1 20 2 37 3 37 1 0 20 -17 42 -37z m879 0 c-7 -16 -22
-39 -34 -53 -13 -14 -37 -52 -53 -85 -17 -33 -31 -52 -31 -43 0 10 20 49 45
88 25 39 45 73 45 77 0 7 31 43 36 43 2 0 -2 -12 -8 -27z m1169 -210 c240
-581 413 -1017 409 -1030 -4 -9 -13 -12 -25 -8 -12 4 -46 -7 -88 -28 l-68 -34
-173 24 -174 24 -151 -24 -152 -25 -45 23 c-71 36 -90 39 -104 20 -10 -14 -16
-15 -34 -6 -26 14 -27 27 -8 67 8 16 119 286 246 599 128 314 238 585 246 604
8 19 17 31 20 28 4 -4 49 -109 101 -234z m1013 152 c26 -43 34 -63 22 -51 -12
10 -28 16 -37 12 -9 -3 -13 -2 -10 4 3 5 -5 22 -20 37 -14 16 -21 29 -15 31 5
2 10 13 10 25 0 25 -1 27 50 -58z m472 -48 l-17 -118 -188 -214 c-104 -119
-197 -220 -208 -225 -18 -10 -19 -7 -20 42 0 29 -2 74 -4 100 l-4 46 115 114
c63 62 165 172 227 245 61 73 112 131 113 130 2 -1 -5 -55 -14 -120z m-3100
-9 c52 -62 152 -171 221 -241 l127 -128 0 -105 c0 -98 -1 -104 -18 -95 -10 5
-104 107 -208 225 l-189 216 -12 67 c-16 95 -25 173 -20 173 2 0 47 -51 99
-112z m478 72 c0 -5 -4 -10 -10 -10 -5 0 -10 5 -10 10 0 6 5 10 10 10 6 0 10
-4 10 -10z m2814 -142 l-73 -131 -212 -139 c-116 -76 -213 -138 -214 -136 -2
2 68 83 154 181 141 161 169 188 281 267 69 49 128 89 131 89 4 1 -26 -58 -67
-131z m-3248 -216 c75 -86 149 -170 163 -186 33 -37 32 -36 -212 123 l-205
135 -68 125 c-38 69 -71 129 -72 133 -2 5 55 -32 126 -82 118 -82 143 -105
268 -248z m2577 272 c-2 -7 0 -21 6 -31 10 -17 10 -17 11 0 0 9 5 17 10 17 6
0 10 -8 11 -17 1 -12 4 -9 9 7 7 23 8 23 15 6 6 -13 3 -23 -8 -31 -10 -7 -17
-18 -17 -26 0 -11 2 -11 10 1 14 21 13 7 -10 -121 -16 -92 -18 -138 -13 -240
l6 -127 -148 -191 c-81 -105 -149 -190 -151 -188 -4 4 66 311 150 661 52 215
67 254 98 256 3 0 4 8 1 18 -3 12 1 19 10 19 8 0 13 -6 10 -13z m-2114 -281
c77 -317 160 -677 157 -681 -2 -1 -69 84 -150 189 l-147 191 1 151 c1 84 -3
175 -8 202 -13 62 -23 144 -15 127 4 -10 8 -10 21 0 13 11 14 10 8 -15 -10
-41 16 -30 28 11 5 18 15 32 22 32 8 0 14 5 14 12 0 43 24 -35 69 -219z m1845
-543 c-24 -102 -54 -256 -66 -342 l-22 -158 -53 0 c-36 0 -53 4 -53 13 0 6
-19 58 -41 113 l-42 101 129 189 c71 103 142 208 157 232 16 24 30 42 32 41 2
-2 -17 -87 -41 -189z m-1565 -67 l152 -222 -44 -103 -44 -103 -39 -3 c-58 -4
-69 14 -83 138 -7 58 -23 150 -36 205 -41 169 -75 316 -75 323 0 12 20 -15
169 -235z m1217 -310 c16 -32 52 -80 79 -108 38 -38 58 -71 86 -139 l36 -88
-58 -158 c-31 -88 -60 -163 -63 -168 -3 -5 -32 -25 -63 -44 -32 -19 -70 -42
-84 -51 l-26 -18 -62 176 -62 175 32 208 33 207 60 32 c34 17 62 32 62 32 1 1
15 -25 30 -56z m74 -16 c12 -32 20 -60 18 -63 -8 -7 -68 87 -68 106 0 20 11
33 20 23 4 -5 17 -34 30 -66z m-899 -14 c4 -16 17 -111 28 -213 l21 -185 -68
-167 -68 -168 -70 52 -70 52 -76 172 -75 172 36 86 c24 57 44 90 62 100 14 8
59 50 100 93 l74 79 50 -23 c38 -17 52 -29 56 -50z m-1255 32 c24 -16 29 -25
23 -40 -4 -11 -8 -14 -8 -7 -1 8 -6 10 -13 6 -8 -5 -5 -11 10 -17 23 -10 30
-27 12 -27 -5 0 -10 -5 -10 -11 0 -5 4 -8 9 -4 5 3 12 1 15 -4 3 -5 -3 -11
-14 -14 -14 -3 -21 1 -26 17 -4 11 -17 44 -30 73 -34 74 -35 73 32 28z m1060
20 c6 -15 -44 -91 -53 -81 -8 7 28 96 39 96 5 0 11 -7 14 -15z m507 -292 c-3
-170 -8 -387 -12 -484 l-6 -177 -87 35 c-49 19 -88 40 -88 47 0 7 -20 180 -44
386 -25 206 -46 393 -48 415 l-3 40 130 21 c72 12 137 22 146 23 15 1 16 -28
12 -306z m337 252 c0 -6 -29 -199 -65 -429 -36 -230 -65 -421 -65 -425 0 -4
-33 -15 -72 -24 -40 -10 -84 -20 -97 -24 l-24 -6 6 224 c4 123 8 312 9 419 1
107 3 222 6 255 l4 61 149 -20 c91 -12 149 -24 149 -31z m-1562 -59 c138 -42
264 -81 278 -86 14 -6 70 -44 124 -86 l98 -75 -45 -105 c-25 -57 -49 -104 -53
-104 -4 0 -20 30 -35 66 l-28 66 -156 102 c-86 56 -225 146 -308 200 -137 87
-178 118 -140 103 6 -2 126 -39 265 -81z m2904 42 c-11 -18 -55 -100 -98 -183
-43 -82 -83 -158 -89 -167 -5 -10 -82 -75 -171 -146 l-161 -128 -133 -18
c-110 -15 -134 -16 -141 -4 -5 7 -6 19 -4 27 3 8 1 18 -6 21 -7 5 -1 26 20 66
16 33 30 52 31 44 0 -9 -5 -21 -11 -27 -15 -15 -2 -34 17 -26 13 5 15 1 9 -17
-5 -16 -4 -20 5 -15 7 4 9 17 6 31 -4 14 -2 24 4 24 6 0 9 -4 6 -9 -3 -5 1
-14 9 -21 18 -15 65 1 65 22 0 9 3 8 10 -2 6 -9 10 -10 10 -3 0 6 -4 15 -10
18 -19 12 -11 26 9 15 26 -13 29 -13 27 6 0 9 5 19 13 22 9 3 11 -2 7 -19 -3
-13 -3 -19 0 -13 3 7 14 10 24 7 12 -3 20 0 20 6 0 7 5 9 10 6 6 -3 10 0 10 8
0 8 7 20 15 27 10 9 15 9 15 1 0 -14 37 -14 46 0 3 6 22 18 41 26 23 9 33 19
29 29 -3 8 1 14 9 14 7 0 16 9 20 19 3 12 12 18 20 15 8 -3 16 3 19 15 3 12 9
30 12 41 4 14 1 20 -11 20 -9 0 -13 5 -9 11 4 7 1 10 -7 7 -8 -3 -13 -11 -11
-17 1 -7 -2 -10 -8 -6 -15 9 -12 20 11 46 16 19 19 20 15 6 -5 -15 -2 -17 14
-12 11 4 20 2 20 -3 0 -5 9 -12 20 -15 11 -3 17 -1 14 4 -3 5 2 12 10 15 8 3
18 14 21 25 4 11 10 17 15 14 4 -3 6 4 3 14 -3 13 2 21 15 25 18 6 33 32 36
61 1 6 6 13 11 17 6 4 2 8 -9 8 -11 0 -16 -5 -13 -14 4 -9 -4 -16 -21 -21 -15
-4 -30 -12 -34 -18 -5 -8 -8 -7 -8 3 0 8 23 30 51 49 47 30 51 32 63 15 12
-15 15 -16 34 -3 14 10 18 19 12 29 -6 10 1 20 23 36 44 32 52 29 29 -8z m-84
16 c-4 -3 -152 -92 -330 -197 l-323 -192 -47 -90 c-43 -84 -47 -88 -56 -65 -5
14 -28 69 -51 124 -22 54 -41 100 -41 102 0 2 55 40 122 85 l122 82 296 78
c311 81 317 82 308 73z m-3104 -29 c-4 -8 -1 -15 5 -15 6 0 11 -5 11 -11 0 -8
-5 -8 -15 1 -17 14 -20 40 -5 40 5 0 7 -7 4 -15z m110 -67 c-3 -5 -15 -1 -27
9 -20 17 -20 17 -14 0 4 -11 3 -16 -3 -12 -6 3 -10 1 -10 -5 0 -6 -5 -8 -11
-4 -8 4 -8 9 -1 13 7 4 8 12 2 21 -18 29 -10 31 30 9 21 -12 37 -26 34 -31z
m-14 -28 c0 -5 -4 -10 -10 -10 -5 0 -10 5 -10 10 0 6 5 10 10 10 6 0 10 -4 10
-10z m-45 -10 c3 -5 1 -10 -4 -10 -6 0 -11 5 -11 10 0 6 2 10 4 10 3 0 8 -4
11 -10z m775 -68 c-16 -37 -32 -66 -37 -65 -4 2 -20 12 -35 23 l-28 20 17 38
c26 56 29 58 72 54 l39 -4 -28 -66z m-823 51 c4 -10 23 -31 42 -48 19 -16 47
-43 63 -60 15 -16 28 -24 28 -18 0 27 30 -1 36 -34 4 -19 13 -37 20 -40 8 -3
11 -10 7 -16 -3 -5 -1 -7 5 -4 5 4 9 15 7 25 -1 9 0 11 2 5 3 -7 9 -13 14 -13
6 0 7 -4 4 -10 -3 -5 3 -10 14 -10 12 0 21 -7 21 -15 0 -8 7 -15 16 -15 11 0
14 -6 9 -20 -5 -14 -2 -20 9 -20 9 0 16 8 17 18 0 13 3 11 10 -6 5 -13 13 -21
18 -17 5 3 12 1 16 -5 4 -6 11 -8 16 -5 5 4 9 -5 9 -18 0 -14 7 -27 15 -31 18
-7 20 5 3 22 -9 9 -9 12 -1 12 7 0 18 -8 25 -19 9 -12 23 -18 41 -16 15 2 27
0 27 -4 0 -4 9 -7 20 -8 11 -1 18 2 15 7 -3 6 1 7 11 3 15 -6 15 -7 -2 -21
-18 -14 -18 -14 -1 -8 26 9 41 -2 26 -20 -6 -8 -8 -14 -4 -14 4 0 15 10 25 23
l18 22 7 -27 c8 -32 25 -37 25 -8 0 11 4 20 8 20 12 0 7 -89 -6 -102 -9 -9
-42 -6 -134 12 l-123 23 -149 124 c-82 68 -157 130 -167 137 -20 13 -100 196
-92 209 8 13 23 8 30 -10z m2312 -30 c12 -25 18 -49 13 -52 -40 -28 -84 -53
-86 -50 -4 6 -56 138 -56 144 0 3 24 5 53 5 l53 0 23 -47z m-2239 -13 c0 -5
-4 -10 -9 -10 -6 0 -13 5 -16 10 -3 6 1 10 9 10 9 0 16 -4 16 -10z m2850 -31
c0 -5 -7 -6 -15 -3 -8 4 -15 13 -15 21 0 13 3 13 15 3 8 -7 15 -16 15 -21z
m-2576 -18 c4 -5 -3 -7 -14 -4 -23 6 -26 13 -6 13 8 0 17 -4 20 -9z m-131 -14
c3 -8 -1 -14 -9 -14 -15 0 -18 9 -7 20 9 9 10 9 16 -6z m197 -39 c0 -11 -49
23 -50 35 0 4 11 0 25 -9 14 -9 25 -20 25 -26z m2420 -9 c0 -6 5 -7 11 -3 8 4
7 0 -1 -15 -6 -12 -16 -18 -22 -15 -7 5 -9 2 -6 -8 4 -8 2 -21 -3 -29 -12 -20
-12 22 1 55 6 16 6 26 0 26 -5 0 -14 -15 -19 -32 -5 -18 -10 -27 -10 -20 -1 7
-5 10 -11 7 -16 -10 -12 14 8 40 13 17 21 21 35 14 9 -6 17 -14 17 -20z
m-2553 15 c-3 -3 -12 -4 -19 -1 -8 3 -5 6 6 6 11 1 17 -2 13 -5z m57 -31 c10
-25 3 -23 -17 3 -13 18 -14 22 -3 18 8 -3 17 -13 20 -21z m2326 7 c0 -5 -4
-10 -10 -10 -5 0 -10 5 -10 10 0 6 5 10 10 10 6 0 10 -4 10 -10z m-2290 -41
c0 -6 -4 -7 -10 -4 -5 3 -10 11 -10 16 0 6 5 7 10 4 6 -3 10 -11 10 -16z
m2240 11 c0 -5 -7 -10 -16 -10 -12 0 -15 -6 -10 -25 5 -19 2 -25 -10 -25 -10
0 -14 5 -10 15 3 10 -1 15 -12 15 -12 0 -8 6 13 19 35 23 45 25 45 11z m-1745
-142 c33 -77 61 -144 63 -147 3 -10 -172 -51 -179 -43 -4 4 -17 30 -29 58
l-21 52 47 111 c26 61 50 111 53 111 3 0 33 -64 66 -142z m1885 126 c0 -3 -6
-12 -14 -19 -17 -18 -29 -8 -13 11 12 14 27 18 27 8z m-465 -124 l48 -119 -18
-41 c-10 -23 -22 -43 -27 -46 -6 -4 -147 32 -156 41 -4 3 97 285 102 285 1 0
24 -54 51 -120z m-1684 63 c5 -14 7 -33 4 -40 -7 -21 -28 -4 -22 19 3 11 0 21
-9 25 -19 7 -18 23 1 23 9 0 20 -12 26 -27z m1909 22 c0 -3 -18 -23 -40 -45
-35 -35 -38 -36 -28 -12 12 28 44 62 59 62 5 0 9 -2 9 -5z m150 -37 c0 -21
-24 -51 -34 -41 -3 3 2 12 12 19 14 10 15 15 5 25 -7 7 -13 19 -13 27 0 12 3
12 15 2 8 -7 15 -21 15 -32z m115 32 c-3 -5 -14 -10 -23 -10 -15 0 -15 2 -2
10 20 13 33 13 25 0z m-167 -12 c-6 -17 -38 -23 -38 -8 0 6 5 8 10 5 6 -3 10
-1 10 4 0 6 5 11 11 11 6 0 9 -6 7 -12z m-91 -42 c1 -22 -6 -41 -18 -52 -22
-20 -38 -12 -20 10 8 10 9 16 1 21 -5 3 -10 12 -9 18 0 9 2 9 6 0 7 -19 23
-15 23 5 0 15 8 32 15 32 0 0 1 -15 2 -34z m33 4 c0 -11 -4 -20 -8 -20 -4 0
-8 9 -8 20 0 11 4 20 8 20 4 0 8 -9 8 -20z m-665 -256 l59 -171 -84 -181 c-46
-100 -85 -180 -87 -178 -2 2 -12 93 -23 202 l-19 199 30 188 c16 104 29 191
29 195 1 11 32 -72 95 -254z m-607 -4 c11 -97 14 -165 9 -205 -4 -33 -15 -127
-25 -210 l-18 -150 -82 209 -83 209 72 181 c40 100 77 190 83 201 12 23 14 10
44 -235z m1289 228 c-3 -8 -6 -5 -6 6 -1 11 2 17 5 13 3 -3 4 -12 1 -19z
m-1932 -28 c3 -6 -1 -7 -9 -4 -18 7 -21 14 -7 14 6 0 13 -4 16 -10z m57 -158
c-24 -6 -35 13 -22 39 l13 22 12 -29 c10 -24 9 -30 -3 -32z m241 -53 c-5 -5
-37 -13 -71 -17 -54 -8 -64 -6 -79 10 -23 25 -11 33 77 56 l75 18 3 -29 c2
-16 0 -33 -5 -38z m1427 56 c0 -8 -7 -15 -15 -15 -9 0 -12 6 -9 15 4 8 10 15
15 15 5 0 9 -7 9 -15z m-1270 -102 c0 -12 -16 -50 -26 -62 -2 -2 -27 17 -57
42 -50 42 -53 47 -49 85 l4 40 64 -46 c35 -25 64 -52 64 -59z m989 56 c-5 -19
-34 -60 -64 -93 -53 -57 -55 -58 -63 -35 -26 70 -29 65 55 118 42 27 79 49 80
47 1 -1 -2 -18 -8 -37z m151 15 l52 -15 -23 -25 c-17 -18 -30 -23 -49 -20 -14
3 -44 8 -67 11 -44 7 -52 20 -37 60 8 19 32 16 124 -11z m-1552 0 c21 -6 22
-10 22 -136 0 -93 4 -137 14 -157 11 -21 17 -98 24 -306 l9 -277 -89 -202
c-48 -110 -93 -210 -99 -221 -7 -14 -7 -40 0 -85 6 -35 9 -66 7 -68 -6 -5
-517 -2 -526 3 -7 4 80 214 511 1232 52 123 96 223 99 223 3 0 15 -3 28 -6z
m132 -99 l72 -94 -44 -80 c-23 -45 -46 -81 -50 -81 -3 0 -18 21 -32 46 -24 43
-26 55 -26 175 0 71 2 129 4 129 2 0 36 -43 76 -95z m1595 18 c15 -38 148
-369 296 -736 148 -368 269 -674 269 -679 0 -8 -84 -9 -277 -4 -153 4 -278 8
-279 9 -1 1 4 39 11 85 l13 82 -85 218 -85 217 1 260 2 260 31 54 31 54 -7
123 -6 124 29 0 c26 0 31 -6 56 -67z m-106 -97 c1 -68 -3 -85 -24 -123 -14
-23 -29 -43 -33 -43 -4 1 -28 33 -55 71 l-47 71 72 81 73 80 6 -29 c4 -16 7
-65 8 -108z m-885 -28 l78 -31 -7 -261 c-4 -144 -9 -263 -11 -265 -2 -3 -42
-7 -89 -9 -84 -4 -85 -5 -105 -39 -11 -19 -20 -38 -20 -43 0 -4 32 -49 71 -99
65 -82 75 -91 105 -91 33 0 34 -1 34 -39 0 -29 -5 -41 -17 -45 -22 -6 -194
-36 -210 -36 -6 0 -38 23 -71 50 l-60 50 -7 73 -7 73 82 158 83 158 23 196
c13 109 23 205 24 215 0 24 13 22 104 -15z m-264 -190 l83 -211 -69 -139 c-38
-76 -71 -138 -74 -138 -4 0 -70 111 -147 248 l-141 247 38 75 c21 41 45 83 52
94 13 16 70 29 154 35 18 1 31 -26 104 -211z m570 188 c0 -14 7 -101 16 -193
l15 -168 75 -191 c61 -156 74 -200 74 -246 0 -56 -1 -57 -55 -105 l-56 -49
-112 13 c-191 23 -179 18 -175 61 3 35 5 37 43 40 35 3 50 13 123 85 45 45 82
88 82 95 0 7 -12 33 -26 58 l-26 44 -94 0 -94 0 0 88 c0 49 3 170 7 269 l6
179 76 21 c107 29 121 28 121 -1z m351 -1 l55 -6 53 -79 53 -78 -158 -266
c-88 -146 -162 -266 -165 -266 -3 0 -34 71 -68 158 l-63 158 62 134 c35 74 75
163 91 198 27 59 31 63 56 58 16 -2 53 -7 84 -11z m-1248 -276 l54 -97 -44
-108 c-24 -60 -49 -113 -54 -118 -5 -6 -9 32 -9 100 0 61 -3 160 -6 220 -4 60
-4 107 -1 104 3 -3 30 -48 60 -101z m1416 -136 l0 -198 -28 60 c-15 33 -38 85
-50 115 l-23 55 49 82 c26 46 49 83 51 83 1 0 2 -89 1 -197z m-1299 -69 c23
-42 39 -83 36 -91 -21 -54 -281 -495 -284 -480 -2 9 -10 17 -18 17 -17 0 -19
16 -2 26 7 4 8 3 4 -4 -4 -7 -2 -12 3 -12 6 0 11 5 11 11 0 5 5 7 10 4 6 -3
10 -1 10 5 0 6 -6 10 -14 8 -19 -4 -20 6 -1 42 16 30 13 50 -6 50 -5 0 -9 -6
-8 -12 2 -13 -20 -69 -32 -78 -16 -14 -15 -38 2 -48 11 -7 16 -18 13 -27 -5
-11 -2 -13 11 -9 16 6 16 5 1 -25 -9 -17 -19 -31 -22 -31 -3 0 -3 4 1 9 3 5 0
13 -6 17 -8 5 -10 -1 -7 -20 3 -14 1 -26 -3 -26 -5 0 -9 -8 -9 -17 -1 -10 -7
-29 -15 -43 l-13 -25 -7 27 c-4 15 -5 33 -2 40 2 7 0 21 -5 31 -7 14 2 46 40
130 84 189 156 356 208 484 27 68 52 123 56 123 3 0 25 -34 48 -76z m1235 -39
c25 -60 55 -135 65 -165 10 -30 52 -140 93 -245 l75 -190 -12 -68 -11 -68 -17
29 c-10 17 -18 37 -18 45 0 8 -7 20 -15 27 -8 7 -12 16 -9 21 3 5 0 9 -6 9 -6
0 -9 4 -6 9 3 5 -1 11 -9 15 -8 3 -15 10 -15 15 0 19 25 0 49 -37 15 -22 26
-32 29 -24 2 7 -4 20 -14 27 -11 8 -15 15 -10 15 5 0 3 7 -5 16 -10 13 -10 17
2 25 10 8 7 8 -11 3 -22 -6 -23 -5 -12 9 11 12 9 18 -13 35 -27 22 -34 48 -10
38 18 -6 20 10 3 20 -6 4 -14 2 -16 -4 -2 -7 -8 -9 -13 -6 -6 3 -7 -6 -3 -23
9 -37 14 -44 25 -38 5 4 9 -3 9 -14 0 -12 -4 -21 -8 -21 -9 0 -13 7 -163 288
l-108 203 50 85 c28 47 52 84 54 82 1 -2 24 -52 50 -113z m-1141 -127 c27 -49
36 -79 41 -138 l7 -75 63 -60 63 -60 -261 -627 c-143 -345 -262 -626 -264
-624 -6 6 -173 729 -173 749 0 29 90 201 293 560 105 185 192 337 194 337 1 0
18 -28 37 -62z m1153 -286 c94 -180 194 -384 223 -454 l52 -128 -103 -395
c-57 -217 -106 -395 -109 -395 -3 1 -104 299 -224 663 l-219 663 61 60 62 60
0 66 c0 59 4 74 36 127 20 34 39 61 43 61 3 0 83 -147 178 -328z m-717 -77 l0
-76 -82 3 -82 3 -28 49 c-16 27 -27 50 -26 52 3 2 177 38 211 43 4 1 7 -33 7
-74z m184 55 c55 -6 102 -12 104 -15 2 -2 -10 -29 -28 -59 l-31 -56 -100 0
-99 0 0 68 c0 76 3 84 34 77 12 -3 66 -9 120 -15z m199 -231 l58 -176 -40
-164 c-116 -479 -402 -1623 -407 -1628 -3 -3 -3 66 1 154 3 88 10 437 15 775
5 338 13 727 16 864 l7 249 104 -5 104 -5 37 63 c20 34 40 60 43 56 3 -4 31
-86 62 -183z m-594 126 l31 -55 91 0 91 0 -7 -307 c-3 -170 -12 -638 -20
-1041 -7 -403 -15 -735 -17 -737 -2 -2 -83 410 -181 916 l-177 920 71 172 c74
177 78 187 84 187 2 0 17 -25 34 -55z m-59 -1084 c195 -1012 211 -1103 207
-1108 -2 -2 -12 8 -21 23 -10 14 -15 28 -12 31 3 3 -1 15 -9 27 -8 11 -15 31
-15 43 0 13 -4 23 -10 23 -5 0 -10 9 -10 19 0 11 -5 23 -10 26 -7 4 -3 14 10
25 l21 18 -23 4 c-26 3 -31 23 -12 54 7 11 9 26 5 33 -6 9 -10 6 -14 -9 -3
-14 -10 -19 -17 -15 -9 5 -10 1 -6 -16 7 -23 6 -23 -5 -4 -16 26 -22 75 -9 75
6 0 10 -9 10 -20 0 -11 4 -20 9 -20 15 0 7 33 -12 52 -10 10 -22 16 -27 13 -6
-4 -10 1 -10 9 0 9 -4 16 -9 16 -11 0 -9 56 2 66 10 11 8 24 -4 24 -5 0 -7 -4
-4 -10 3 -5 1 -10 -5 -10 -13 0 -4 54 10 58 5 2 10 8 10 14 0 5 -9 6 -21 3
-18 -6 -20 -5 -10 14 10 18 9 21 -9 21 -11 0 -20 5 -20 10 0 18 -18 10 -23
-10 -4 -17 -2 -20 16 -15 21 6 21 5 3 -9 -10 -8 -24 -17 -30 -19 -7 -2 -6 -17
3 -45 8 -23 12 -45 8 -48 -9 -10 -28 6 -21 18 4 6 1 9 -6 6 -8 -2 -16 -11 -18
-19 -3 -8 -1 -11 3 -7 5 4 14 3 22 -3 15 -13 18 -33 3 -24 -5 3 -10 1 -10 -4
0 -6 -4 -11 -10 -11 -5 0 -10 7 -10 15 0 8 -5 15 -10 15 -6 0 -8 12 -5 28 3
18 3 21 -3 9 -9 -21 -9 -21 -235 301 l-157 222 177 425 c97 234 177 424 179
423 1 -2 66 -333 144 -737z m886 255 l153 -458 -166 -202 c-155 -187 -330
-397 -380 -456 -12 -14 -45 -54 -73 -90 -121 -150 -154 -190 -156 -187 -1 1
21 96 49 211 l52 210 30 1 c31 2 65 -19 65 -39 0 -6 -5 -3 -11 6 -8 15 -13 15
-23 5 -8 -6 -12 -16 -9 -20 6 -11 -29 -37 -40 -30 -5 3 -1 -9 8 -26 10 -20 20
-29 28 -24 7 4 7 0 -2 -10 -10 -13 -17 -15 -27 -6 -11 9 -14 9 -14 0 0 -6 7
-14 16 -18 15 -5 14 -7 -1 -16 -12 -7 -20 -5 -27 4 -8 11 -9 11 -5 -1 2 -8 -3
-21 -11 -29 -10 -10 -11 -16 -3 -19 6 -2 11 -10 11 -18 0 -9 5 -12 10 -9 6 3
10 1 10 -4 0 -6 5 -11 10 -11 7 0 7 6 0 19 -15 28 -13 54 4 48 7 -3 24 6 36
20 14 16 27 22 38 18 14 -5 15 -4 5 6 -15 15 -17 33 -3 24 8 -5 16 38 11 67 0
4 6 5 14 1 12 -4 13 -8 4 -19 -7 -8 -9 -17 -6 -20 10 -10 39 45 33 62 -5 14
-4 15 8 5 11 -10 18 -6 36 19 l21 30 -20 0 c-27 0 -27 17 -1 25 31 10 24 23
-10 19 -16 -2 -30 1 -30 7 0 6 17 8 45 5 25 -2 45 0 45 5 0 5 -4 9 -9 9 -4 0
-6 11 -3 25 6 32 -16 30 -39 -3 -9 -13 -19 -23 -23 -23 -20 3 -26 -1 -26 -18
0 -11 -4 -23 -10 -26 -5 -3 -10 -17 -10 -30 0 -18 -4 -23 -15 -19 -10 4 -13
15 -11 31 4 18 2 22 -7 15 -8 -7 -18 -5 -32 5 -20 15 -20 15 2 10 22 -5 34 15
25 41 -3 10 -8 8 -18 -5 -12 -15 -13 -16 -8 -1 3 9 0 25 -6 35 -10 16 -11 16
-6 1 3 -10 1 -18 -5 -18 -6 0 -8 -4 -5 -9 3 -4 -1 -17 -9 -27 -25 -33 -42
-106 227 981 56 226 104 403 106 395 3 -8 74 -221 158 -474z m-909 -838 c-3
-8 -6 -5 -6 6 -1 11 2 17 5 13 3 -3 4 -12 1 -19z m413 -98 c0 -5 -5 -10 -11
-10 -5 0 -7 5 -4 10 3 6 8 10 11 10 2 0 4 -4 4 -10z m-409 -17 c0 -15 2 -15 9
2 8 19 9 19 9 -2 1 -12 9 -24 19 -26 9 -3 0 -5 -20 -6 -34 -1 -38 1 -36 24 3
28 18 34 19 8z m14 -73 c3 -5 1 -10 -4 -10 -6 0 -11 5 -11 10 0 6 2 10 4 10 3
0 8 -4 11 -10z m15 -30 c0 -5 -5 -10 -11 -10 -5 0 -7 5 -4 10 3 6 8 10 11 10
2 0 4 -4 4 -10z m427 -14 c-8 -10 -18 -11 -29 -5 -24 13 -23 18 2 12 12 -3 20
0 20 6 0 7 4 9 10 6 6 -4 5 -11 -3 -19z m3 -41 c0 -8 -4 -15 -10 -15 -5 0 -7
7 -4 15 4 8 8 15 10 15 2 0 4 -7 4 -15z"/>
<path d="M2315 8530 c3 -5 8 -10 11 -10 2 0 4 5 4 10 0 6 -5 10 -11 10 -5 0
-7 -4 -4 -10z"/>
<path d="M5246 8508 c3 -5 10 -6 15 -3 13 9 11 12 -6 12 -8 0 -12 -4 -9 -9z"/>
<path d="M5838 8375 c2 -14 6 -25 8 -25 2 0 4 11 4 25 0 14 -4 25 -9 25 -4 0
-6 -11 -3 -25z"/>
<path d="M1598 7323 c-4 -13 0 -27 8 -34 21 -17 24 -8 10 26 -12 28 -13 29
-18 8z"/>
<path d="M3816 6393 c-12 -12 -6 -33 9 -33 8 0 15 6 15 14 0 17 -14 28 -24 19z"/>
<path d="M3932 6368 c6 -18 28 -21 28 -4 0 9 -7 16 -16 16 -9 0 -14 -5 -12
-12z"/>
<path d="M3667 6364 c-8 -8 1 -24 14 -24 5 0 9 7 9 15 0 15 -12 20 -23 9z"/>
<path d="M3524 6349 c-8 -14 11 -33 25 -25 16 10 13 36 -3 36 -8 0 -18 -5 -22
-11z"/>
<path d="M4037 6353 c-12 -11 -8 -23 8 -23 8 0 15 7 15 15 0 16 -12 20 -23 8z"/>
<path d="M4870 6991 c0 -6 4 -13 10 -16 6 -3 7 1 4 9 -7 18 -14 21 -14 7z"/>
<path d="M4873 6853 c-3 -10 -8 -22 -10 -28 -3 -5 3 -1 11 9 16 20 21 36 11
36 -3 0 -8 -8 -12 -17z"/>
<path d="M4921 6834 c0 -11 3 -14 6 -6 3 7 2 16 -1 19 -3 4 -6 -2 -5 -13z"/>
<path d="M5175 5380 c-3 -5 1 -10 9 -10 9 0 16 5 16 10 0 6 -4 10 -9 10 -6 0
-13 -4 -16 -10z"/>
<path d="M4680 5086 c0 -17 16 -30 23 -19 3 5 -1 14 -9 21 -12 10 -14 10 -14
-2z"/>
<path d="M2540 3990 c0 -5 5 -10 10 -10 6 0 10 5 10 10 0 6 -4 10 -10 10 -5 0
-10 -4 -10 -10z"/>
<path d="M2580 3885 c0 -9 5 -15 11 -13 6 2 11 8 11 13 0 5 -5 11 -11 13 -6 2
-11 -4 -11 -13z"/>
<path d="M2640 3770 c0 -5 5 -10 10 -10 6 0 10 5 10 10 0 6 -4 10 -10 10 -5 0
-10 -4 -10 -10z"/>
<path d="M2706 3702 c-3 -6 -1 -14 5 -17 15 -10 25 3 12 16 -7 7 -13 7 -17 1z"/>
<path d="M2770 3620 c0 -5 5 -10 10 -10 6 0 10 5 10 10 0 6 -4 10 -10 10 -5 0
-10 -4 -10 -10z"/>
<path d="M4990 3945 c0 -8 5 -15 10 -15 6 0 10 7 10 15 0 8 -4 15 -10 15 -5 0
-10 -7 -10 -15z"/>
<path d="M4935 3829 c-10 -15 3 -25 16 -12 7 7 7 13 1 17 -6 3 -14 1 -17 -5z"/>
<path d="M4870 3740 c0 -5 7 -10 15 -10 8 0 15 5 15 10 0 6 -7 10 -15 10 -8 0
-15 -4 -15 -10z"/>
<path d="M4810 3660 c0 -5 5 -10 10 -10 6 0 10 5 10 10 0 6 -4 10 -10 10 -5 0
-10 -4 -10 -10z"/>
<path d="M4730 3590 c0 -5 5 -10 10 -10 6 0 10 5 10 10 0 6 -4 10 -10 10 -5 0
-10 -4 -10 -10z"/>
<path d="M3000 3850 c0 -5 5 -10 11 -10 5 0 7 5 4 10 -3 6 -8 10 -11 10 -2 0
-4 -4 -4 -10z"/>
<path d="M2870 3664 c0 -8 5 -12 10 -9 6 4 8 11 5 16 -9 14 -15 11 -15 -7z"/>
<path d="M4505 3890 c3 -5 8 -10 11 -10 2 0 4 5 4 10 0 6 -5 10 -11 10 -5 0
-7 -4 -4 -10z"/>
<path d="M3425 2309 c-11 -16 -2 -17 25 -2 24 12 24 13 3 13 -12 0 -25 -5 -28
-11z"/>
<path d="M3440 2279 c0 -5 -4 -7 -10 -4 -6 4 -7 -1 -3 -11 4 -10 8 -13 10 -7
3 7 11 9 19 6 10 -4 12 0 8 11 -7 18 -24 22 -24 5z"/>
<path d="M3383 2192 c-9 -15 -8 -19 3 -19 8 0 14 9 14 19 0 10 -1 18 -3 18 -1
0 -7 -8 -14 -18z"/>
<path d="M3467 2179 c7 -7 15 -10 18 -7 3 3 -2 9 -12 12 -14 6 -15 5 -6 -5z"/>
<path d="M3446 2166 c3 -8 13 -17 21 -20 26 -10 25 0 -1 18 -20 13 -24 13 -20
2z"/>
<path d="M3260 2150 c0 -5 5 -10 10 -10 6 0 10 5 10 10 0 6 -4 10 -10 10 -5 0
-10 -4 -10 -10z"/>
<path d="M3390 2150 c0 -5 5 -10 10 -10 6 0 10 5 10 10 0 6 -4 10 -10 10 -5 0
-10 -4 -10 -10z"/>
<path d="M3310 2093 c5 -2 8 -9 4 -14 -3 -5 0 -9 6 -9 15 0 7 23 -8 26 -7 1
-8 0 -2 -3z"/>
<path d="M3520 2029 c0 -5 5 -7 10 -4 6 3 10 8 10 11 0 2 -4 4 -10 4 -5 0 -10
-5 -10 -11z"/>
<path d="M3515 1977 c-8 -19 -2 -31 13 -26 5 2 6 13 2 24 -7 19 -8 19 -15 2z"/>
<path d="M3591 1794 c0 -11 3 -14 6 -6 3 7 2 16 -1 19 -3 4 -6 -2 -5 -13z"/>
<path d="M4025 2080 c-3 -5 -1 -10 4 -10 6 0 11 5 11 10 0 6 -2 10 -4 10 -3 0
-8 -4 -11 -10z"/>
<path d="M3926 2065 c4 -8 1 -15 -5 -15 -19 0 -12 -17 10 -23 17 -5 20 -11 15
-31 -4 -16 -2 -26 4 -26 6 0 8 5 5 10 -3 6 -2 10 3 10 6 0 9 11 8 24 0 13 -6
22 -12 19 -7 -3 -10 5 -7 21 4 19 1 26 -11 26 -10 0 -13 -6 -10 -15z"/>
<path d="M3980 2059 c0 -5 5 -7 10 -4 6 3 10 8 10 11 0 2 -4 4 -10 4 -5 0 -10
-5 -10 -11z"/>
<path d="M4097 2043 c-10 -9 -9 -23 2 -23 5 0 11 7 15 15 5 15 -5 20 -17 8z"/>
<path d="M3880 1899 c0 -5 5 -7 10 -4 6 3 10 8 10 11 0 2 -4 4 -10 4 -5 0 -10
-5 -10 -11z"/>
<path d="M3885 1720 c-3 -5 -2 -10 4 -10 5 0 13 5 16 10 3 6 2 10 -4 10 -5 0
-13 -4 -16 -10z"/>
<path d="M3858 1693 c7 -3 16 -2 19 1 4 3 -2 6 -13 5 -11 0 -14 -3 -6 -6z"/>
<path d="M3788 1655 c-5 -25 14 -36 27 -15 3 6 1 10 -5 10 -7 0 -10 7 -6 15 3
8 2 15 -3 15 -5 0 -11 -11 -13 -25z"/>
<path d="M3773 1595 c0 -8 4 -12 9 -9 4 3 8 9 8 15 0 5 -4 9 -8 9 -5 0 -9 -7
-9 -15z"/>
<path d="M3380 6305 c0 -8 7 -15 15 -15 8 0 15 7 15 15 0 8 -7 15 -15 15 -8 0
-15 -7 -15 -15z"/>
<path d="M4240 6305 c0 -8 5 -15 10 -15 6 0 10 7 10 15 0 8 -4 15 -10 15 -5 0
-10 -7 -10 -15z"/>
<path d="M3270 6265 c0 -8 7 -15 15 -15 8 0 15 7 15 15 0 8 -7 15 -15 15 -8 0
-15 -7 -15 -15z"/>
<path d="M4376 6273 c-11 -11 -6 -23 9 -23 8 0 15 4 15 9 0 13 -16 22 -24 14z"/>
<path d="M3135 6220 c-4 -6 -3 -16 3 -22 6 -6 12 -6 17 2 4 6 3 16 -3 22 -6 6
-12 6 -17 -2z"/>
<path d="M4467 6203 c-12 -11 -8 -23 8 -23 8 0 15 7 15 15 0 16 -12 20 -23 8z"/>
<path d="M4757 6003 c-12 -11 -8 -23 8 -23 8 0 15 7 15 15 0 16 -12 20 -23 8z"/>
<path d="M2800 5981 c0 -6 5 -13 10 -16 6 -3 10 1 10 9 0 9 -4 16 -10 16 -5 0
-10 -4 -10 -9z"/>
<path d="M2732 5938 c6 -18 28 -21 28 -4 0 9 -7 16 -16 16 -9 0 -14 -5 -12
-12z"/>
<path d="M4860 5905 c0 -9 5 -15 11 -13 6 2 11 8 11 13 0 5 -5 11 -11 13 -6 2
-11 -4 -11 -13z"/>
<path d="M2645 5851 c-6 -11 9 -23 19 -14 9 9 7 23 -3 23 -6 0 -12 -4 -16 -9z"/>
<path d="M4940 5814 c0 -9 5 -14 12 -12 18 6 21 28 4 28 -9 0 -16 -7 -16 -16z"/>
<path d="M2575 5760 c-4 -6 -3 -16 3 -22 6 -6 12 -6 17 2 4 6 3 16 -3 22 -6 6
-12 6 -17 -2z"/>
<path d="M5007 5733 c-12 -11 -8 -23 8 -23 8 0 15 7 15 15 0 16 -12 20 -23 8z"/>
<path d="M2346 5191 c-4 -7 -5 -15 -2 -18 9 -9 19 4 14 18 -4 11 -6 11 -12 0z"/>
<path d="M5240 5110 c0 -5 5 -10 10 -10 6 0 10 5 10 10 0 6 -4 10 -10 10 -5 0
-10 -4 -10 -10z"/>
<path d="M2312 5071 c4 -13 18 -16 19 -4 0 4 -5 9 -11 12 -7 2 -11 -2 -8 -8z"/>
<path d="M5240 4990 c0 -5 7 -10 16 -10 8 0 12 5 9 10 -3 6 -10 10 -16 10 -5
0 -9 -4 -9 -10z"/>
<path d="M2310 4945 c0 -8 5 -15 10 -15 6 0 10 7 10 15 0 8 -4 15 -10 15 -5 0
-10 -7 -10 -15z"/>
<path d="M5246 4881 c-4 -5 -2 -12 3 -15 5 -4 12 -2 15 3 4 5 2 12 -3 15 -5 4
-12 2 -15 -3z"/>
<path d="M2320 4854 c0 -8 5 -12 10 -9 6 3 10 10 10 16 0 5 -4 9 -10 9 -5 0
-10 -7 -10 -16z"/>
<path d="M5240 4780 c0 -5 5 -10 10 -10 6 0 10 5 10 10 0 6 -4 10 -10 10 -5 0
-10 -4 -10 -10z"/>
<path d="M2325 4749 c-10 -15 3 -25 16 -12 7 7 7 13 1 17 -6 3 -14 1 -17 -5z"/>
<path d="M5230 4695 c0 -8 5 -15 10 -15 6 0 10 7 10 15 0 8 -4 15 -10 15 -5 0
-10 -7 -10 -15z"/>
<path d="M2330 4620 c0 -5 5 -10 10 -10 6 0 10 5 10 10 0 6 -4 10 -10 10 -5 0
-10 -4 -10 -10z"/>
<path d="M5212 4579 c2 -6 8 -10 13 -10 5 0 11 4 13 10 2 6 -4 11 -13 11 -9 0
-15 -5 -13 -11z"/>
<path d="M2350 4515 c0 -8 5 -15 10 -15 6 0 10 7 10 15 0 8 -4 15 -10 15 -5 0
-10 -7 -10 -15z"/>
<path d="M5200 4460 c0 -5 5 -10 10 -10 6 0 10 5 10 10 0 6 -4 10 -10 10 -5 0
-10 -4 -10 -10z"/>
<path d="M2375 4390 c3 -5 10 -10 16 -10 5 0 9 5 9 10 0 6 -7 10 -16 10 -8 0
-12 -4 -9 -10z"/>
<path d="M5180 4350 c0 -5 5 -10 10 -10 6 0 10 5 10 10 0 6 -4 10 -10 10 -5 0
-10 -4 -10 -10z"/>
<path d="M2415 4291 c-6 -11 9 -23 19 -14 9 9 7 23 -3 23 -6 0 -12 -4 -16 -9z"/>
<path d="M5140 4220 c0 -5 7 -10 15 -10 8 0 15 5 15 10 0 6 -7 10 -15 10 -8 0
-15 -4 -15 -10z"/>
<path d="M2450 4180 c0 -5 5 -10 10 -10 6 0 10 5 10 10 0 6 -4 10 -10 10 -5 0
-10 -4 -10 -10z"/>
<path d="M5116 4141 c-4 -5 -2 -12 3 -15 5 -4 12 -2 15 3 4 5 2 12 -3 15 -5 4
-12 2 -15 -3z"/>
<path d="M5065 4051 c-6 -11 9 -23 19 -14 9 9 7 23 -3 23 -6 0 -12 -4 -16 -9z"/>
</g>
</svg>
