<?xml version="1.0" standalone="no"?>
<!DOCTYPE svg PUBLIC "-//W3C//DTD SVG 20010904//EN"
 "http://www.w3.org/TR/2001/REC-SVG-20010904/DTD/svg10.dtd">
<svg version="1.0" xmlns="http://www.w3.org/2000/svg"
 width="720.000000pt" height="720.000000pt" viewBox="0 0 720.000000 720.000000"
 preserveAspectRatio="xMidYMid meet">

<g transform="translate(0.000000,720.000000) scale(0.100000,-0.100000)"
fill="#000000" stroke="none">
<path d="M3590 6981 c0 -12 5 -21 10 -21 6 0 10 6 10 14 0 8 -4 18 -10 21 -5
3 -10 -3 -10 -14z"/>
<path d="M3557 6882 c-20 -26 -57 -72 -82 -102 -68 -82 -261 -341 -343 -460
-40 -58 -81 -116 -91 -129 l-19 -25 -93 39 c-163 66 -292 131 -356 179 -35 25
-63 42 -63 37 0 -6 29 -60 65 -122 36 -62 64 -114 62 -116 -2 -2 -43 19 -91
47 -48 27 -89 50 -92 50 -3 0 -19 9 -36 21 -16 12 -31 19 -33 17 -7 -6 51 -95
97 -151 l40 -47 -58 7 c-117 16 -383 9 -469 -11 l-80 -19 45 -12 c56 -15 91
-33 154 -82 75 -58 70 -63 -41 -41 -88 17 -240 36 -435 54 l-68 7 0 -69 c0
-251 31 -576 69 -722 14 -53 16 -74 8 -77 -7 -2 -41 -8 -77 -14 -36 -5 -114
-19 -174 -31 -120 -22 -240 -26 -299 -9 -22 6 -41 8 -45 5 -9 -9 174 -185 258
-248 73 -54 223 -138 247 -138 22 0 25 -22 5 -43 -11 -12 -50 -62 -87 -112
-128 -172 -220 -251 -350 -297 l-69 -25 79 -37 c44 -20 109 -44 144 -53 64
-16 65 -17 41 -32 -104 -69 -399 -296 -495 -380 -17 -14 -63 -53 -103 -85
l-74 -60 39 -36 c21 -20 47 -43 59 -50 11 -8 41 -31 65 -52 55 -45 297 -234
395 -308 40 -30 71 -60 69 -66 -2 -6 -50 -70 -108 -141 -101 -126 -187 -245
-187 -259 0 -3 18 10 41 30 103 93 256 170 392 196 45 9 46 1 12 -60 -176
-319 -247 -525 -260 -760 -6 -113 -3 -109 25 30 12 58 37 151 55 207 33 100
132 319 140 311 3 -2 -2 -53 -9 -114 -8 -60 -17 -156 -21 -213 l-7 -105 46 44
c25 24 59 52 76 63 30 19 29 18 -25 -95 -29 -62 -57 -125 -61 -140 -13 -55 13
-26 56 62 24 49 47 90 52 90 10 0 -12 -51 -118 -268 -52 -107 -94 -196 -94
-199 0 -8 194 6 320 22 124 16 272 54 388 97 45 17 84 29 85 27 2 -2 15 -46
30 -97 15 -51 60 -161 101 -245 98 -203 110 -243 109 -347 -1 -89 -27 -186
-60 -222 -27 -30 3 -21 44 14 72 60 245 242 283 298 21 31 54 85 73 120 19 35
39 66 44 67 6 2 14 -13 18 -34 21 -115 85 -270 148 -363 29 -42 150 -183 207
-240 39 -39 129 -138 195 -214 33 -38 79 -90 101 -115 23 -25 82 -93 133 -151
50 -58 95 -105 99 -105 4 0 43 41 87 90 43 50 82 92 85 95 3 3 23 25 44 50 22
25 74 83 116 130 42 47 94 105 116 130 21 25 69 77 105 115 192 201 260 312
315 508 16 59 31 107 34 107 3 0 23 -33 45 -72 22 -40 60 -99 84 -132 73 -101
303 -328 317 -314 3 3 -4 21 -15 39 -27 46 -51 142 -51 204 0 81 25 160 101
315 39 80 87 194 107 255 20 60 37 112 39 114 1 2 46 -13 100 -33 127 -47 280
-82 418 -96 210 -21 275 -26 275 -22 0 2 -40 87 -90 188 -49 101 -90 186 -90
189 0 3 -13 33 -30 67 -16 34 -30 64 -30 67 1 10 54 -80 91 -151 33 -65 49
-83 49 -54 0 7 -27 68 -60 136 -34 67 -59 124 -57 127 5 4 55 -35 110 -86 20
-19 37 -31 37 -26 0 27 -30 349 -36 384 -4 28 -3 41 5 41 6 0 11 -5 11 -11 0
-6 13 -38 29 -70 48 -93 117 -294 146 -424 15 -66 29 -122 32 -125 8 -8 -6
135 -23 230 -33 182 -72 290 -187 512 -45 86 -78 160 -75 163 10 11 154 -33
221 -66 72 -37 133 -77 200 -132 26 -21 47 -36 47 -33 0 12 -131 189 -216 292
-46 56 -84 106 -84 111 0 4 42 40 92 78 167 127 525 412 532 423 5 9 -42 48
-343 290 -119 95 -245 192 -280 215 l-64 42 55 16 c31 9 97 33 147 54 l92 38
-53 17 c-126 39 -236 121 -330 245 -34 44 -83 107 -109 141 -47 59 -51 74 -21
74 30 0 181 85 262 148 93 73 240 214 240 231 0 7 -12 8 -32 3 -81 -18 -250
-6 -408 27 -85 18 -156 34 -157 35 -1 1 4 26 12 56 27 102 45 214 54 350 17
233 24 447 15 453 -5 2 -32 1 -60 -3 -29 -5 -105 -14 -170 -20 -101 -9 -226
-29 -359 -56 l-30 -6 31 30 c48 46 160 110 207 118 53 9 36 16 -93 38 -105 18
-290 21 -394 6 -38 -6 -70 -9 -72 -8 -1 2 23 37 55 79 57 74 86 119 77 119 -7
0 -239 -130 -253 -142 -24 -19 -13 4 57 119 39 64 70 120 70 125 0 5 -17 -3
-37 -19 -94 -71 -180 -117 -356 -188 -67 -27 -122 -44 -127 -39 -7 8 -67 93
-190 269 -87 125 -359 471 -376 478 -6 3 -27 -16 -47 -41z m33 -252 c0 -48 -2
-52 -114 -182 l-114 -133 37 -40 c77 -84 76 -82 56 -105 -10 -11 -23 -20 -29
-20 -11 0 -137 132 -144 151 -7 18 285 392 299 383 5 -3 9 -27 9 -54z m98 -18
c98 -121 154 -194 196 -255 l40 -58 -41 -42 c-23 -23 -57 -59 -77 -80 l-37
-38 -19 23 c-26 31 -25 40 11 74 17 16 40 41 50 56 l19 27 -82 98 c-133 157
-138 165 -138 222 0 28 3 51 8 51 4 -1 35 -36 70 -78z m-98 -105 c0 -27 -22
-58 -107 -152 -50 -55 -63 -65 -69 -52 -4 12 19 48 77 122 46 57 87 104 92
104 4 1 7 -9 7 -22z m138 -110 c60 -73 73 -97 52 -97 -12 0 -126 119 -152 159
-10 14 -18 37 -18 51 l1 25 27 -32 c15 -17 55 -65 90 -106z m-138 -24 c-1 -43
-6 -54 -46 -97 l-45 -49 -26 25 -25 26 63 70 c35 39 67 71 72 71 4 1 7 -20 7
-46z m87 -14 c66 -69 72 -83 47 -110 -25 -28 -35 -24 -76 31 -31 40 -38 58
-38 95 0 25 2 45 4 45 3 0 31 -27 63 -61z m-950 -108 c43 -21 102 -46 131 -56
74 -24 226 -90 278 -120 125 -73 230 -191 294 -328 85 -184 152 -435 129 -480
l-12 -21 -16 21 c-9 11 -22 29 -28 39 -7 11 -4 -5 7 -33 11 -29 18 -53 15 -53
-3 0 -16 23 -31 51 -14 28 -28 49 -30 46 -3 -3 2 -19 11 -37 9 -18 14 -34 12
-37 -6 -6 -76 139 -113 232 -14 39 -43 99 -62 135 -110 200 -337 416 -533 508
-32 15 -61 35 -65 44 -3 10 -21 40 -40 67 -33 49 -39 61 -30 61 3 0 40 -17 83
-39z m1819 17 c-8 -13 -29 -46 -46 -74 -25 -42 -41 -57 -94 -83 -93 -45 -231
-146 -310 -226 -134 -134 -207 -250 -299 -475 -24 -58 -47 -104 -51 -102 -5 2
-17 -9 -27 -25 -10 -15 -19 -22 -19 -14 0 7 -10 1 -22 -14 -20 -26 -22 -26
-29 -9 -6 17 -8 17 -18 -6 -10 -23 -10 -22 -6 10 29 227 109 467 199 600 68
100 174 193 285 249 23 12 101 45 171 71 71 27 162 65 202 85 40 19 75 35 77
35 2 0 -4 -10 -13 -22z m-904 -52 c64 -66 203 -218 206 -226 1 -3 -6 -17 -17
-29 l-20 -23 -38 44 c-81 91 -168 183 -174 183 -3 0 -52 -49 -109 -110 -57
-60 -106 -111 -110 -113 -3 -1 -12 9 -20 23 -12 23 -11 28 11 53 14 15 47 52
74 82 28 31 70 79 95 108 25 28 48 52 52 52 4 0 27 -20 50 -44z m-330 -7 c21
-22 38 -44 38 -48 0 -13 -81 -101 -92 -101 -12 0 -78 50 -78 60 0 11 80 130
88 130 3 0 23 -18 44 -41z m668 -25 c45 -72 45 -77 -15 -109 l-37 -19 -20 24
c-11 14 -31 38 -45 54 l-25 28 43 44 c24 24 46 44 50 44 4 0 26 -30 49 -66z
m-316 -131 c75 -90 71 -115 -5 -34 l-61 64 -57 -64 c-79 -87 -88 -60 -10 30
33 39 65 71 69 71 5 0 34 -30 64 -67z m-1146 22 c113 -16 210 -41 229 -59 17
-15 114 -208 108 -214 -2 -2 -21 9 -42 25 -52 40 -125 83 -206 122 -81 39
-103 35 -25 -5 145 -73 263 -153 311 -210 31 -37 74 -161 87 -250 17 -120 13
-126 -28 -49 -101 190 -279 369 -502 502 -87 52 -229 115 -287 128 -18 3 -33
11 -33 16 0 14 274 10 388 -6z m2547 7 c-6 -5 -39 -19 -75 -31 -140 -49 -328
-157 -447 -258 -128 -108 -222 -223 -294 -360 -39 -74 -39 -74 -39 -36 0 71
32 218 61 280 39 83 121 149 304 245 95 50 99 66 5 22 -63 -29 -137 -74 -193
-117 -21 -16 -41 -27 -44 -23 -3 3 18 53 47 111 l54 105 50 15 c52 16 185 42
246 48 72 8 334 7 325 -1z m-1385 -144 c0 -10 -19 -39 -42 -64 l-43 -46 -28
33 c-64 76 -64 73 -17 129 l43 51 43 -42 c24 -24 44 -51 44 -61z m-778 -20
c250 -214 387 -403 438 -604 30 -115 25 -118 -25 -19 -24 50 -73 128 -109 175
-86 114 -228 283 -242 287 -7 2 -9 -8 -6 -28 7 -45 -11 -30 -33 28 -10 26 -21
53 -26 58 -10 13 -79 152 -79 160 0 11 12 3 82 -57z m1412 -74 c-35 -69 -65
-134 -66 -143 0 -9 -4 3 -7 26 l-6 42 -85 -101 c-178 -210 -256 -325 -295
-430 l-16 -43 6 52 c15 136 101 307 234 461 68 79 269 262 287 262 7 0 -17
-57 -52 -126z m-1960 65 c31 -18 34 -23 25 -41 -7 -13 -7 -18 -1 -14 6 3 13 2
17 -4 3 -5 11 -10 17 -10 6 0 5 6 -3 16 -16 20 -21 60 -5 44 6 -6 11 -15 11
-20 0 -6 5 -10 10 -11 6 0 16 -6 23 -12 21 -17 -12 -29 -62 -22 -47 7 -54 11
-76 40 -14 20 -14 20 7 2 18 -15 25 -17 43 -7 l22 12 -23 12 c-30 16 -36 12
-18 -11 7 -10 2 -8 -12 5 -14 12 -29 19 -33 15 -4 -4 -4 0 0 10 8 22 15 21 58
-4z m2524 -3 c-6 -12 -17 -25 -24 -29 -8 -4 -14 -13 -14 -19 0 -6 11 -1 25 12
27 25 33 17 10 -14 -8 -11 -22 -17 -33 -14 -11 3 -27 1 -36 -4 -28 -16 -18 6
16 34 18 15 29 28 23 28 -5 0 -26 -15 -46 -34 -21 -20 -50 -37 -71 -40 -19 -3
-42 -8 -51 -12 -35 -13 -15 12 31 38 26 15 58 35 72 44 14 9 5 -3 -20 -27 -49
-46 -38 -44 25 5 70 55 113 70 93 32z m-2404 -37 c7 2 56 -34 56 -40 0 -2 -16
-4 -35 -5 -30 0 -32 1 -17 14 9 7 12 11 6 8 -6 -3 -19 3 -29 14 -10 11 -22 17
-28 13 -6 -3 -7 -1 -3 6 4 6 2 20 -5 29 -7 9 1 4 18 -11 17 -16 34 -28 37 -28z
m-677 20 c35 -6 61 -14 58 -18 -4 -3 -39 -8 -78 -11 l-72 -5 -5 -75 c-4 -66
-7 -75 -25 -75 -14 0 -19 6 -18 23 0 12 1 56 2 97 l1 75 37 0 c20 0 65 -5 100
-11z m3743 -89 c0 -91 -2 -100 -19 -100 -15 0 -19 11 -24 70 -3 39 -9 75 -12
80 -3 6 -26 10 -50 10 -47 0 -75 8 -75 20 0 9 46 15 133 18 l47 2 0 -100z
m-3556 49 c31 -7 53 -15 49 -19 -4 -4 -63 -17 -129 -30 l-122 -22 -6 -57 c-12
-100 -15 -109 -37 -104 -21 6 -25 47 -13 159 l6 59 54 3 c29 1 63 6 76 12 31
12 55 12 122 -1z m3426 -8 l55 -6 3 -107 c2 -93 0 -108 -13 -108 -20 0 -24 12
-33 90 l-7 64 -75 18 c-41 9 -99 20 -127 24 -29 3 -53 10 -53 14 0 4 19 12 43
18 39 10 74 9 207 -7z m-1890 -8 c1 -5 10 -19 21 -32 19 -23 20 -23 40 -5 20
18 21 18 34 1 17 -24 27 -21 50 13 18 27 55 42 55 22 0 -5 -25 -48 -55 -97
-30 -48 -55 -91 -55 -96 0 -23 -19 -2 -69 77 -64 103 -72 124 -42 124 11 0 21
-3 21 -7z m-1050 -28 c66 -11 107 -24 133 -41 22 -14 37 -27 34 -30 -2 -2 -59
11 -126 31 -68 19 -133 35 -147 35 -13 0 -24 5 -24 10 0 13 18 13 130 -5z
m2380 5 c0 -5 -9 -10 -19 -10 -11 0 -73 -16 -140 -35 -132 -38 -131 -38 -131
-27 0 17 70 46 150 62 101 21 140 24 140 10z m-2565 -40 c4 -6 -12 -10 -40
-10 -50 0 -53 -14 -5 -25 57 -13 41 -24 -27 -19 -65 5 -67 4 -38 -10 l30 -14
-49 -1 c-46 -1 -48 -2 -30 -16 18 -14 18 -14 -5 -15 -14 0 -62 7 -109 16 -46
8 -86 14 -88 11 -2 -2 32 -14 76 -27 l80 -23 -37 -25 c-21 -14 -50 -36 -65
-49 -26 -25 -27 -25 -98 -12 l-71 12 6 41 c4 23 11 60 17 83 9 37 13 41 46 46
21 2 73 11 117 20 133 27 279 35 290 17z m2960 -22 c61 -12 113 -26 116 -31 4
-5 10 -30 13 -56 3 -25 8 -58 11 -72 5 -26 3 -27 -67 -37 l-73 -11 -45 38
c-25 20 -54 41 -65 45 -17 6 -13 10 27 26 25 9 63 21 83 24 20 4 35 10 31 13
-3 3 -48 -2 -100 -12 -104 -18 -150 -17 -106 4 22 10 19 11 -27 8 -29 -2 -53
0 -53 4 0 5 9 9 19 9 11 0 23 5 27 11 5 9 -11 11 -59 7 -37 -3 -67 -4 -67 -2
0 2 20 9 45 15 53 13 50 29 -6 29 -28 0 -38 4 -33 11 10 17 195 4 329 -23z
m-2670 -54 c75 -19 95 -36 23 -18 -132 31 -134 32 -108 33 14 1 53 -6 85 -15z
m2144 11 c-8 -7 -151 -36 -156 -31 -3 2 24 11 59 19 65 16 105 21 97 12z
m-1651 -94 c100 -115 142 -173 181 -252 23 -45 41 -91 41 -103 0 -20 -1 -19
-25 6 -14 15 -25 30 -25 35 0 12 -213 323 -222 323 -4 0 -9 -24 -9 -52 l-1
-53 -9 40 c-4 22 -8 65 -8 95 0 51 1 54 15 35 8 -11 36 -44 62 -74z m1137 -6
c-8 -101 -25 -123 -25 -33 l0 63 -40 -60 c-23 -33 -75 -111 -118 -174 -42 -62
-86 -127 -97 -144 -36 -57 -30 -3 8 78 38 78 102 168 195 273 31 36 61 71 65
79 16 27 19 4 12 -82z m-2505 49 c0 -20 -4 -25 -22 -22 -13 2 -22 12 -24 26
-3 18 1 22 21 22 20 0 25 -5 25 -26z m3840 1 c0 -18 -5 -25 -20 -25 -15 0 -20
7 -20 25 0 18 5 25 20 25 15 0 20 -7 20 -25z m-2983 -31 c97 -20 202 -72 259
-130 52 -51 101 -147 109 -213 3 -25 8 -58 10 -73 6 -38 -8 -35 -28 6 -24 52
-131 171 -195 218 -31 23 -83 55 -117 71 -33 16 -72 40 -87 55 -31 28 -36 24
-13 -11 l14 -22 -97 4 c-53 1 -128 -2 -167 -8 -120 -20 -180 -49 -106 -52 17
-1 20 -3 8 -6 -9 -2 -15 -9 -12 -14 9 -13 -9 -11 -24 4 -11 10 -13 9 -8 -5 4
-11 2 -15 -6 -13 -13 5 -77 -120 -102 -199 -20 -65 -19 -203 1 -274 16 -55 16
-56 -6 -74 -35 -28 -46 -22 -64 36 -61 192 -20 482 82 589 97 103 347 153 549
111z m2452 -9 c94 -29 172 -83 209 -145 73 -123 101 -316 68 -480 -25 -123
-35 -136 -76 -102 -21 17 -21 19 -6 79 38 144 13 284 -78 441 -33 55 -40 61
-50 36 -3 -8 -2 -12 4 -9 6 3 10 2 10 -4 0 -5 3 -18 6 -28 6 -15 3 -15 -16 4
-26 25 -37 75 -15 67 8 -3 21 -2 30 3 34 19 -129 48 -272 48 -125 0 -131 1
-116 18 28 30 6 30 -34 -1 -21 -16 -54 -35 -73 -42 -93 -35 -225 -156 -296
-271 -20 -32 -39 -57 -41 -55 -3 2 0 37 6 78 13 83 55 176 103 230 59 66 182
127 308 152 54 10 275 -2 329 -19z m-3283 -25 c19 0 34 -4 34 -10 0 -5 -22
-10 -50 -10 -39 0 -50 3 -50 16 0 11 5 14 16 10 9 -3 31 -6 50 -6z m3804 -10
c0 -5 -20 -10 -45 -10 -25 0 -45 5 -45 10 0 6 20 10 45 10 25 0 45 -4 45 -10z
m-3 -54 c-5 -16 -68 -20 -78 -5 -11 19 5 26 46 21 21 -3 34 -9 32 -16z m-3777
-2 c0 -12 -9 -14 -42 -12 -59 4 -63 28 -4 28 35 0 46 -4 46 -16z m173 -4 c5
-4 0 -25 -11 -46 -11 -22 -25 -55 -31 -75 -12 -37 -31 -49 -79 -49 -20 0 -22
4 -17 38 2 20 7 63 11 96 l6 58 56 -7 c32 -4 61 -10 65 -15z m2235 -125 l0
-70 -14 65 c-15 74 -18 133 -6 144 11 11 21 -59 20 -139z m1235 131 c3 -7 9
-50 12 -95 l8 -81 -27 0 c-33 0 -66 16 -66 33 0 7 -13 40 -30 75 -31 66 -31
67 20 75 52 9 78 7 83 -7z m-2325 -27 c1 -13 -4 -60 -12 -104 l-14 -80 -1 108
c-1 83 2 108 12 105 6 -3 13 -15 15 -29z m-1328 -34 c0 -10 -10 -15 -30 -15
-20 0 -30 5 -30 15 0 10 10 15 30 15 20 0 30 -5 30 -15z m3140 -12 c25 -9 63
-28 85 -43 43 -30 115 -94 115 -103 0 -2 -30 -10 -67 -17 -82 -15 -246 -71
-322 -110 -59 -29 -145 -92 -221 -158 -25 -22 -47 -39 -49 -36 -9 9 72 115
121 157 29 25 67 58 83 72 l30 26 -45 -27 c-25 -16 -63 -42 -85 -59 -59 -45
-125 -86 -125 -78 0 5 16 18 36 31 42 28 39 40 -5 18 -42 -22 -52 -20 -16 4
17 11 26 20 20 20 -5 1 6 9 25 20 42 23 24 26 -27 5 -54 -23 -50 -12 7 19 46
25 68 45 38 33 -42 -15 -57 -14 -23 3 22 11 34 20 27 20 -7 0 -32 -9 -54 -20
-42 -20 -59 -21 -36 -2 7 5 54 31 103 56 91 47 133 62 215 76 l45 8 -60 1
c-33 0 -87 -3 -119 -9 -33 -5 -61 -8 -63 -6 -10 10 125 41 202 46 l90 6 -95 9
c-81 8 -89 10 -55 16 l40 6 -45 2 c-60 2 -35 17 51 30 71 10 112 7 179 -16z
m640 12 c0 -10 -11 -15 -35 -15 -24 0 -35 5 -35 15 0 10 11 15 35 15 24 0 35
-5 35 -15z m-2975 -5 l30 -7 -35 -9 -35 -8 50 -12 c50 -12 49 -12 -52 -13 -56
0 -104 -4 -106 -8 -3 -5 29 -7 71 -5 62 3 92 -2 152 -22 41 -14 64 -24 50 -21
-14 3 -68 7 -120 10 l-95 5 67 -14 c74 -16 166 -54 241 -99 59 -36 56 -44 -7
-17 -61 26 -63 25 -29 -6 23 -21 24 -23 6 -14 -19 9 -22 8 -17 -5 7 -16 7 -16
42 -20 13 -1 31 -10 40 -20 9 -10 11 -15 5 -11 -7 4 -22 9 -34 11 -11 2 -30 7
-42 10 -15 4 -11 -1 11 -16 36 -24 37 -37 0 -19 -12 6 0 -10 27 -35 40 -38 42
-42 13 -21 -20 14 -47 31 -60 36 -13 6 -52 30 -87 55 -36 25 -67 42 -70 39 -3
-4 0 -9 8 -12 33 -11 119 -93 164 -155 27 -37 48 -70 45 -72 -2 -2 -17 8 -33
23 -169 154 -353 247 -560 283 -36 6 -65 13 -65 16 0 9 73 73 119 105 24 17
62 37 85 44 44 14 173 16 221 4z m1559 -67 c4 -27 10 -57 13 -68 3 -13 2 -17
-5 -10 -10 11 -32 93 -32 120 0 34 18 3 24 -42z m-1003 -53 l-9 -45 -1 57 c-1
64 12 114 17 63 1 -16 -2 -50 -7 -75z m-1371 60 c0 -5 -7 -10 -15 -10 -8 0
-15 5 -15 10 0 6 7 10 15 10 8 0 15 -4 15 -10z m3760 0 c0 -5 -7 -10 -15 -10
-8 0 -15 5 -15 10 0 6 7 10 15 10 8 0 15 -4 15 -10z m-2343 -77 c-3 -10 -5 -2
-5 17 0 19 2 27 5 18 2 -10 2 -26 0 -35z m913 3 c0 -26 -6 -18 -14 19 -5 22
-4 26 4 15 5 -8 10 -24 10 -34z m-2205 -53 c-9 -100 -13 -113 -35 -113 -21 0
-28 24 -32 115 -3 52 -1 54 65 64 4 0 5 -29 2 -66z m3536 57 c21 0 25 -35 13
-124 -5 -36 -11 -46 -26 -46 -22 0 -23 3 -35 98 -9 77 -8 86 15 77 7 -3 22 -5
33 -5z m-3174 -105 c35 -8 71 -19 80 -24 10 -5 50 -21 90 -36 64 -25 144 -71
226 -131 36 -26 34 -38 -4 -18 -117 60 -370 141 -532 170 l-38 6 22 24 c27 28
65 31 156 9z m2925 -8 l16 -23 -61 -13 c-168 -34 -435 -122 -510 -169 -40 -24
-60 -24 -36 0 51 50 215 140 339 186 96 35 115 39 185 40 41 1 53 -3 67 -21z
m-1991 -55 c92 -70 281 -229 372 -314 58 -53 68 -67 65 -90 l-3 -28 -46 43
c-72 67 -219 198 -279 248 -57 48 -200 187 -200 195 0 12 22 -1 91 -54z m914
-20 c-44 -42 -109 -102 -145 -132 -92 -79 -144 -125 -230 -207 -71 -68 -75
-71 -78 -46 -4 32 25 63 203 218 141 122 301 245 319 245 6 0 -25 -35 -69 -78z
m-960 -31 c39 -31 77 -63 85 -71 8 -9 31 -28 50 -44 67 -55 184 -161 271 -246
l88 -85 48 50 c53 53 75 74 223 205 52 47 111 99 130 117 65 59 174 142 180
137 7 -8 -185 -192 -449 -430 -30 -27 -67 -61 -82 -76 -15 -16 -32 -28 -37
-28 -6 0 -12 -4 -14 -10 -1 -5 -30 16 -64 48 -33 31 -89 84 -125 116 -35 33
-93 87 -129 120 -36 34 -92 86 -125 116 -70 64 -157 158 -135 145 8 -4 47 -33
85 -64z m221 18 c58 -43 123 -99 247 -210 12 -11 17 -27 15 -48 -3 -31 -6 -29
-178 138 -96 94 -170 170 -164 170 6 1 42 -22 80 -50z m573 -12 c-30 -30 -106
-104 -170 -166 -114 -109 -117 -111 -122 -84 -5 25 4 37 71 101 107 101 260
218 271 206 2 -2 -20 -28 -50 -57z m-1095 17 c3 -8 2 -12 -4 -9 -6 3 -10 10
-10 16 0 14 7 11 14 -7z m-961 -36 c9 -68 -3 -60 -27 20 -5 16 -3 22 7 22 9 0
16 -15 20 -42z m3537 30 c0 -7 -7 -31 -15 -53 l-14 -40 -1 53 c0 40 4 52 15
52 8 0 15 -6 15 -12z m-2352 -35 c26 -21 57 -47 71 -58 63 -51 150 -131 317
-290 l180 -173 85 82 c46 44 109 103 139 130 30 27 84 77 120 110 83 79 248
220 261 225 32 11 -6 -38 -82 -106 -206 -185 -386 -350 -466 -427 l-52 -50
-83 74 c-46 41 -117 106 -158 145 -41 39 -104 98 -140 131 -35 32 -91 84 -123
114 -32 30 -62 56 -67 58 -11 4 -63 72 -55 72 4 0 28 -17 53 -37z m-663 -9
c112 -36 255 -112 255 -135 0 -9 -24 -1 -96 31 -81 37 -58 14 48 -49 112 -66
115 -75 13 -36 -86 32 -144 66 -237 139 -108 85 -106 90 17 50z m-677 -31 c13
-34 13 -44 3 -57 -8 -9 -19 -16 -26 -16 -11 0 -75 87 -75 103 0 6 46 15 69 13
8 -1 21 -20 29 -43z m1227 -5 c-15 -24 -48 -69 -72 -101 -84 -112 -109 -153
-163 -272 -57 -127 -97 -196 -117 -203 -30 -9 80 217 166 340 116 167 205 287
209 283 3 -3 -8 -24 -23 -47z m1965 11 c-69 -62 -169 -125 -254 -158 -42 -17
-82 -31 -89 -31 -13 0 55 45 138 92 63 35 32 37 -36 2 -56 -28 -75 -25 -38 5
61 50 242 129 299 130 23 1 22 -2 -20 -40z m689 35 c39 -8 39 -20 1 -72 -33
-46 -37 -48 -64 -27 -17 13 -17 15 -1 59 10 25 21 46 25 46 4 0 22 -3 39 -6z
m-3444 -36 c17 -11 45 -39 62 -62 18 -22 47 -58 65 -78 17 -21 28 -41 25 -45
-8 -7 -217 196 -217 211 0 11 27 0 65 -26z m636 15 c13 -16 12 -17 -3 -4 -17
13 -22 21 -14 21 2 0 10 -8 17 -17z m1610 -123 c47 -63 95 -130 108 -148 32
-46 172 -324 166 -330 -13 -13 -44 36 -119 188 -79 159 -112 212 -201 330 -46
60 -79 117 -53 90 8 -8 53 -67 99 -130z m759 133 c0 -9 -98 -112 -159 -165
-99 -88 -82 -51 37 80 60 66 122 109 122 85z m-2913 -60 c56 -59 113 -138 113
-157 0 -6 -13 5 -28 24 -15 19 -51 62 -80 95 -92 103 -96 132 -5 38z m2823 38
c-15 -29 -180 -195 -186 -188 -6 6 22 39 125 149 54 58 81 75 61 39z m-1909
-141 c90 -82 204 -189 274 -255 12 -11 61 -55 108 -98 l87 -79 128 118 c70 66
159 149 197 185 140 132 296 271 300 268 1 -2 5 -82 7 -177 l3 -173 -34 38
c-90 102 -103 115 -112 106 -5 -5 21 -41 61 -84 66 -73 68 -77 51 -93 -9 -9
-22 -16 -28 -16 -6 0 -36 34 -68 75 -31 41 -61 75 -66 75 -20 0 -6 -27 52 -98
57 -69 59 -74 42 -87 -31 -24 -41 -17 -83 55 -46 78 -55 87 -75 70 -24 -20
-19 -29 47 -91 62 -57 62 -58 44 -78 -11 -12 -24 -21 -30 -21 -6 0 -44 30 -83
66 -54 48 -73 61 -73 47 0 -10 -27 -42 -61 -72 -33 -30 -97 -87 -141 -128
l-81 -74 -31 29 c-52 47 -167 155 -208 193 -21 20 -38 44 -38 53 0 21 -16 20
-32 -2 -7 -10 -37 -40 -66 -66 -49 -46 -54 -48 -77 -36 -14 7 -25 18 -25 25 0
6 27 37 60 70 56 55 59 60 43 77 -9 10 -19 18 -23 18 -3 0 -25 -34 -49 -75
-23 -41 -48 -75 -54 -75 -7 0 -21 7 -31 15 -18 14 -16 18 43 90 34 42 59 80
56 86 -10 14 -29 -5 -82 -78 -48 -67 -60 -74 -86 -45 -15 16 -12 22 48 87 60
66 77 95 56 95 -6 0 -30 -24 -55 -52 -24 -29 -54 -64 -66 -78 l-21 -25 5 115
c3 63 6 146 6 184 l0 69 29 -29 c15 -16 75 -72 132 -124z m-1572 95 c18 -25
38 -45 43 -45 5 0 6 -4 3 -10 -3 -5 -2 -10 4 -10 15 0 -6 -44 -29 -57 -15 -10
-23 -6 -51 30 -42 50 -89 119 -89 130 0 4 19 7 43 7 38 -1 45 -5 76 -45z
m4201 39 c0 -11 -87 -128 -113 -152 l-25 -23 -28 36 -28 37 55 53 c48 48 59
54 97 55 23 0 42 -3 42 -6z m-4368 -21 c23 -21 23 -34 -4 -62 l-21 -24 -23 44
c-12 24 -20 47 -17 52 8 13 46 7 65 -10z m4478 7 c0 -17 -33 -80 -43 -80 -5 0
-17 10 -27 22 -16 20 -16 25 -3 45 15 23 73 34 73 13z m-4562 -39 c12 -21 22
-44 22 -51 0 -15 -77 45 -91 71 -8 17 -6 19 19 19 23 0 33 -8 50 -39z m4653
22 c-9 -18 -36 -44 -75 -73 -18 -14 -19 -13 -12 15 13 51 34 75 67 75 25 0 28
-3 20 -17z m-3023 -223 l-3 -80 -50 39 c-27 22 -61 48 -73 58 l-24 18 74 99
73 98 3 -75 c2 -42 2 -112 0 -157z m1400 131 c34 -49 62 -95 62 -103 0 -12
-38 -44 -45 -36 -1 2 -14 35 -29 74 -15 39 -33 80 -41 90 -28 37 -17 -20 19
-100 l35 -75 -40 -32 -39 -31 -2 54 c-1 29 -3 73 -4 98 -3 58 6 150 14 150 4
0 35 -40 70 -89z m-1941 -40 c9 -14 -16 4 -55 39 -40 36 -72 69 -72 73 0 12
108 -84 127 -112z m2516 95 c-10 -18 -88 -102 -102 -111 -25 -15 -7 10 46 66
56 59 71 71 56 45z m-3159 -53 c19 -32 31 -59 26 -61 -13 -5 -78 46 -91 70 -7
14 -7 23 2 34 18 22 25 18 63 -43z m3750 42 c22 -16 18 -24 -44 -82 -36 -33
-50 -40 -50 -24 0 12 63 121 70 120 3 0 14 -6 24 -14z m-3424 -15 c21 -17 23
-21 10 -30 -22 -14 -40 -12 -40 4 0 8 -3 21 -6 30 -8 21 6 20 36 -4z m3074 -7
c-9 -39 -16 -44 -38 -27 -19 13 -19 14 -1 34 27 30 47 26 39 -7z m-3686 -28
c18 -25 32 -48 32 -51 0 -8 -61 7 -92 22 -16 8 -28 18 -28 22 0 11 39 52 48
52 5 0 23 -20 40 -45z m4342 9 c12 -14 12 -18 -5 -30 -22 -16 -95 -38 -102
-30 -3 2 9 25 27 50 33 49 47 50 80 10z m-4140 -41 c17 -14 30 -30 30 -35 0
-4 -25 -8 -55 -8 -36 0 -55 4 -55 12 0 10 38 58 47 58 2 0 17 -12 33 -27z
m3913 -1 c15 -16 24 -31 20 -35 -3 -4 -31 -7 -60 -7 l-54 0 27 35 c14 19 29
35 33 35 4 0 19 -13 34 -28z m-508 -13 c-4 -5 -13 -9 -22 -9 -13 0 -13 3 -3
15 13 15 35 11 25 -6z m-2920 1 c3 -5 -3 -10 -15 -10 -12 0 -18 5 -15 10 3 6
10 10 15 10 5 0 12 -4 15 -10z m-321 -118 c-71 -46 -205 -151 -234 -182 -21
-22 -140 -120 -140 -115 0 14 127 173 180 226 58 56 120 92 200 115 84 23 82
14 -6 -44z m3521 44 c84 -22 139 -54 203 -116 56 -55 182 -210 182 -225 0 -4
-41 29 -91 72 -50 43 -107 92 -128 109 -20 17 -83 63 -140 103 -108 73 -111
80 -26 57z m-210 -36 c68 -18 158 -64 227 -117 115 -88 275 -288 362 -453 41
-77 111 -268 102 -277 -2 -2 -32 24 -67 58 -35 34 -97 86 -136 117 -40 30 -73
56 -73 58 0 12 26 -3 104 -61 93 -69 114 -80 76 -40 -49 52 -209 165 -297 209
-168 84 -254 111 -398 126 l-90 9 -43 47 c-24 25 -41 48 -39 50 2 2 24 -5 48
-15 37 -17 157 -28 232 -22 18 2 -62 102 -155 194 -54 53 -94 97 -88 97 23 0
129 -61 181 -103 30 -25 75 -71 99 -103 56 -74 70 -88 77 -81 12 13 -107 165
-194 246 l-93 87 58 -7 c31 -4 80 -12 107 -19z m-2960 -6 c-112 -95 -228 -229
-251 -289 -11 -27 11 -16 29 15 27 45 122 145 177 185 48 36 128 70 139 60 3
-4 -10 -18 -29 -32 -55 -42 -136 -128 -175 -185 l-35 -53 95 -3 c86 -2 101 0
147 23 28 14 53 23 57 20 3 -3 -21 -31 -52 -61 -57 -53 -59 -54 -117 -54 -186
0 -507 -146 -694 -314 -22 -20 -37 -39 -33 -42 3 -4 23 8 44 26 43 38 151 110
165 110 6 0 -26 -26 -69 -58 -43 -32 -109 -89 -147 -125 -38 -37 -71 -66 -73
-64 -6 7 44 149 79 227 89 193 281 437 418 529 98 66 221 109 315 110 l40 0
-30 -25z m673 -19 c34 -22 61 -44 59 -49 -5 -16 -157 -119 -164 -112 -4 3 -1
34 5 69 6 34 15 79 18 100 4 21 9 37 13 35 3 -2 34 -21 69 -43z m1569 -23 c20
-91 26 -142 18 -142 -8 0 -175 110 -175 116 0 8 134 93 139 88 3 -3 11 -31 18
-62z m33 37 c0 -5 25 -61 56 -125 30 -63 54 -119 52 -124 -2 -5 -21 4 -43 19
-39 26 -40 30 -62 131 -26 123 -26 123 -13 115 6 -3 10 -10 10 -16z m-1726
-84 c-7 -49 -13 -97 -13 -105 -1 -18 -91 -75 -91 -58 0 6 16 44 35 85 19 41
35 75 35 78 0 9 41 97 44 94 2 -2 -3 -44 -10 -94z m-315 21 c-2 -2 -41 -14
-86 -25 -45 -12 -90 -24 -100 -28 -15 -6 -16 -4 -5 9 11 14 50 28 117 42 28 5
79 7 74 2z m2458 -6 c26 -6 59 -20 73 -31 18 -14 19 -18 5 -11 -11 5 -55 17
-97 27 -43 9 -78 19 -78 21 0 7 48 4 97 -6z m-2329 -137 c-51 -104 -55 -108
-98 -124 -56 -20 -95 -36 -122 -50 -14 -8 -19 -8 -17 0 5 15 282 292 287 287
2 -3 -20 -53 -50 -113z m2332 -164 c0 -6 -155 50 -178 65 -14 9 -102 190 -102
210 0 6 63 -52 140 -129 77 -77 140 -143 140 -146z m-1815 201 c80 -53 87 -60
60 -60 -23 0 -27 -3 -15 -10 8 -5 24 -10 34 -10 21 0 136 -70 136 -83 0 -4
-19 -5 -42 -2 -42 5 -43 5 -9 -6 39 -12 37 -17 -6 -21 -33 -2 -35 -18 -3 -18
10 0 22 -4 25 -10 3 -5 1 -10 -4 -10 -6 0 -11 -7 -11 -15 0 -8 -7 -15 -16 -15
-8 0 -12 -4 -9 -10 3 -5 2 -17 -3 -26 -7 -13 -15 -7 -45 35 -79 110 -204 321
-190 321 4 0 49 -27 98 -60z m1153 33 c-35 -80 -208 -344 -221 -336 -4 3 -6
11 -3 19 3 7 -4 18 -15 24 -11 6 -17 15 -14 20 3 5 0 12 -7 17 -9 5 -3 10 17
14 27 6 26 7 -12 8 -24 0 -43 6 -43 11 0 6 6 10 13 10 6 1 26 7 42 15 l30 15
-45 -6 -45 -6 50 37 c28 20 61 41 74 46 13 5 21 12 18 15 -8 8 146 122 165
123 4 1 2 -11 -4 -26z m-1803 6 c-36 -12 -220 -49 -240 -49 -25 0 -16 17 13
25 29 8 205 32 237 33 12 0 9 -3 -10 -9z m2478 -9 c118 -19 160 -31 146 -44
-5 -5 -279 51 -287 59 -8 7 -3 7 141 -15z m-1593 -75 c0 -47 -3 -85 -6 -85 -3
0 -28 18 -55 41 l-49 41 48 44 c26 24 50 43 55 44 4 0 7 -38 7 -85z m656 43
c24 -23 44 -45 44 -50 0 -9 -91 -77 -104 -78 -6 0 -5 74 4 168 1 8 17 -3 56
-40z m-540 -50 c48 -46 106 -102 130 -126 l44 -43 0 -79 c0 -44 -3 -80 -6 -80
-9 0 -97 76 -186 159 l-72 68 -4 91 c-2 51 -2 92 1 92 4 0 45 -37 93 -82z
m454 -12 l0 -94 -121 -109 c-66 -59 -125 -109 -130 -111 -5 -2 -9 34 -9 81 l0
85 73 69 c109 104 182 173 185 173 1 0 2 -42 2 -94z m418 -20 c-13 -49 -30
-92 -38 -97 -8 -4 -53 -26 -100 -50 -75 -37 -82 -39 -67 -18 10 13 20 32 24
42 3 9 8 17 12 17 4 0 15 17 26 37 37 71 105 177 105 165 0 -7 7 -12 15 -12 8
0 15 -5 15 -11 0 -20 20 2 21 24 1 13 3 16 5 7 3 -8 -6 -55 -18 -104z m-1217
-98 c26 -43 45 -78 41 -77 -4 0 -45 19 -92 42 l-84 42 -28 90 c-15 50 -28 92
-28 94 0 2 9 -7 21 -20 l20 -24 -7 25 c-6 22 -5 23 10 11 14 -12 16 -11 16 4
0 18 33 -30 131 -187z m-188 103 c15 -46 26 -85 23 -88 -5 -5 -288 26 -294 32
-2 1 44 30 102 64 58 34 108 66 111 72 14 22 31 -1 58 -80z m1510 60 c23 -15
79 -47 125 -71 45 -24 81 -44 80 -45 -7 -6 -300 -37 -304 -32 -8 8 39 177 49
177 4 0 27 -13 50 -29z m-2068 0 c-12 -11 -152 -41 -192 -41 -54 0 -4 24 75
36 100 15 129 16 117 5z m2660 -7 c58 -6 108 -25 95 -37 -8 -6 -191 32 -209
44 -12 8 -8 9 16 5 18 -3 62 -8 98 -12z m19 -44 c38 -6 71 -9 74 -6 7 8 42
-13 42 -26 0 -20 -140 -4 -182 22 -41 24 -49 35 -20 26 9 -3 48 -10 86 -16z
m-2729 -5 c-29 -22 -83 -35 -150 -35 -52 0 -57 2 -45 15 13 12 113 29 195 33
20 1 20 1 0 -13z m-700 -25 c8 -13 -40 -102 -69 -128 -19 -17 -119 -42 -170
-42 -22 0 12 30 133 117 92 66 96 68 106 53z m4078 -2 c29 -15 205 -147 212
-159 4 -5 -4 -9 -17 -9 -24 1 -122 23 -148 34 -19 9 -80 106 -80 128 0 21 4
22 33 6z m-2890 -79 c59 -7 107 -15 107 -19 0 -11 -154 -85 -172 -83 -10 2
-18 -3 -18 -9 0 -6 -14 1 -31 18 -76 72 -88 119 -27 110 18 -3 81 -11 141 -17z
m1867 15 c0 -3 -14 -27 -31 -53 -32 -49 -71 -81 -76 -64 -2 5 -16 8 -31 6 -19
-3 -49 9 -99 39 l-72 43 42 8 c23 4 79 9 123 10 45 1 80 5 77 10 -2 4 12 7 31
7 20 0 36 -3 36 -6z m-2149 -53 c-42 -81 -120 -195 -125 -180 -16 49 -34 155
-27 162 12 12 132 56 154 56 16 1 16 -2 -2 -38z m2332 9 c43 -16 57 -26 57
-41 0 -32 -24 -149 -31 -149 -13 0 -139 195 -139 215 0 10 44 1 113 -25z
m-2167 -134 c4 -13 -9 -34 -52 -78 -74 -75 -153 -142 -160 -135 -3 2 36 51 86
107 70 77 89 105 80 114 -8 8 -15 7 -24 -7 -30 -40 -162 -187 -168 -187 -4 0
-10 4 -13 10 -7 11 22 53 108 153 31 37 55 72 52 78 -9 14 -15 9 -101 -96 -61
-75 -80 -92 -82 -76 -2 12 27 64 72 132 42 62 76 117 76 123 1 15 118 -114
126 -138z m1304 39 c0 -5 -20 11 -45 35 -25 24 -45 51 -45 60 1 16 89 -78 90
-95z m-966 64 c36 -17 66 -33 66 -35 0 -2 -57 -4 -127 -4 l-128 0 50 26 c28
15 54 30 60 35 11 11 2 14 79 -22z m356 22 c0 -12 -90 -111 -101 -111 -5 0 12
27 38 60 43 56 63 72 63 51z m1024 -42 l31 -19 -130 0 -130 1 69 34 c76 37 72
38 160 -16z m331 19 c10 -18 45 -70 77 -115 54 -77 70 -113 49 -113 -5 0 -45
43 -88 95 -43 52 -81 95 -85 95 -18 0 -4 -27 45 -89 80 -98 107 -137 107 -149
0 -14 -27 -16 -32 -3 -5 16 -152 191 -160 191 -26 0 -11 -30 48 -98 38 -42 77
-87 88 -99 11 -13 16 -26 12 -30 -7 -7 -206 185 -206 200 0 14 104 146 115
146 6 1 19 -14 30 -31z m-833 -5 c7 -10 32 -35 56 -55 25 -23 36 -38 26 -38
-8 0 -12 -4 -9 -10 4 -6 -1 -7 -11 -3 -15 6 -15 2 4 -24 12 -17 19 -33 15 -36
-8 -8 -112 64 -143 99 -14 16 -18 23 -10 17 24 -21 34 -14 14 9 -23 26 -4 16
48 -26 21 -16 36 -32 33 -34 -3 -3 -16 5 -30 18 -14 13 -27 21 -31 18 -3 -3
16 -22 42 -42 26 -20 50 -34 53 -30 3 3 -3 10 -13 16 -18 10 -18 11 3 22 22
12 21 13 -28 60 -28 26 -51 49 -51 51 0 12 20 3 32 -12z m-487 -3 c3 -6 -8
-23 -26 -38 -18 -15 -43 -37 -56 -49 -19 -20 -43 -30 -43 -20 0 6 105 115 112
116 4 1 10 -4 13 -9z m500 -48 c20 -18 34 -36 31 -39 -6 -6 -94 67 -95 80 -1
11 20 -3 64 -41z m-465 24 c0 -3 -28 -32 -62 -65 -35 -34 -58 -61 -53 -61 6 0
29 18 50 41 22 22 49 45 60 51 26 14 -56 -79 -95 -107 -16 -12 -26 -25 -22
-30 4 -4 0 -6 -8 -3 -8 3 -15 10 -15 16 0 5 -3 14 -7 18 -12 11 -10 34 2 34 6
0 28 15 48 34 77 72 102 89 102 72z m-1285 -26 c-3 -5 -11 -10 -17 -10 -16 0
-159 -52 -154 -57 2 -2 29 3 61 12 31 9 59 15 61 12 3 -2 -8 -18 -23 -34 -19
-20 -52 -37 -98 -51 -70 -22 -142 -59 -132 -68 3 -3 16 1 29 10 23 15 132 56
150 56 4 0 -3 -18 -18 -39 -21 -33 -34 -41 -77 -51 -65 -15 -136 -40 -162 -57
-27 -18 -9 -16 51 6 51 18 144 36 144 28 0 -3 -7 -20 -15 -40 -14 -33 -17 -35
-97 -50 -46 -9 -103 -23 -128 -31 l-45 -16 40 5 c22 3 73 10 113 16 41 6 77 8
80 4 11 -11 -25 -90 -43 -94 -24 -4 -111 -57 -155 -94 -41 -34 -130 -137 -130
-151 0 -5 24 14 53 41 29 28 68 58 86 68 l34 17 -21 -29 c-12 -15 -35 -44 -52
-63 -48 -53 -135 -170 -155 -210 l-19 -35 -9 40 c-12 53 -3 202 18 290 47 203
224 428 412 523 77 40 233 77 218 52z m3039 -6 c223 -57 453 -286 526 -521 24
-77 43 -267 33 -337 l-6 -49 -15 29 c-22 43 -112 162 -176 234 -31 34 -56 66
-56 71 0 13 61 -27 115 -76 27 -25 51 -45 52 -45 14 0 -32 57 -97 121 -51 51
-98 87 -143 109 -59 29 -67 37 -81 76 l-15 44 29 0 c26 0 157 -23 204 -35 19
-6 20 -5 4 8 -16 13 -106 35 -211 52 -31 5 -40 12 -52 42 -8 19 -15 38 -15 40
0 8 81 -9 139 -28 30 -11 56 -17 58 -15 8 8 -103 53 -159 65 -56 12 -69 22
-103 80 -11 20 32 8 124 -35 41 -19 76 -32 78 -30 9 8 -87 57 -160 82 -65 22
-129 65 -116 79 5 4 76 -13 124 -30 18 -6 18 -5 4 7 -9 8 -50 24 -90 37 -120
39 -117 56 5 25z m-1684 -28 c0 -8 -44 -55 -97 -104 -82 -76 -99 -87 -101 -70
-4 23 32 64 121 139 61 51 77 59 77 35z m387 -100 c37 -34 53 -55 53 -73 0
-23 -9 -17 -92 58 -51 46 -99 90 -106 96 -7 7 -10 17 -7 23 8 12 75 -34 152
-104z m-17 59 c24 -20 51 -40 61 -46 11 -5 19 -14 19 -20 0 -11 -64 33 -125
87 -51 45 -12 27 45 -21z m-903 -25 c10 0 24 -5 30 -11 5 -5 29 -10 51 -11 32
0 45 -6 57 -25 9 -14 15 -26 13 -28 -36 -30 -119 -33 -165 -5 -38 23 -48 41
-58 100 l-8 45 31 -33 c16 -17 39 -32 49 -32z m88 50 c8 -13 -13 -40 -31 -40
-8 0 -14 10 -14 25 0 18 5 25 19 25 11 0 23 -5 26 -10z m1171 -1 c3 -6 0 -18
-9 -26 -18 -18 -37 -9 -37 18 0 21 34 27 46 8z m-986 -96 c19 -51 19 -113 -1
-113 -19 0 -41 67 -45 139 -5 71 -4 75 10 51 9 -14 24 -49 36 -77z m1089 30
c-17 -63 -54 -85 -132 -80 -64 4 -82 15 -73 45 5 13 19 21 44 26 20 3 54 14
74 24 33 17 37 18 40 4 2 -12 9 -8 28 14 30 38 36 27 19 -33z m-285 -6 c-6
-55 -34 -147 -44 -147 -4 0 -12 16 -18 36 -9 32 -7 43 21 104 17 38 35 66 39
64 4 -3 5 -28 2 -57z m-1817 47 c-3 -3 -12 -4 -19 -1 -8 3 -5 6 6 6 11 1 17
-2 13 -5z m571 -16 c7 -6 17 -31 24 -55 9 -38 19 -50 71 -85 33 -22 57 -36 53
-29 -4 6 -27 24 -51 41 -32 22 -47 41 -54 67 -14 51 -2 62 19 16 13 -29 30
-45 71 -66 30 -15 63 -27 74 -28 11 0 14 -3 8 -6 -28 -11 -11 -23 25 -17 24 3
51 0 77 -12 l40 -17 -100 -33 c-54 -19 -108 -34 -118 -34 -11 0 -45 19 -76 43
-31 23 -67 49 -80 57 -22 15 -50 103 -51 159 0 20 3 22 27 16 16 -4 34 -11 41
-17z m1182 12 c0 -5 -2 -10 -4 -10 -3 0 -8 5 -11 10 -3 6 -1 10 4 10 6 0 11
-4 11 -10z m524 -22 c-24 -138 -18 -128 -106 -190 -45 -32 -91 -58 -102 -58
-12 0 -65 15 -119 33 l-97 33 30 17 c22 14 42 17 78 13 47 -6 47 -6 17 9 l-30
14 40 1 c62 0 145 49 166 96 15 34 18 36 18 14 1 -49 -12 -71 -68 -110 -66
-47 -61 -54 7 -8 58 40 69 53 76 100 4 27 14 42 34 52 46 26 62 21 56 -16z
m534 25 c-16 -2 -40 -2 -55 0 -16 2 -3 4 27 4 30 0 43 -2 28 -4z m-1249 -51
c8 -8 45 -39 83 -69 42 -34 68 -62 66 -72 -2 -9 5 -24 14 -33 41 -41 13 -35
-49 11 -89 65 -223 180 -223 192 0 17 15 9 65 -34 28 -24 61 -52 74 -63 12
-10 39 -34 60 -51 20 -18 39 -33 44 -33 10 0 9 18 -3 22 -17 6 -190 162 -190
172 0 8 19 -5 59 -42z m-225 31 c4 -4 -3 -16 -16 -26 -22 -18 -17 -19 27 -1 8
3 15 2 15 -2 -1 -14 -337 -360 -344 -353 -3 3 -2 28 3 55 10 54 25 70 184 200
44 35 75 64 70 64 -8 0 -16 -7 -152 -117 -42 -34 -78 -57 -80 -51 -4 13 24 40
171 157 37 30 65 58 62 62 -3 5 1 6 9 3 8 -3 18 -1 22 5 7 13 19 14 29 4z
m-1296 -10 c-27 -2 -69 -2 -95 0 -27 2 -5 3 47 3 52 0 74 -1 48 -3z m431 -37
c20 -80 17 -88 -56 -143 -94 -70 -89 -68 -130 -30 l-37 35 44 39 c24 21 69 61
99 90 31 29 59 53 62 53 4 0 12 -20 18 -44z m1880 25 c12 -10 53 -47 92 -82
39 -35 76 -67 82 -71 13 -8 -3 -30 -44 -58 l-27 -20 -82 61 c-54 40 -80 65
-76 74 3 8 8 37 12 65 4 27 10 50 14 50 4 0 17 -9 29 -19z m521 9 c9 -6 -20
-7 -80 -3 -52 3 -97 7 -99 9 -10 9 165 3 179 -6z m-1645 -28 c-74 -68 -165
-143 -165 -135 0 10 67 75 125 121 42 34 73 44 40 14z m241 -4 c16 -13 61 -50
99 -83 39 -33 86 -71 105 -84 48 -32 90 -89 90 -122 0 -15 3 -36 7 -46 4 -10
-15 2 -43 27 -27 25 -68 61 -91 79 -24 19 -50 45 -59 59 -13 19 -1 14 50 -23
36 -26 66 -45 66 -42 0 2 -37 33 -82 67 -77 59 -187 165 -188 183 0 13 17 7
46 -15z m-1396 2 c-14 -4 -65 -9 -115 -11 -49 -1 -76 -4 -60 -6 17 -2 50 -6
75 -10 l45 -7 -45 -7 c-25 -4 -66 -8 -92 -8 l-47 -1 22 24 c28 30 43 34 152
34 59 0 81 -3 65 -8z m2847 -24 c35 -30 29 -37 -22 -26 -22 4 -57 11 -78 14
-21 4 -35 11 -32 16 3 5 -20 11 -52 13 -35 2 -15 4 49 5 100 2 109 0 135 -22z
m-2872 -37 c-110 -14 -208 -28 -235 -34 -24 -6 -24 -6 3 10 17 10 68 19 125
24 130 11 196 11 107 0z m2813 0 c53 -7 102 -16 107 -22 7 -6 -11 -7 -50 -3
-183 21 -218 26 -223 31 -9 8 63 6 166 -6z m-1324 -204 c51 -82 119 -195 151
-250 32 -55 75 -129 97 -163 22 -35 37 -66 35 -69 -3 -2 -28 12 -57 33 l-51
37 -92 -7 c-51 -4 -119 -13 -152 -20 -75 -17 -87 -17 -155 0 -30 7 -97 16
-147 20 l-93 7 -55 -37 c-30 -20 -55 -32 -55 -27 0 10 353 599 386 645 23 31
31 32 37 4 3 -18 5 -17 6 7 l2 30 25 -30 c13 -16 66 -97 118 -180z m1365 164
c62 -10 107 -26 99 -35 -3 -2 -45 5 -94 16 -49 11 -102 20 -119 20 -16 0 -36
4 -43 9 -16 10 63 5 157 -10z m-2910 0 c-41 -4 -104 -14 -140 -23 -68 -16 -84
-14 -49 4 34 18 99 28 185 28 l80 -1 -76 -8z m1571 -82 c63 -85 229 -369 236
-405 4 -18 4 -35 1 -38 -4 -4 -215 329 -318 501 l-23 40 32 -24 c18 -12 50
-46 72 -74z m-260 79 c0 -14 -265 -453 -312 -518 l-17 -23 0 22 c-1 35 114
249 217 403 45 68 112 137 112 116z m-609 -226 c1 -47 2 -111 4 -142 1 -32 1
-58 -2 -58 -2 0 -50 39 -106 88 -57 48 -114 96 -127 107 -31 25 -74 77 -47 56
9 -7 17 -11 17 -7 0 10 78 -32 158 -85 40 -27 75 -49 79 -49 12 0 -59 50 -176
123 -63 39 -110 72 -103 75 6 2 24 -5 39 -16 37 -25 135 -74 140 -69 2 2 -27
20 -65 40 -59 31 -118 77 -99 77 4 0 36 -16 71 -35 86 -46 95 -44 21 5 -33 22
-60 44 -60 50 0 5 15 20 34 33 l34 23 93 -65 93 -66 2 -85z m1610 196 c15 -13
34 -26 41 -29 9 -3 6 -10 -10 -22 -13 -9 -35 -28 -50 -41 -23 -21 -18 -20 26
7 76 45 75 29 -2 -26 -36 -26 -66 -49 -66 -51 0 -6 4 -4 77 43 28 18 54 37 58
43 8 13 25 13 25 0 0 -5 -47 -41 -105 -80 -58 -39 -105 -73 -105 -76 0 -6 9
-1 80 46 73 48 150 92 150 86 0 -3 -19 -18 -41 -33 -23 -15 -36 -29 -30 -31 6
-2 -6 -18 -28 -35 -79 -65 -157 -132 -204 -176 l-48 -46 6 50 c4 28 10 98 13
156 l7 106 85 66 c47 36 87 65 89 66 2 1 16 -10 32 -23z m-2173 -8 c3 -16 -5
-18 -55 -18 -77 0 -157 -22 -260 -70 -46 -21 -83 -35 -83 -30 0 31 36 93 59
102 52 20 168 37 251 35 72 -2 85 -5 88 -19z m2808 -2 c71 -17 72 -18 92 -64
11 -26 19 -49 16 -51 -2 -2 -43 14 -91 36 -100 46 -168 63 -253 63 -54 0 -58
1 -53 21 6 20 11 21 112 17 58 -3 138 -13 177 -22z m-2711 -140 c11 -54 -2
-43 -19 17 -26 91 -29 117 -7 66 11 -25 23 -63 26 -83z m741 62 c-4 -29 -15
-69 -24 -88 -19 -39 -118 -144 -126 -132 -5 9 21 232 28 240 5 4 99 29 120 31
5 1 5 -23 2 -51z m961 19 c6 -4 16 -46 22 -94 7 -49 14 -100 16 -115 3 -16 1
-28 -3 -28 -17 1 -112 99 -131 135 -16 33 -27 94 -22 127 1 7 100 -14 118 -25z
m-2821 7 c-3 -9 -6 -27 -6 -40 0 -21 -4 -24 -40 -24 -22 0 -40 3 -40 6 0 9 73
73 84 74 4 0 5 -7 2 -16z m3474 -57 c-15 -63 -34 -98 -25 -47 10 62 29 124 33
112 2 -7 -2 -36 -8 -65z m1143 38 c20 -20 37 -38 37 -41 0 -9 -75 9 -82 20
-10 14 -10 56 0 56 4 0 24 -16 45 -35z m-1187 -72 c-8 -101 -29 -202 -51 -241
l-14 -27 -1 26 c0 14 5 84 10 155 9 109 14 132 32 151 12 13 24 23 26 23 3 0
2 -39 -2 -87z m-2269 57 c22 -20 27 -46 38 -235 l5 -90 -20 37 c-11 21 -25 72
-31 115 -5 43 -14 104 -18 136 -4 31 -5 57 -1 57 3 0 16 -9 27 -20z m549 -2
c-3 -13 -8 -45 -11 -71 -5 -36 -10 -47 -21 -43 -11 4 -14 -5 -14 -39 0 -40 -2
-45 -22 -44 -13 0 -17 3 -10 6 7 3 11 21 11 46 -2 30 -3 34 -6 15 -8 -50 -23
-29 -25 32 -1 33 -2 68 -2 77 -1 12 12 21 39 29 59 18 66 17 61 -8z m1200 11
l44 -11 0 -65 c0 -60 -1 -64 -17 -52 -15 13 -16 11 -11 -13 4 -24 2 -28 -17
-28 -20 0 -25 9 -40 77 -10 43 -20 83 -22 90 -6 16 5 16 63 2z m1570 -56 c-10
-10 -67 10 -76 27 -20 37 -9 40 36 10 25 -18 43 -34 40 -37z m-4313 36 c-7
-24 -22 -32 -55 -27 -22 3 -21 4 12 25 44 28 50 28 43 2z m766 -16 c-148 -158
-246 -287 -284 -378 -45 -106 -19 -95 62 25 39 58 101 133 116 139 5 2 1 -11
-8 -29 -26 -51 -13 -44 39 21 26 32 50 59 52 59 2 0 -5 -18 -16 -41 -31 -60
-19 -70 18 -13 17 27 37 57 45 67 26 31 26 18 2 -25 -14 -24 -25 -46 -25 -50
0 -19 21 -4 49 34 38 51 39 45 5 -25 -23 -46 -37 -60 -98 -97 -68 -42 -169
-112 -192 -135 -7 -6 -25 -22 -41 -36 -29 -25 -129 -141 -150 -175 -11 -17
-12 -16 -12 13 -2 66 39 235 75 316 38 85 73 142 131 215 19 23 30 42 24 42
-17 0 -118 -137 -152 -206 -18 -35 -34 -63 -36 -60 -7 7 17 136 35 183 30 81
142 146 307 179 91 18 92 17 54 -23z m2836 4 c133 -44 209 -99 226 -161 20
-74 40 -178 35 -183 -3 -3 -20 26 -39 63 -40 79 -98 161 -133 187 -15 11 -6
-6 24 -45 95 -127 163 -289 181 -437 6 -47 10 -86 8 -87 -2 -2 -30 29 -62 68
-81 97 -193 192 -305 258 -97 57 -108 69 -135 135 l-16 40 41 -42 c23 -24 44
-43 46 -43 2 0 -5 18 -16 40 -29 58 -25 59 17 4 20 -27 38 -51 40 -53 2 -2 6
-2 9 1 3 4 -2 20 -11 38 -27 52 -11 45 34 -15 47 -63 66 -67 31 -8 l-22 38 32
-30 c18 -16 64 -74 102 -127 75 -105 94 -125 83 -87 -30 103 -112 227 -244
369 -50 54 -91 101 -91 105 0 10 103 -7 165 -28z m-1731 -9 c-4 -7 -15 -22
-24 -33 -10 -11 -43 -63 -75 -115 l-57 -95 6 55 c7 57 8 58 113 167 33 34 50
43 37 21z m-2054 -27 c0 -17 -9 -20 -66 -23 -36 -1 -68 0 -70 4 -10 15 43 38
88 38 41 0 48 -3 48 -19z m4720 -1 l25 -20 -77 0 c-71 0 -78 2 -78 20 0 17 7
20 53 20 36 0 60 -6 77 -20z m-2088 -49 c42 -45 57 -69 62 -101 4 -24 5 -44 3
-46 -3 -3 -112 157 -131 194 -17 30 17 7 66 -47z m-2494 24 c-7 -6 -55 -27
-105 -45 -51 -19 -93 -38 -93 -42 0 -11 0 -11 82 12 88 24 126 26 109 6 -13
-15 -134 -52 -206 -62 -31 -4 -66 -18 -91 -36 -37 -27 -51 -30 -128 -33 -48
-2 -86 0 -84 5 2 4 49 46 105 94 l102 87 101 -2 c77 -1 105 2 118 14 23 20 40
24 74 19 24 -4 27 -7 16 -17z m1249 -120 c45 -84 111 -229 118 -261 l7 -29
-28 30 c-16 16 -71 81 -121 145 -87 108 -92 117 -86 150 4 19 6 50 6 69 l-1
33 39 -43 c22 -24 52 -66 66 -94z m3155 119 c24 -12 56 -16 129 -15 l98 2 101
-87 c55 -47 100 -89 100 -93 0 -4 -41 -6 -90 -4 -84 2 -93 4 -127 32 -26 21
-48 31 -71 31 -39 0 -222 60 -222 72 0 11 82 0 134 -18 21 -8 46 -14 55 -14
22 1 -62 45 -124 66 -27 9 -57 23 -65 30 -12 12 -10 14 18 14 18 0 47 -7 64
-16z m-1228 -40 c11 -80 7 -92 -36 -141 -24 -27 -74 -90 -112 -141 -38 -51
-71 -90 -73 -88 -6 6 42 134 85 226 36 78 109 189 123 190 4 0 9 -21 13 -46z
m46 -9 c0 -42 -3 -55 -15 -55 -8 0 -15 9 -15 21 0 11 5 17 10 14 6 -4 10 10
10 34 0 23 2 41 5 41 3 0 5 -25 5 -55z m-2101 -22 c1 -18 -3 -33 -9 -33 -5 0
-10 24 -9 53 0 38 3 47 9 32 5 -11 9 -35 9 -52z m1517 -15 l19 -21 -27 18
c-29 18 -34 25 -20 25 5 0 17 -10 28 -22z m173 -31 c0 -21 -1 -21 -9 -2 -12
28 -12 37 0 30 6 -3 10 -16 9 -28z m-1099 11 c0 -7 -15 -23 -33 -35 -17 -13
-45 -35 -62 -51 -41 -38 -95 -75 -95 -65 0 11 34 41 107 97 34 26 65 51 68 57
8 13 15 11 15 -3z m-1730 -19 c0 -5 -21 -9 -47 -8 l-48 1 40 13 c41 13 55 11
55 -6z m2715 -34 c59 -42 105 -85 91 -85 -10 0 -163 117 -172 132 -9 14 5 6
81 -47z m1725 34 c19 -5 12 -7 -27 -8 -41 -1 -53 2 -53 14 0 16 12 15 80 -6z
m-3480 2 c0 -13 -51 -73 -57 -67 -5 5 45 76 53 76 2 0 4 -4 4 -9z m2474 -31
c14 -22 22 -40 17 -40 -9 0 -51 61 -51 74 0 13 8 5 34 -34z m-2248 -43 c74
-90 145 -197 138 -209 -3 -5 6 -23 22 -39 54 -56 15 -39 -62 28 -84 72 -117
105 -139 138 -15 23 -31 145 -18 144 4 0 31 -28 59 -62z m1532 -3 c96 -74 115
-93 108 -111 -3 -7 0 -15 5 -19 14 -8 69 -95 69 -108 0 -6 -11 2 -25 17 -14
15 -73 64 -131 108 -100 78 -124 102 -111 116 4 3 45 -22 92 -56 47 -33 88
-61 91 -61 14 0 -15 26 -94 86 -78 59 -114 94 -97 94 3 0 45 -30 93 -66z m514
4 c-2 -29 -10 -64 -18 -79 -15 -31 -209 -209 -227 -209 -8 0 38 83 87 156 52
78 148 193 157 188 3 -2 4 -27 1 -56z m-3279 46 c22 -4 37 -12 37 -20 0 -11
-20 -14 -89 -14 -48 0 -109 -3 -135 -6 -52 -8 -63 7 -18 24 47 19 141 26 205
16z m1761 -16 c-39 -45 -202 -173 -211 -165 -6 7 48 56 142 130 73 58 101 72
69 35z m2901 -2 c16 -9 -8 -12 -109 -14 -97 -2 -131 1 -137 10 -17 27 199 30
246 4z m-4233 -34 c-6 -15 -29 -73 -51 -129 -23 -56 -41 -112 -40 -125 0 -14
10 1 27 42 35 84 61 130 62 109 0 -14 -17 -108 -35 -196 -4 -15 -19 -27 -52
-39 -84 -30 -136 -54 -131 -59 3 -3 30 3 59 14 74 26 107 33 114 22 3 -5 -7
-18 -22 -29 -40 -27 -305 -164 -310 -159 -2 2 8 40 21 83 45 139 157 315 285
443 73 72 94 79 73 23z m2448 38 c0 -5 -2 -10 -4 -10 -3 0 -8 5 -11 10 -3 6
-1 10 4 10 6 0 11 -4 11 -10z m1231 -78 c133 -139 250 -329 279 -450 7 -29 11
-55 9 -57 -7 -5 -259 124 -295 151 -65 50 -40 57 68 19 39 -14 74 -25 77 -25
17 0 -48 34 -106 56 -37 14 -71 29 -75 32 -8 9 -41 199 -36 213 2 5 21 -31 42
-81 68 -160 55 -96 -27 133 -20 53 -32 97 -28 97 4 0 45 -40 92 -88z m-2672 3
c0 -5 -6 1 -14 15 -8 14 -14 30 -14 35 0 6 6 -1 14 -15 8 -14 14 -29 14 -35z
m334 24 c-3 -11 -44 -49 -91 -82 -104 -75 -165 -128 -156 -136 3 -3 11 1 17
10 13 16 211 159 222 159 16 0 -14 -27 -103 -92 -54 -39 -114 -87 -134 -106
-38 -36 -51 -34 -24 3 8 11 12 25 9 31 -9 24 33 69 142 150 60 46 113 83 117
84 3 0 4 -9 1 -21z m1258 -10 c-5 -13 -10 -19 -10 -12 -1 15 10 45 15 40 3 -2
0 -15 -5 -28z m-3005 -11 c4 -5 5 -10 3 -12 -2 -2 -119 -7 -259 -10 -248 -7
-292 -3 -275 23 8 13 518 12 531 -1z m4933 3 c11 -7 9 -11 -9 -21 -16 -9 -85
-10 -268 -5 -244 7 -305 14 -227 26 64 10 489 10 504 0z m-2167 -102 c100 -75
188 -156 188 -171 0 -9 -86 56 -140 106 -14 12 -53 44 -87 70 -54 41 -76 66
-58 66 3 0 47 -32 97 -71z m-2913 40 c108 -3 145 -7 149 -17 3 -11 -23 -13
-135 -10 -112 2 -137 1 -124 -9 10 -8 54 -13 116 -13 118 0 147 -6 143 -29 -3
-13 -21 -17 -93 -21 -101 -6 -93 -20 11 -20 68 0 66 1 66 -55 0 -57 3 -55 -78
-55 -41 0 -85 5 -96 11 -20 11 -203 152 -263 204 l-30 25 95 -4 c52 -2 160 -5
239 -7z m5026 2 c-19 -17 -121 -97 -209 -164 l-88 -68 -82 3 c-73 3 -81 5 -81
23 0 18 8 20 95 25 67 4 88 7 72 13 -13 5 -56 7 -95 5 -66 -3 -72 -1 -72 17 0
18 8 20 75 23 104 4 115 22 15 24 -112 2 -109 1 -113 20 -4 23 38 30 152 26
93 -3 95 -2 133 29 36 30 43 32 123 32 49 1 80 -3 75 -8z m-208 -18 c-16 -16
-34 -18 -145 -15 -69 2 -128 5 -130 7 -16 16 27 23 151 24 136 2 141 1 124
-16z m-3577 -52 c0 -65 17 -93 22 -36 4 45 21 46 28 3 3 -22 8 -29 13 -20 15
22 27 13 27 -22 0 -31 -5 -36 -62 -67 -35 -19 -67 -36 -71 -38 -5 -2 -6 12 -3
30 3 19 11 73 17 122 7 48 16 87 21 87 4 0 8 -27 8 -59z m640 39 c-6 -12 -35
-38 -63 -58 -29 -20 -90 -65 -135 -100 -46 -35 -86 -61 -89 -58 -9 8 77 85
181 162 104 77 124 88 106 54z m1617 -148 l6 -74 -72 38 c-69 37 -71 40 -65
69 7 35 15 45 21 28 10 -27 23 -11 23 28 0 51 16 43 26 -14 8 -42 8 -42 15
-12 3 17 8 48 9 70 l2 40 14 -50 c8 -27 17 -83 21 -123z m-639 131 c20 -16 79
-62 131 -103 52 -41 99 -78 105 -82 6 -4 8 -10 4 -13 -3 -4 -49 27 -101 67
-52 40 -115 88 -141 105 -25 18 -46 37 -46 43 0 15 8 12 48 -17z m704 -103
c26 -63 53 -132 62 -152 l16 -37 -53 32 c-28 17 -54 33 -57 35 -2 2 -8 40 -11
85 -4 45 -10 102 -14 127 -11 66 5 42 57 -90z m117 109 c10 -18 15 -19 22 -8
5 8 9 9 9 3 0 -6 22 -40 49 -76 45 -60 80 -142 67 -156 -7 -7 -3 -12 -64 78
-66 99 -113 180 -104 180 4 0 13 -10 21 -21z m-2733 -33 c-15 -35 -17 -36 -68
-36 l-53 0 64 40 c36 21 67 38 69 36 2 -2 -4 -20 -12 -40z m240 -33 c-14 -164
-12 -159 -69 -197 -28 -19 -53 -33 -55 -31 -2 2 5 20 16 42 10 21 38 89 62
151 23 61 45 112 47 112 3 0 2 -35 -1 -77z m2574 62 c7 -8 18 -15 24 -15 6 0
29 -12 51 -25 l40 -25 -52 0 c-51 0 -53 1 -73 40 -20 39 -14 54 10 25z m-2766
-17 c-6 -21 -5 -22 11 -8 17 14 17 14 6 -9 -11 -19 -15 -21 -23 -10 -7 11 -8
9 -4 -5 5 -13 -10 -44 -45 -98 -28 -43 -55 -78 -60 -78 -17 0 20 89 58 141 22
30 43 62 46 72 9 25 20 21 11 -5z m886 -31 c0 -1 -4 -16 -9 -34 -7 -25 -4 -41
14 -80 48 -97 123 -153 209 -153 53 0 54 0 111 -64 66 -74 105 -155 112 -237
5 -55 5 -56 -33 -85 -97 -76 -265 -145 -346 -143 -43 1 -43 1 -10 9 53 12 46
16 -26 12 -51 -3 -78 1 -114 17 -27 11 -48 22 -48 25 0 2 26 3 58 1 41 -3 47
-2 22 3 -28 6 -31 9 -17 15 10 4 37 7 60 8 23 0 60 4 82 8 34 7 27 9 -45 10
-106 2 -213 17 -248 35 -15 8 -26 16 -24 18 2 1 -2 16 -8 32 -6 16 -9 30 -7
32 2 2 41 -4 88 -12 100 -19 321 -14 409 10 l55 15 -65 -7 c-118 -13 -320 -7
-390 12 -111 29 -117 33 -129 83 -7 25 -10 47 -8 49 2 3 21 -3 43 -12 88 -37
322 -55 444 -35 33 5 5 9 -110 12 -166 6 -276 28 -355 72 -35 20 -40 27 -43
66 -3 39 -2 43 15 36 126 -51 267 -75 425 -74 186 2 178 15 -12 21 -119 4
-194 11 -235 23 -70 19 -175 65 -175 75 0 4 26 27 58 52 31 25 71 58 87 73 70
63 165 128 165 112z m1021 -51 c20 -17 44 -38 55 -46 10 -8 55 -44 98 -79 l79
-65 -61 -27 c-110 -51 -165 -61 -357 -67 -194 -6 -197 -19 -5 -21 129 -1 252
17 360 54 41 14 75 25 76 25 2 0 0 -12 -3 -27 -3 -16 -6 -36 -7 -46 -3 -26
-17 -33 -131 -69 -89 -28 -118 -32 -260 -38 l-160 -6 90 -8 c139 -14 393 14
433 46 9 8 12 5 12 -10 0 -50 -13 -81 -39 -91 -108 -42 -292 -60 -440 -42
-109 14 -130 9 -39 -9 142 -27 354 -24 466 6 23 7 23 6 8 -30 -8 -20 -12 -36
-8 -36 4 -1 -5 -7 -20 -15 -41 -22 -172 -38 -273 -32 -118 6 -67 -9 87 -26
l113 -12 -49 -29 c-45 -26 -55 -28 -125 -24 -69 4 -73 4 -46 -8 l30 -13 -30 0
c-98 -1 -270 74 -365 161 -22 20 -20 54 11 160 15 54 31 81 81 137 60 70 62
71 109 71 26 0 61 5 76 12 92 39 170 148 159 220 -6 38 -6 39 16 27 13 -7 39
-26 59 -43z m-381 4 l-35 -30 55 30 55 31 -35 -31 -35 -31 35 16 c32 14 33 14
15 0 -11 -9 -31 -18 -45 -21 -14 -3 -60 -17 -102 -31 l-77 -24 -92 29 c-50 16
-86 32 -80 36 6 4 19 2 30 -4 11 -5 26 -10 33 -9 7 0 -2 7 -20 15 -22 10 -38
11 -51 5 -13 -7 -18 -6 -18 4 0 7 7 11 15 7 9 -3 13 -1 9 5 -4 6 0 13 8 17 8
3 14 0 12 -6 -1 -7 7 -13 18 -15 16 -3 17 -2 6 6 -17 11 42 7 73 -5 14 -5 17
-4 12 5 -9 15 45 3 55 -12 4 -5 14 -5 27 2 27 14 45 14 36 -1 -4 -6 10 -1 31
12 21 13 35 18 31 12 -10 -17 15 -15 38 3 35 26 31 16 -4 -15z m820 -9 c0 -14
-5 -18 -20 -14 -11 3 -20 10 -20 15 0 5 4 7 9 3 5 -3 12 -1 16 5 9 15 15 12
15 -9z m-2319 -43 c-42 -83 -133 -238 -142 -244 -5 -3 -9 -11 -9 -19 0 -12 6
-11 37 1 30 13 167 44 191 44 26 0 -143 -88 -259 -135 -44 -18 -49 -24 -98
-123 -29 -57 -50 -106 -47 -109 3 -3 51 5 108 17 200 43 494 109 510 115 24 9
30 -10 10 -33 -11 -12 -55 -28 -122 -45 -220 -54 -526 -138 -569 -157 -23 -10
-23 -9 -17 21 24 122 235 493 371 652 31 37 59 67 60 67 2 0 -9 -24 -24 -52z
m-154 15 c-3 -10 -10 -39 -17 -65 -12 -46 -34 -77 -46 -65 -10 10 39 147 54
147 8 0 11 -7 9 -17z m2879 -73 c69 -86 149 -213 222 -350 50 -94 122 -259
122 -279 0 -7 -14 -5 -37 4 -57 22 -328 98 -503 140 -108 26 -160 44 -172 57
-10 11 -16 24 -13 28 3 4 49 -2 102 -15 54 -12 157 -35 228 -50 72 -15 170
-37 218 -49 48 -13 90 -20 92 -16 2 3 -14 40 -36 81 -22 41 -46 88 -54 104
-11 26 -32 39 -122 78 -131 58 -217 107 -187 107 30 0 187 -41 202 -53 31 -24
19 8 -32 93 -55 90 -106 189 -106 205 0 11 1 10 76 -85z m117 58 c23 -50 40
-109 33 -115 -12 -12 -34 19 -46 65 -7 26 -14 55 -17 65 -8 30 14 19 30 -15z
m-3070 -40 c-15 -65 -36 -108 -53 -108 -14 0 -13 9 9 72 39 113 67 135 44 36z
m3153 -35 c12 -37 21 -69 19 -72 -14 -13 -34 16 -49 71 -10 34 -20 72 -23 83
-5 19 -4 19 12 3 10 -9 28 -47 41 -85z m-1703 53 c97 -32 120 -32 215 0 85 28
127 33 145 15 9 -9 4 -10 -20 -5 -30 6 -210 -43 -198 -54 2 -3 18 1 35 8 17 7
33 10 37 6 3 -3 -11 -13 -32 -22 -29 -12 -35 -18 -24 -25 20 -13 -62 -12 -116
2 -29 7 -45 17 -48 31 -4 14 -1 18 8 14 7 -2 31 -7 52 -10 45 -7 29 -1 -82 34
-65 20 -93 21 -140 4 -16 -6 -15 -3 5 13 30 26 58 24 163 -11z m-1529 -80 c-8
-38 -12 -71 -10 -73 5 -5 107 27 123 39 30 23 16 -15 -37 -97 l-57 -90 -104
-56 c-71 -37 -105 -51 -107 -42 -6 24 30 163 48 186 15 18 14 10 -7 -52 -34
-101 -24 -124 11 -26 48 133 137 298 152 282 1 -1 -4 -33 -12 -71z m3342 -58
c24 -48 55 -117 68 -152 14 -35 32 -76 41 -90 10 -15 13 -26 6 -26 -6 0 -54
23 -106 51 -93 50 -97 54 -155 140 -55 83 -68 109 -55 109 3 0 35 -13 70 -29
36 -16 67 -26 69 -23 2 4 -2 34 -10 67 -7 33 -14 67 -14 75 1 26 39 -29 86
-122z m-3906 95 c0 -5 -9 -23 -20 -41 l-20 -32 -55 36 c-30 20 -55 38 -55 40
0 2 34 4 75 4 41 0 75 -3 75 -7z m886 -25 c-36 -85 -62 -122 -94 -135 -40 -16
-41 -19 37 90 59 81 80 98 57 45z m3613 -7 c-59 -42 -68 -41 -95 11 l-15 28
82 0 82 0 -54 -39z m-906 -75 c29 -40 34 -52 22 -54 -9 -2 -23 2 -31 9 -18 14
-58 92 -68 129 -6 24 -6 24 16 -4 13 -16 40 -52 61 -80z m-2362 76 c-47 -33
-135 -64 -235 -83 -55 -10 -105 -19 -111 -19 -21 1 42 40 89 56 38 13 248 60
276 63 3 0 -6 -8 -19 -17z m2036 -7 c101 -19 204 -53 234 -77 l24 -19 -50 7
c-84 11 -196 43 -260 73 -69 34 -58 37 52 16z m-1042 -16 l60 -2 -45 -7 c-25
-4 -67 -4 -94 1 -60 11 -78 24 -21 16 22 -4 67 -7 100 -8z m-982 -44 c-46 -32
-131 -58 -169 -51 -49 10 -34 20 61 40 44 10 85 19 90 21 28 9 38 4 18 -10z
m990 8 c-18 -2 -48 -2 -65 0 -18 2 -4 4 32 4 36 0 50 -2 33 -4z m1020 -15 c53
-12 97 -25 97 -29 0 -28 -105 -10 -180 31 -46 25 -34 25 83 -2z m-2913 -8 c0
-5 -11 -20 -23 -33 -13 -12 -32 -36 -42 -53 -16 -26 -14 -25 18 9 50 50 65 47
27 -5 -166 -231 -206 -333 -224 -576 l-5 -73 72 73 c58 59 212 178 229 178 5
0 -7 -108 -12 -113 -3 -2 -52 -32 -110 -67 -112 -67 -165 -105 -217 -154 -18
-16 -33 -26 -34 -20 -9 74 19 300 53 434 36 141 110 305 155 341 12 10 10 1
-9 -31 -42 -74 -43 -99 -1 -35 32 49 109 135 120 135 2 0 3 -4 3 -10z m3773
-39 c26 -28 61 -71 78 -98 18 -29 28 -38 24 -23 -4 14 -21 44 -37 68 -16 23
-24 42 -19 42 17 0 88 -118 115 -189 35 -91 83 -289 95 -391 13 -112 20 -208
15 -213 -2 -2 -26 17 -53 43 -28 25 -89 70 -136 100 -198 127 -179 110 -186
165 -3 28 -5 52 -3 54 8 9 174 -121 236 -184 37 -38 68 -67 68 -64 0 20 -31
233 -39 271 -22 96 -89 240 -140 300 -43 50 -83 109 -77 115 3 4 25 -11 48
-33 34 -33 38 -34 20 -9 -12 17 -34 45 -48 63 -41 50 -12 38 39 -17z m-2833
-1 c0 -30 -122 -61 -146 -37 -12 11 -2 16 67 31 82 18 79 18 79 6z m1920 -5
c73 -9 94 -21 60 -33 -24 -9 -72 -2 -124 18 -29 11 -36 34 -8 26 9 -2 42 -8
72 -11z m778 -20 c-3 -3 -9 2 -12 12 -6 14 -5 15 5 6 7 -7 10 -15 7 -18z m26
-75 c4 -24 3 -28 -2 -15 -14 31 -24 83 -13 65 5 -8 11 -31 15 -50z m-2967 28
c29 -13 53 -28 53 -34 0 -12 -40 -67 -87 -121 -23 -27 -39 -34 -93 -43 -85
-13 -82 -13 -69 13 20 38 133 207 138 207 3 0 30 -10 58 -22z m2455 -83 c67
-97 80 -125 56 -125 -19 1 -139 27 -142 31 -29 35 -96 134 -96 143 0 13 87 56
105 52 5 -2 40 -47 77 -101z m-2245 60 c-5 -12 -11 -13 -34 -2 l-27 12 30 6
c35 6 38 5 31 -16z m1946 15 c20 0 20 0 1 -15 -27 -20 -41 -18 -47 6 -4 15 -2
19 10 15 8 -3 24 -6 36 -6z m-2879 -82 c-7 -46 -13 -101 -13 -124 -1 -32 -15
-62 -71 -150 -38 -60 -70 -113 -70 -119 0 -5 -12 -28 -26 -50 l-26 -40 7 65
c9 97 43 238 70 297 36 80 121 203 139 203 1 0 -4 -37 -10 -82z m3810 22 c26
-32 60 -88 77 -123 28 -62 71 -229 83 -332 7 -58 4 -55 -59 60 -21 39 -56 97
-78 129 -37 54 -41 69 -58 185 -20 138 -21 141 -15 141 1 0 24 -27 50 -60z
m-2814 6 c0 -2 7 -20 15 -40 l15 -36 -45 -22 c-24 -12 -48 -19 -51 -15 -8 8
46 117 58 117 4 0 8 -2 8 -4z m1824 -57 c16 -28 26 -52 24 -55 -5 -5 -98 26
-98 32 0 15 30 74 38 74 5 0 21 -23 36 -51z m-2344 25 c0 -11 -59 -90 -87
-116 -28 -27 -93 -49 -93 -32 1 12 64 74 120 118 43 34 60 43 60 30z m2877
-33 c26 -21 66 -57 88 -80 32 -34 36 -41 20 -41 -40 1 -75 26 -125 88 -27 35
-50 65 -50 68 0 12 23 0 67 -35z m261 5 c70 -35 134 -87 116 -93 -11 -4 -169
88 -194 112 -24 25 5 18 78 -19z m-3382 16 c-3 -5 -41 -30 -84 -55 -44 -25
-87 -53 -96 -62 -15 -15 -16 -15 -16 4 0 28 25 49 104 87 69 33 102 42 92 26z
m746 -154 c-7 -7 -12 -8 -12 -2 0 6 3 14 7 17 3 4 9 5 12 2 2 -3 -1 -11 -7
-17z m-861 -21 c-5 -14 -22 -33 -36 -44 -14 -10 -47 -34 -73 -54 -90 -68 -96
-63 -19 18 51 55 127 117 134 109 2 -2 -1 -15 -6 -29z m3634 -54 c47 -47 83
-88 80 -91 -5 -5 -153 103 -172 127 -15 17 -17 51 -4 51 6 0 48 -39 96 -87z
m-984 -4 c67 -43 112 -83 103 -92 -3 -3 -13 1 -22 9 -10 7 -50 38 -91 69 -88
65 -82 72 10 14z m-1758 -19 c-67 -58 -118 -90 -111 -68 5 15 145 118 160 118
5 0 -17 -23 -49 -50z m2026 -83 c7 -54 11 -101 9 -103 -3 -2 -18 38 -36 88
-29 88 -33 120 -11 88 9 -12 10 -12 5 3 -3 9 -3 24 1 33 10 27 19 -2 32 -109z
m-2340 -55 c1 -115 -11 -205 -30 -226 -17 -19 -20 50 -10 209 6 91 14 172 18
178 13 22 21 -35 22 -161z m141 -39 c-29 -109 -58 -225 -65 -258 -8 -33 -18
-73 -24 -88 -6 -15 -8 -27 -5 -27 3 0 74 51 157 114 163 121 315 226 329 226
22 0 -22 -47 -143 -151 -231 -198 -306 -277 -428 -450 l-23 -34 6 105 c9 161
63 378 141 567 45 108 95 206 101 200 3 -3 -18 -94 -46 -204z m2276 -17 c4
-183 3 -190 -12 -156 -30 63 -43 332 -18 372 18 28 27 -41 30 -216z m-2513
126 c-20 -3 -22 -11 -28 -100 -8 -122 -6 -116 -31 -94 -19 18 -20 28 -16 138
2 66 6 121 8 123 2 2 21 7 41 10 l38 7 5 -41 c4 -35 2 -40 -17 -43z m452 38
c-39 -28 -92 -66 -119 -86 -26 -19 -50 -33 -52 -31 -11 10 11 35 59 66 154
103 233 138 112 51z m1894 -48 c99 -220 174 -479 187 -651 5 -70 4 -82 -7 -75
-12 6 -12 5 0 -9 8 -10 12 -20 9 -22 -3 -3 -41 43 -86 103 -110 146 -148 185
-367 374 -124 106 -164 148 -144 148 21 0 143 -85 359 -248 67 -51 124 -91
126 -89 4 4 -11 66 -66 272 -4 17 -20 82 -34 145 -15 63 -29 123 -32 133 -3 9
-2 17 3 17 4 0 28 -44 52 -98z m-144 20 c40 -26 79 -58 85 -71 11 -24 11 -24
-12 -8 -13 9 -62 42 -110 74 -48 32 -88 61 -88 65 0 13 49 -11 125 -60z m404
62 c35 -7 38 -16 45 -161 3 -84 2 -93 -18 -112 -12 -12 -25 -21 -29 -21 -3 0
-8 48 -9 108 -3 102 -4 107 -25 110 -19 3 -23 10 -23 43 0 42 4 44 59 33z
m-2709 -120 l0 -104 -26 17 c-26 16 -26 19 -22 101 4 80 17 110 40 96 4 -3 8
-52 8 -110z m277 91 c26 68 11 -8 -17 -86 -32 -93 -38 -78 -18 44 10 59 13 67
18 42 l6 -30 11 30z m2547 -32 c11 -85 7 -127 -14 -146 -11 -9 -22 -17 -25
-17 -3 0 -5 49 -5 109 0 102 1 109 19 104 13 -3 20 -17 25 -50z m-599 -11 c44
-25 103 -60 131 -79 l52 -33 27 -103 c15 -56 33 -124 41 -151 8 -27 12 -51 10
-54 -7 -6 -273 198 -326 250 -84 82 -124 135 -65 86 6 -5 47 -32 93 -61 45
-29 118 -80 162 -115 44 -34 80 -57 80 -49 0 15 -43 57 -110 108 -25 18 -51
39 -58 46 -8 7 -51 43 -98 79 -46 36 -84 68 -84 70 0 14 208 -109 283 -169 40
-31 56 -30 41 3 -9 19 -60 59 -221 171 -111 76 -93 77 42 1z m-2295 -22 c0
-38 -2 -70 -5 -70 -3 0 -14 8 -25 17 -23 20 -29 108 -7 116 33 14 37 7 37 -63z
m705 54 c-11 -8 -60 -44 -110 -81 -104 -75 -155 -121 -155 -140 0 -15 16 -17
25 -4 15 25 272 187 281 178 3 -3 -14 -21 -38 -40 -24 -20 -75 -62 -115 -95
-39 -32 -94 -75 -121 -95 -27 -21 -52 -46 -55 -57 -6 -24 6 -26 24 -3 39 47
339 247 339 226 0 -20 -394 -341 -421 -343 -5 0 17 85 65 251 16 56 19 58 109
117 96 63 165 101 182 101 6 0 1 -7 -10 -15z m2259 -6 c10 -41 6 -81 -11 -100
-27 -30 -33 -21 -33 52 0 62 2 70 19 70 11 0 21 -9 25 -22z m76 -15 c0 -2 -9
-13 -20 -25 -23 -25 -35 -19 -26 16 4 18 11 23 26 19 11 -3 20 -7 20 -10z
m-3120 -20 c-1 -27 -1 -27 -15 -9 -19 25 -19 36 0 36 10 0 15 -10 15 -27z
m1483 5 c-6 -7 -35 -44 -66 -82 -49 -61 -97 -141 -97 -163 0 -5 12 12 26 37
25 45 131 160 146 160 5 0 -7 -24 -27 -52 -20 -29 -44 -82 -55 -117 -25 -79
-25 -101 0 -38 20 51 90 167 102 167 4 0 -3 -30 -16 -67 -13 -38 -26 -84 -29
-103 -7 -39 -8 -41 43 73 l26 58 26 -58 c14 -32 31 -69 37 -83 9 -21 10 -18 5
20 -4 24 -15 64 -25 88 -35 82 -20 81 36 -3 20 -30 42 -72 50 -92 12 -33 14
-34 14 -13 1 25 -48 132 -90 198 -11 17 -16 32 -11 32 18 0 126 -127 155 -182
20 -39 26 -45 21 -23 -8 37 -55 114 -109 180 -44 53 -59 75 -52 75 7 0 84 -65
140 -117 26 -25 50 -43 53 -40 3 2 -20 32 -52 66 -76 82 -49 78 38 -6 59 -57
67 -62 49 -32 -11 19 -32 46 -46 59 -28 26 -35 51 -7 29 9 -8 34 -24 56 -34
21 -11 54 -39 74 -63 44 -53 53 -47 18 13 -47 80 20 42 95 -55 l20 -25 -7 25
c-3 14 -17 44 -29 67 -30 54 -15 65 29 21 48 -48 63 -121 48 -230 -13 -89 -32
-128 -32 -65 0 21 -9 56 -21 78 -22 45 -36 48 -19 5 22 -58 12 -127 -33 -228
-18 -38 -47 -68 -33 -32 5 10 10 47 13 80 6 66 -15 152 -43 174 -17 15 -17 15
1 -35 17 -47 21 -119 5 -95 -5 8 -10 26 -10 40 0 14 -11 48 -25 75 -22 45 -24
46 -17 15 14 -70 7 -182 -15 -230 -20 -42 -64 -100 -76 -100 -3 0 1 21 9 47
15 51 17 117 5 178 l-9 40 -1 -44 c-1 -46 -30 -141 -43 -141 -5 0 -8 -6 -8
-12 0 -7 -12 -26 -26 -43 -14 -16 -49 -58 -77 -92 -29 -34 -55 -62 -59 -62 -3
-1 -7 63 -8 142 -1 78 -5 187 -9 242 -8 98 -8 96 -11 -75 -4 -258 -5 -299 -12
-305 -11 -11 -134 139 -170 208 -33 62 -38 80 -39 142 0 57 -2 66 -10 45 -12
-28 -7 -224 6 -254 15 -33 -10 -10 -50 48 -35 51 -38 61 -43 144 -3 53 0 103
6 121 6 17 9 31 7 31 -11 0 -38 -68 -50 -124 l-13 -61 -1 46 c-1 26 6 66 14
89 22 63 11 60 -19 -4 -28 -58 -36 -140 -21 -205 10 -45 -5 -34 -35 26 -22 41
-25 62 -25 146 0 53 -1 97 -2 97 -7 0 -35 -80 -42 -115 l-7 -40 -12 53 c-16
71 -15 149 2 207 15 49 59 105 83 105 18 0 16 -8 -7 -37 -11 -14 -25 -43 -31
-65 -11 -42 -6 -66 6 -26 8 25 89 108 106 108 6 0 1 -15 -10 -34 -37 -59 -24
-68 23 -18 43 46 146 112 146 94 0 -5 -12 -19 -26 -33 -23 -21 -54 -69 -54
-83 0 -3 24 20 52 50 47 50 88 82 88 70 0 -3 -20 -26 -45 -53 -51 -55 -61 -82
-12 -35 30 29 148 121 156 122 2 0 -1 -6 -6 -12z m-1626 -75 c-14 -169 -20
-390 -10 -396 5 -3 85 21 179 53 93 33 175 60 182 60 6 0 12 4 12 9 0 9 -142
141 -192 177 -15 12 -53 45 -84 73 -47 44 -53 54 -44 71 6 11 13 20 16 20 10
0 45 -21 67 -40 12 -10 42 -35 67 -55 79 -65 240 -217 251 -236 11 -21 -4 -59
-22 -59 -6 0 -63 -21 -127 -46 -101 -39 -191 -84 -364 -182 l-38 -22 0 149 c0
129 19 373 35 452 5 22 36 44 69 48 5 1 6 -33 3 -76z m3403 62 c21 -11 31 -25
34 -48 18 -111 27 -225 33 -391 l6 -188 -21 6 c-12 4 -49 23 -84 42 -145 79
-265 137 -346 166 -96 34 -112 43 -112 65 0 31 353 353 386 353 7 0 18 -10 25
-21 10 -19 6 -26 -32 -58 -130 -109 -289 -252 -288 -258 1 -6 251 -98 353
-130 18 -6 19 1 13 218 -3 123 -8 232 -12 242 -9 21 6 22 45 2z m-2981 -137
l2 -123 -21 21 c-20 19 -21 27 -14 122 5 71 11 102 19 102 10 0 13 -32 14
-122z m2545 90 c3 -18 6 -68 7 -111 2 -61 -2 -82 -15 -95 -15 -15 -16 -7 -16
111 0 121 11 165 24 95z m381 -220 c4 -91 3 -148 -3 -152 -10 -6 -262 80 -277
95 -7 7 0 19 21 37 18 15 63 55 100 89 38 34 85 75 104 91 l35 30 6 -22 c4
-13 10 -88 14 -168z m-3212 105 c50 -43 109 -95 131 -116 39 -36 40 -38 21
-50 -16 -9 -178 -69 -257 -94 -16 -5 -18 4 -18 104 0 134 10 233 22 233 6 0
51 -35 101 -77z m3450 -110 c-13 -2 -33 -2 -45 0 -13 2 -3 4 22 4 25 0 35 -2
23 -4z m-3775 -10 c-10 -2 -28 -2 -40 0 -13 2 -5 4 17 4 22 1 32 -1 23 -4z
m-15 -30 c-7 -2 -19 -2 -25 0 -7 3 -2 5 12 5 14 0 19 -2 13 -5z m3815 0 c-15
-2 -42 -2 -60 0 -18 2 -6 4 27 4 33 0 48 -2 33 -4z m-2603 -30 c-17 -26 -116
-143 -160 -188 -11 -12 -33 -36 -48 -54 -15 -19 -31 -30 -35 -27 -20 21 113
191 206 261 54 42 60 43 37 8z m1476 -94 c32 -33 69 -76 82 -96 25 -40 41 -86
28 -81 -23 9 -251 275 -251 293 0 11 76 -52 141 -116z m-2646 49 c4 -29 5 -75
3 -103 -2 -39 -7 -51 -22 -53 -18 -4 -19 1 -12 92 l7 96 -50 0 c-28 0 -51 5
-51 10 0 6 26 10 59 10 l60 0 6 -52z m3820 42 c4 -6 -15 -10 -51 -10 l-57 0 5
-95 c3 -52 3 -97 0 -100 -3 -2 -11 0 -19 6 -9 8 -13 40 -13 110 l0 99 64 0
c36 0 68 -4 71 -10z m-3882 -65 c-2 -5 -25 -11 -53 -13 -40 -2 -50 0 -50 13 0
13 10 15 53 13 28 -2 51 -7 50 -13z m1072 -12 c-49 -76 -65 -97 -65 -85 0 25
60 112 78 112 2 0 -4 -12 -13 -27z m1581 -122 c68 -70 81 -88 73 -103 -10 -19
-29 -25 -29 -9 0 6 -24 36 -53 68 -51 57 -126 153 -142 183 -10 19 44 -31 151
-139z m1262 129 c2 -12 -8 -14 -53 -12 -40 3 -55 8 -55 18 0 22 104 15 108 -6z
m-1151 -20 c19 -23 46 -76 32 -60 -25 26 -69 90 -62 89 4 0 18 -13 30 -29z
m-1482 -7 c-51 -79 -178 -220 -194 -215 -23 8 -8 30 92 135 100 105 137 134
102 80z m-1287 -70 l-3 -57 -57 -17 -58 -17 0 37 c0 20 3 53 6 74 l7 37 54 0
54 0 -3 -57z m2639 -113 c57 -58 61 -66 47 -80 -14 -13 -22 -8 -81 55 -75 81
-143 167 -143 182 0 13 95 -70 177 -157z m1289 159 c7 -12 19 -139 13 -139
-24 1 -124 40 -123 49 1 6 2 31 3 56 l1 45 49 0 c28 0 53 -5 57 -11z m-4061
-9 c3 -5 1 -10 -4 -10 -6 0 -11 5 -11 10 0 6 2 10 4 10 3 0 8 -4 11 -10z m769
-412 c20 -53 43 -78 32 -35 -5 20 2 42 26 84 58 105 157 227 207 256 l31 18 0
-52 c0 -42 -7 -63 -32 -103 -18 -28 -38 -56 -44 -63 -7 -7 -38 -65 -69 -130
-57 -117 -67 -163 -46 -200 8 -15 10 -9 11 29 0 34 11 72 38 130 39 83 104
192 121 202 5 3 11 -13 14 -37 3 -29 -5 -71 -25 -137 -49 -154 -150 -363 -167
-344 -4 5 -18 38 -30 74 -21 59 -51 131 -118 280 -43 94 -73 182 -94 265 -20
86 -25 150 -10 140 5 -3 12 -1 16 5 3 5 12 10 19 10 9 0 15 -23 19 -72 4 -40
11 -86 16 -103 8 -26 9 -22 10 30 2 106 12 164 30 167 14 3 17 -19 22 -182 4
-142 10 -196 23 -232z m2600 409 c15 -11 18 -29 18 -115 0 -114 13 -136 22
-39 11 105 17 137 27 137 5 0 9 -4 9 -9 0 -5 10 -7 21 -4 19 5 21 3 16 -23 -3
-16 -9 -51 -12 -78 -10 -74 -57 -209 -133 -384 -38 -86 -79 -185 -92 -219 -12
-35 -26 -63 -30 -63 -11 0 -83 141 -122 240 -53 131 -69 198 -60 250 l8 45 37
-60 c64 -101 121 -227 127 -280 l6 -50 8 38 c11 53 -24 141 -120 300 -71 117
-74 124 -73 182 1 33 3 52 6 43 2 -10 10 -18 16 -18 46 -2 237 -261 237 -322
0 -46 14 -32 35 35 17 52 20 91 20 235 0 94 3 172 6 172 3 0 13 -6 23 -13z
m-1939 -75 c-20 -26 -61 -73 -92 -105 -52 -53 -58 -57 -72 -42 -15 15 -7 25
88 117 106 102 144 117 76 30z m1169 -12 c71 -61 162 -146 175 -163 11 -16 11
-21 -3 -35 -15 -15 -19 -13 -53 25 -21 23 -54 59 -73 80 -34 37 -78 93 -95
122 -10 18 8 7 49 -29z m-2619 -90 c2 0 51 18 107 40 57 22 106 40 111 40 4 0
7 -18 7 -39 l0 -39 -67 -21 c-38 -11 -107 -31 -155 -45 -49 -14 -93 -28 -99
-32 -19 -11 -4 32 43 131 l43 90 3 -62 c2 -35 5 -63 7 -63z m1519 68 c-16 -23
-60 -75 -98 -115 -54 -58 -72 -71 -82 -62 -8 6 -14 17 -14 23 0 20 208 212
218 201 3 -3 -8 -24 -24 -47z m2649 -5 c43 -97 60 -144 54 -150 -5 -4 -122 27
-269 74 -47 14 -48 16 -48 54 0 21 2 39 4 39 2 0 46 -16 97 -36 146 -55 133
-57 126 14 -4 34 -3 62 2 62 4 0 20 -26 34 -57z m-2587 -40 c-56 -75 -58 -77
-118 -142 -31 -33 -61 -61 -65 -61 -5 0 -13 8 -20 19 -10 16 -2 27 60 88 91
88 169 155 175 149 2 -3 -12 -26 -32 -53z m1089 -77 l96 -89 -20 -20 c-20 -21
-21 -21 -42 -1 -29 26 -151 173 -173 208 l-19 30 31 -20 c16 -10 74 -59 127
-108z m-76 -133 c42 -57 79 -102 82 -100 4 1 58 65 121 142 140 171 140 171
162 146 15 -17 13 -22 -43 -102 -81 -113 -229 -299 -238 -299 -9 1 -18 14
-149 223 -115 182 -115 182 -108 202 5 11 18 0 52 -47 25 -35 80 -109 121
-165z m-1266 43 c34 -44 76 -95 92 -113 l30 -33 51 62 c27 35 74 98 104 141
57 83 100 120 100 86 0 -10 -141 -237 -225 -362 l-32 -48 -85 108 c-129 165
-208 271 -208 279 0 4 8 15 18 25 16 17 19 16 55 -24 21 -23 66 -78 100 -121z
m276 92 c-7 -13 -44 -63 -83 -111 l-71 -88 -19 23 -18 23 93 88 c94 88 119
105 98 65z m1021 -66 c82 -76 84 -80 73 -105 -7 -15 -16 -27 -20 -27 -5 0 -38
41 -76 90 -110 146 -103 159 23 42z m-115 -147 c45 -57 116 -193 161 -312 21
-57 41 -103 45 -103 7 0 113 222 124 259 13 42 104 232 124 257 68 87 -4 -179
-108 -396 -59 -124 -155 -279 -173 -280 -5 0 -8 12 -8 26 0 76 -129 382 -256
606 -24 43 -44 79 -44 82 0 8 99 -94 135 -139z m-1317 53 c46 -96 112 -245
112 -252 0 -13 102 -216 109 -216 3 0 26 53 50 118 59 154 126 272 204 355 35
37 67 67 71 67 3 0 -6 -24 -22 -52 -145 -262 -241 -483 -267 -615 -4 -18 -10
-33 -13 -33 -9 1 -112 169 -150 245 -64 130 -116 268 -138 368 -23 109 -4 115
44 15z m827 -36 l41 -43 60 60 c32 33 63 61 67 61 5 0 -19 -33 -54 -72 -34
-40 -65 -73 -69 -73 -4 0 -35 34 -71 75 -64 76 -48 71 26 -8z m851 -38 c-18
-49 -39 -106 -46 -126 -6 -21 -15 -38 -19 -38 -5 0 -19 20 -32 45 l-24 45 25
25 c14 13 48 53 75 89 28 35 51 60 53 56 2 -4 -13 -48 -32 -96z m-1540 -27
l44 -58 -22 -39 c-13 -22 -26 -40 -29 -40 -5 0 -84 205 -96 250 -5 18 43 -34
103 -113z m623 10 c39 -37 71 -71 71 -77 0 -5 -9 -14 -20 -20 -11 -6 -20 -7
-20 -3 0 5 -10 19 -22 33 -65 72 -118 139 -118 150 0 16 25 -3 109 -83z m300
40 c-77 -99 -126 -146 -138 -134 -6 6 -11 16 -11 22 0 18 169 169 178 160 3
-2 -10 -24 -29 -48z m-365 -117 c51 -52 67 -73 58 -82 -12 -12 -16 -9 -77 67
-64 79 -68 85 -59 85 5 0 40 -32 78 -70z m426 61 c0 -6 -25 -40 -56 -76 -31
-36 -53 -69 -50 -72 3 -3 32 22 64 55 33 34 65 62 72 62 12 0 -35 -64 -93
-127 l-30 -32 -24 30 -25 29 37 41 c33 37 97 98 103 99 1 0 2 -4 2 -9z m-391
-158 c2 -2 -2 -9 -9 -17 -10 -13 -19 -7 -63 41 -101 109 -104 144 -5 48 40
-39 74 -71 77 -72z m-500 41 l25 -36 18 24 c17 22 17 22 3 -27 -8 -27 -23 -77
-34 -110 l-19 -60 -38 77 -38 76 25 46 c13 25 26 46 29 46 3 0 16 -16 29 -36z
m699 -21 c27 -32 72 -84 98 -116 57 -70 59 -64 -67 -197 l-90 -95 -104 110
c-58 60 -105 112 -105 115 0 3 14 21 30 40 16 19 60 72 97 117 38 45 73 82 79
82 6 1 34 -25 62 -56z m622 46 c0 -6 9 -24 21 -40 l21 -30 -33 -74 c-19 -41
-36 -75 -39 -75 -3 0 -20 43 -37 96 -20 61 -27 91 -18 84 12 -10 20 -6 41 19
26 32 44 40 44 20z m-924 -71 c24 -23 44 -46 44 -52 0 -14 -61 -76 -76 -76
-12 0 -84 75 -84 88 0 9 59 82 66 82 3 0 25 -19 50 -42z m594 -29 c7 -12 -1
-27 -32 -57 -23 -23 -46 -42 -52 -42 -12 0 -66 61 -66 75 0 5 19 29 42 52 l42
43 29 -28 c16 -15 33 -34 37 -43z m-715 -123 c17 -18 84 -94 150 -168 210
-233 205 -227 205 -275 0 -24 -3 -43 -7 -42 -5 0 -44 44 -88 97 -173 207 -233
278 -256 299 l-24 22 -34 -40 c-22 -27 -30 -44 -24 -50 7 -7 19 1 37 22 15 17
28 30 30 28 58 -76 57 -74 54 -155 l-3 -78 -45 47 c-24 27 -59 68 -76 93 -31
43 -31 46 -19 88 18 58 56 146 64 146 3 0 20 -15 36 -34z m786 -3 c6 -21 15
-42 19 -48 4 -5 15 -32 23 -59 l17 -49 -58 -69 c-31 -38 -63 -78 -71 -89 -24
-34 -31 -21 -31 62 0 71 3 84 26 115 15 19 29 34 33 34 3 0 14 -14 23 -30 16
-29 48 -42 48 -19 0 11 -60 89 -69 89 -3 0 -49 -50 -101 -112 -52 -61 -113
-132 -135 -158 -58 -67 -110 -131 -113 -141 -10 -25 -22 -4 -22 36 0 42 5 51
81 137 45 51 119 134 164 183 45 50 95 105 110 123 15 17 31 32 35 32 5 0 14
-17 21 -37z m-802 -321 c35 -39 68 -72 72 -72 5 0 9 21 10 48 0 26 4 65 7 88
l7 41 92 -110 c84 -100 91 -112 78 -127 -21 -23 -21 -130 0 -130 12 0 15 14
15 67 l0 68 43 -43 42 -42 2 -145 c2 -80 1 -145 -2 -145 -7 0 -101 101 -261
279 -234 262 -235 262 -228 296 12 56 7 59 123 -73z m880 59 c1 -13 -11 -37
-25 -55 -24 -28 -134 -153 -159 -180 -6 -6 -44 -49 -85 -96 -41 -47 -100 -111
-130 -143 -30 -32 -59 -65 -63 -73 -20 -36 -27 -6 -27 125 l0 138 37 48 c40
54 41 53 45 -24 2 -32 8 -56 16 -59 15 -5 17 119 1 135 -7 7 16 43 83 123 l93
112 2 -39 c6 -84 15 -143 22 -143 5 0 46 43 91 97 71 82 85 93 91 77 4 -10 8
-30 8 -43z"/>
<path d="M2861 6126 c2 -2 54 -33 115 -70 184 -110 318 -239 419 -404 54 -88
57 -69 4 24 -55 96 -215 266 -310 330 -80 53 -207 124 -222 124 -6 0 -8 -2 -6
-4z"/>
<path d="M3530 5279 c0 -15 18 -19 23 -6 3 8 -1 14 -9 14 -8 0 -14 -4 -14 -8z"/>
<path d="M4245 6087 c-111 -58 -207 -128 -291 -211 -70 -71 -175 -219 -188
-266 -4 -14 13 6 38 44 128 194 254 313 436 414 132 72 135 88 5 19z"/>
<path d="M2350 6033 c85 -33 140 -50 140 -43 0 9 -116 50 -139 49 -14 0 -14
-1 -1 -6z"/>
<path d="M4765 6014 c-22 -8 -46 -17 -54 -19 -8 -3 -12 -7 -9 -10 4 -4 117 33
127 41 9 9 -26 2 -64 -12z"/>
<path d="M3572 5947 c-12 -13 -22 -29 -22 -36 0 -8 10 -2 21 13 l21 27 22 -20
c33 -31 41 -25 14 8 -28 36 -29 37 -56 8z"/>
<path d="M4820 5320 c-30 -11 -44 -17 -30 -15 71 15 120 27 120 31 0 9 -37 2
-90 -16z"/>
<path d="M2345 5319 c39 -10 75 -17 80 -15 15 4 -99 36 -127 35 -12 0 9 -9 47
-20z"/>
<path d="M3010 4895 c0 -25 2 -45 5 -45 8 0 45 39 45 48 0 10 -33 42 -43 42
-4 0 -7 -20 -7 -45z"/>
<path d="M4154 4919 c-14 -15 -16 -24 -8 -37 21 -33 39 -25 39 18 0 45 -4 48
-31 19z"/>
<path d="M2903 4943 c-13 -30 -53 -136 -53 -140 0 -2 4 -3 8 -3 11 0 58 97 66
138 9 39 -5 42 -21 5z"/>
<path d="M5140 4685 c0 -2 28 -20 61 -40 34 -20 104 -67 155 -105 93 -69 112
-80 99 -59 -11 17 -188 145 -247 178 -53 30 -68 36 -68 26z"/>
<path d="M5306 4461 c5 -5 35 -18 67 -30 31 -11 80 -32 108 -47 62 -31 88 -27
33 5 -72 43 -239 101 -208 72z"/>
<path d="M5310 4391 c0 -6 33 -27 73 -46 39 -20 116 -68 171 -106 54 -39 100
-68 103 -66 7 8 -89 88 -158 133 -108 69 -189 106 -189 85z"/>
<path d="M1976 4650 c-104 -61 -263 -180 -240 -180 3 0 48 30 99 68 51 37 124
86 162 109 87 54 70 56 -21 3z"/>
<path d="M1783 4437 c-84 -35 -138 -65 -130 -73 3 -3 22 3 44 14 21 10 72 32
113 47 41 16 79 32 85 37 21 18 -35 6 -112 -25z"/>
<path d="M1813 4371 c-96 -46 -292 -185 -279 -198 2 -2 35 18 73 44 87 62 199
129 241 144 17 6 32 17 32 25 0 18 5 19 -67 -15z"/>
<path d="M4080 4520 c-8 -5 -10 -10 -5 -10 6 0 17 5 25 10 8 5 11 10 5 10 -5
0 -17 -5 -25 -10z"/>
<path d="M2378 4342 c-12 -2 -18 -13 -18 -33 0 -36 17 -38 31 -2 12 32 9 40
-13 35z"/>
<path d="M4790 4345 c0 -17 32 -65 40 -60 17 10 11 44 -9 55 -22 11 -31 13
-31 5z"/>
<path d="M3563 3952 c-17 -37 -62 -123 -99 -192 -37 -69 -80 -150 -95 -180
-21 -42 -35 -56 -56 -61 -15 -4 112 -7 282 -7 171 0 300 3 287 7 -18 4 -44 44
-104 156 -110 205 -167 318 -168 333 0 27 -17 8 -47 -56z m125 -153 c50 -97
102 -195 116 -218 14 -22 26 -42 26 -44 0 -10 -270 -18 -363 -11 l-104 7 44
76 c24 42 76 142 116 223 40 80 73 145 74 145 0 -1 42 -81 91 -178z"/>
<path d="M3582 3818 c-19 -38 -72 -178 -72 -190 0 -25 19 9 52 94 l34 88 32
-78 c35 -85 48 -109 56 -102 2 3 -8 37 -24 75 -15 39 -33 85 -40 103 -15 38
-23 40 -38 10z"/>
<path d="M2644 3851 c4 -6 40 -34 79 -61 40 -27 84 -59 100 -71 15 -11 27 -17
27 -12 0 9 -63 59 -140 110 -66 44 -74 48 -66 34z"/>
<path d="M2868 3672 c9 -10 19 -17 21 -16 6 5 -20 34 -30 34 -5 0 -1 -8 9 -18z"/>
<path d="M4434 3884 c-18 -14 -18 -15 4 -4 12 6 22 13 22 15 0 8 -5 6 -26 -11z"/>
<path d="M4409 3829 l-24 -20 28 17 c15 9 27 18 27 20 0 8 -8 4 -31 -17z"/>
<path d="M4498 3819 c-18 -16 -24 -26 -13 -20 33 17 71 51 58 51 -7 0 -27 -14
-45 -31z"/>
<path d="M4403 3748 c-29 -21 -53 -41 -53 -44 0 -4 56 33 109 73 2 2 2 5 0 7
-2 2 -28 -14 -56 -36z"/>
<path d="M4315 3679 c-4 -6 -5 -12 -2 -15 2 -3 7 2 10 11 7 17 1 20 -8 4z"/>
<path d="M4207 3810 c6 -38 10 -46 19 -38 3 3 -2 21 -10 39 l-15 34 6 -35z"/>
<path d="M4575 3790 c-3 -5 -1 -10 4 -10 6 0 11 5 11 10 0 6 -2 10 -4 10 -3 0
-8 -4 -11 -10z"/>
<path d="M2640 3528 c36 -52 100 -117 82 -83 -6 11 -34 45 -62 75 l-51 55 31
-47z"/>
<path d="M4539 3526 c-14 -17 -36 -47 -49 -66 l-24 -35 23 20 c23 20 85 105
79 110 -2 1 -15 -12 -29 -29z"/>
<path d="M1210 3370 c0 -6 33 -10 80 -10 47 0 80 4 80 10 0 6 -33 10 -80 10
-47 0 -80 -4 -80 -10z"/>
<path d="M3480 3011 c0 -6 4 -13 10 -16 6 -3 7 1 4 9 -7 18 -14 21 -14 7z"/>
<path d="M3718 3033 c-20 -25 -49 -73 -44 -73 3 0 19 20 36 45 31 45 36 60 8
28z"/>
<path d="M3495 3390 c-16 -7 -17 -9 -3 -9 9 -1 20 4 23 9 7 11 7 11 -20 0z"/>
<path d="M3525 3270 c11 -5 29 -8 40 -8 16 0 15 2 -5 8 -34 11 -60 11 -35 0z"/>
<path d="M2456 2094 c-15 -14 -26 -27 -24 -29 2 -3 20 9 39 25 19 16 30 29 24
29 -5 0 -23 -11 -39 -25z"/>
<path d="M4725 2090 c16 -16 33 -30 39 -30 5 0 -3 14 -19 30 -16 17 -33 30
-39 30 -5 0 3 -13 19 -30z"/>
<path d="M5211 2473 c-16 -17 -11 -25 8 -14 7 5 12 13 10 19 -2 6 -10 4 -18
-5z"/>
<path d="M5170 2422 c0 -6 -8 -13 -17 -15 -16 -4 -16 -5 -1 -6 18 -1 34 16 24
26 -3 4 -6 1 -6 -5z"/>
<path d="M5210 2414 c0 -8 5 -12 10 -9 6 3 10 10 10 16 0 5 -4 9 -10 9 -5 0
-10 -7 -10 -16z"/>
<path d="M5110 2370 c0 -5 5 -10 11 -10 5 0 7 5 4 10 -3 6 -8 10 -11 10 -2 0
-4 -4 -4 -10z"/>
<path d="M5215 2370 c-3 -5 1 -10 9 -10 9 0 16 5 16 10 0 6 -4 10 -9 10 -6 0
-13 -4 -16 -10z"/>
<path d="M5045 2330 c-3 -5 -1 -10 4 -10 6 0 11 5 11 10 0 6 -2 10 -4 10 -3 0
-8 -4 -11 -10z"/>
<path d="M5070 2320 c0 -5 5 -10 10 -10 6 0 10 5 10 10 0 6 -4 10 -10 10 -5 0
-10 -4 -10 -10z"/>
<path d="M5120 2320 c0 -5 5 -10 10 -10 6 0 10 5 10 10 0 6 -4 10 -10 10 -5 0
-10 -4 -10 -10z"/>
<path d="M5210 2320 c0 -5 7 -10 16 -10 8 0 12 5 9 10 -3 6 -10 10 -16 10 -5
0 -9 -4 -9 -10z"/>
<path d="M5020 2300 c0 -5 5 -10 11 -10 5 0 7 5 4 10 -3 6 -8 10 -11 10 -2 0
-4 -4 -4 -10z"/>
<path d="M5110 2270 c0 -5 5 -10 10 -10 6 0 10 5 10 10 0 6 -4 10 -10 10 -5 0
-10 -4 -10 -10z"/>
<path d="M5170 2270 c0 -5 5 -10 10 -10 6 0 10 5 10 10 0 6 -4 10 -10 10 -5 0
-10 -4 -10 -10z"/>
<path d="M5215 2270 c3 -5 8 -10 11 -10 2 0 4 5 4 10 0 6 -5 10 -11 10 -5 0
-7 -4 -4 -10z"/>
<path d="M1960 2483 c0 -5 11 -13 25 -20 29 -13 34 1 6 17 -23 12 -31 13 -31
3z"/>
<path d="M1950 2425 c0 -8 5 -15 10 -15 6 0 10 7 10 15 0 8 -4 15 -10 15 -5 0
-10 -7 -10 -15z"/>
<path d="M2030 2431 c0 -5 5 -13 10 -16 6 -3 10 -2 10 4 0 5 -4 13 -10 16 -5
3 -10 2 -10 -4z"/>
<path d="M1990 2416 c0 -9 5 -16 10 -16 6 0 10 4 10 9 0 6 -4 13 -10 16 -5 3
-10 -1 -10 -9z"/>
<path d="M2072 2381 c2 -7 7 -12 11 -12 12 1 9 15 -3 20 -7 2 -11 -2 -8 -8z"/>
<path d="M1950 2370 c0 -5 5 -10 10 -10 6 0 10 5 10 10 0 6 -4 10 -10 10 -5 0
-10 -4 -10 -10z"/>
<path d="M2000 2364 c0 -8 5 -12 10 -9 6 4 8 11 5 16 -9 14 -15 11 -15 -7z"/>
<path d="M2130 2350 c0 -5 5 -10 10 -10 6 0 10 5 10 10 0 6 -4 10 -10 10 -5 0
-10 -4 -10 -10z"/>
<path d="M2000 2320 c0 -5 5 -10 11 -10 5 0 7 5 4 10 -3 6 -8 10 -11 10 -2 0
-4 -4 -4 -10z"/>
<path d="M2055 2320 c3 -5 11 -10 16 -10 6 0 7 5 4 10 -3 6 -11 10 -16 10 -6
0 -7 -4 -4 -10z"/>
<path d="M2108 2323 c7 -3 16 -2 19 1 4 3 -2 6 -13 5 -11 0 -14 -3 -6 -6z"/>
<path d="M1950 2316 c0 -9 30 -14 35 -6 4 6 -3 10 -14 10 -12 0 -21 -2 -21 -4z"/>
<path d="M2160 2305 c0 -8 5 -15 10 -15 6 0 10 7 10 15 0 8 -4 15 -10 15 -5 0
-10 -7 -10 -15z"/>
<path d="M2115 2280 c-3 -5 -1 -10 4 -10 6 0 11 5 11 10 0 6 -2 10 -4 10 -3 0
-8 -4 -11 -10z"/>
<path d="M2006 2271 c-4 -7 -5 -15 -2 -18 9 -9 19 4 14 18 -4 11 -6 11 -12 0z"/>
<path d="M2035 2270 c3 -5 8 -10 11 -10 2 0 4 5 4 10 0 6 -5 10 -11 10 -5 0
-7 -4 -4 -10z"/>
<path d="M1955 2250 c3 -5 8 -10 11 -10 2 0 4 5 4 10 0 6 -5 10 -11 10 -5 0
-7 -4 -4 -10z"/>
<path d="M3557 1447 c-19 -23 -49 -57 -66 -76 -17 -19 -31 -38 -31 -42 0 -4
30 -42 67 -83 75 -86 63 -87 154 15 l61 69 -62 72 c-35 40 -68 76 -75 80 -8 5
-26 -8 -48 -35z m131 -118 c-2 -4 -23 -28 -47 -54 l-44 -47 -43 49 c-24 26
-43 51 -44 54 0 4 19 30 43 59 l42 52 48 -53 c26 -29 46 -56 45 -60z"/>
<path d="M3550 1336 c0 -8 5 -18 10 -21 6 -3 10 3 10 14 0 12 -4 21 -10 21 -5
0 -10 -6 -10 -14z"/>
<path d="M3627 1343 c-12 -11 -8 -23 8 -23 8 0 15 7 15 15 0 16 -12 20 -23 8z"/>
<path d="M3370 880 c0 -38 4 -50 15 -50 11 0 15 12 15 50 0 38 -4 50 -15 50
-11 0 -15 -12 -15 -50z"/>
<path d="M3792 878 c2 -39 7 -53 18 -53 11 0 16 14 18 53 3 47 1 52 -18 52
-19 0 -21 -5 -18 -52z"/>
<path d="M3412 6906 c1 -10 8 -17 13 -17 15 1 12 24 -3 29 -9 3 -13 -2 -10
-12z"/>
<path d="M3765 6910 c-4 -6 -3 -16 3 -22 6 -6 12 -6 17 2 4 6 3 16 -3 22 -6 6
-12 6 -17 -2z"/>
<path d="M2820 6861 c0 -6 5 -13 10 -16 6 -3 10 1 10 9 0 9 -4 16 -10 16 -5 0
-10 -4 -10 -9z"/>
<path d="M4350 6855 c0 -8 5 -15 10 -15 6 0 10 7 10 15 0 8 -4 15 -10 15 -5 0
-10 -7 -10 -15z"/>
<path d="M3332 6808 c5 -15 28 -18 29 -3 0 6 -7 12 -17 13 -10 3 -15 -1 -12
-10z"/>
<path d="M3835 6811 c-3 -5 -1 -12 5 -16 12 -7 30 2 30 16 0 12 -27 12 -35 0z"/>
<path d="M2822 6775 c4 -33 23 -33 23 0 1 15 -5 25 -13 25 -8 0 -12 -9 -10
-25z"/>
<path d="M4350 6770 c0 -16 5 -30 10 -30 6 0 10 14 10 30 0 17 -4 30 -10 30
-5 0 -10 -13 -10 -30z"/>
<path d="M2445 6731 c-3 -5 -1 -12 5 -16 5 -3 10 1 10 9 0 18 -6 21 -15 7z"/>
<path d="M3257 6724 c-14 -15 -6 -34 14 -34 14 0 19 5 17 17 -3 18 -20 27 -31
17z"/>
<path d="M3913 6714 c-7 -19 2 -28 22 -21 19 8 19 23 0 31 -9 3 -18 -1 -22
-10z"/>
<path d="M2990 6680 c0 -11 4 -20 9 -20 11 0 22 26 14 34 -12 12 -23 5 -23
-14z"/>
<path d="M4180 6686 c0 -8 4 -17 9 -20 10 -7 23 19 14 28 -11 11 -23 6 -23 -8z"/>
<path d="M2480 6682 c0 -18 12 -42 21 -42 14 0 10 26 -6 40 -9 8 -15 8 -15 2z"/>
<path d="M4702 6678 c-14 -14 -16 -38 -3 -38 10 0 26 39 19 46 -2 2 -10 -2
-16 -8z"/>
<path d="M2240 6637 c0 -7 9 -23 19 -36 22 -28 38 -12 19 18 -15 24 -38 35
-38 18z"/>
<path d="M4931 6629 c-23 -25 -27 -39 -11 -39 12 0 45 49 37 56 -3 3 -14 -5
-26 -17z"/>
<path d="M2837 6603 c-11 -10 -8 -93 3 -93 6 0 10 23 10 50 0 51 -1 55 -13 43z"/>
<path d="M3180 6590 c0 -15 5 -20 18 -18 9 2 17 10 17 18 0 8 -8 16 -17 18
-13 2 -18 -3 -18 -18z"/>
<path d="M3985 6600 c-8 -14 3 -30 21 -30 8 0 14 9 14 20 0 21 -24 28 -35 10z"/>
<path d="M4656 6601 c-4 -7 -5 -15 -2 -18 9 -9 19 4 14 18 -4 11 -6 11 -12 0z"/>
<path d="M2530 6590 c0 -5 5 -10 10 -10 6 0 10 5 10 10 0 6 -4 10 -10 10 -5 0
-10 -4 -10 -10z"/>
<path d="M4347 6593 c-7 -15 0 -73 9 -76 5 -1 10 17 12 41 3 37 -9 57 -21 35z"/>
<path d="M2997 6548 c-7 -23 -1 -38 14 -38 5 0 9 14 9 30 0 35 -15 40 -23 8z"/>
<path d="M4180 6540 c0 -16 5 -30 10 -30 6 0 10 14 10 30 0 17 -4 30 -10 30
-5 0 -10 -13 -10 -30z"/>
<path d="M2580 6535 c0 -9 5 -15 11 -13 6 2 11 8 11 13 0 5 -5 11 -11 13 -6 2
-11 -4 -11 -13z"/>
<path d="M4595 6541 c-7 -12 12 -24 25 -16 11 7 4 25 -10 25 -5 0 -11 -4 -15
-9z"/>
<path d="M2321 6515 c0 -5 13 -26 29 -45 17 -19 30 -30 30 -25 0 6 -14 26 -30
45 -16 19 -29 31 -29 25z"/>
<path d="M4845 6484 c-31 -40 -27 -60 5 -23 29 34 42 59 32 59 -6 0 -22 -16
-37 -36z"/>
<path d="M2092 6466 c1 -10 8 -17 13 -17 15 1 12 24 -3 29 -9 3 -13 -2 -10
-12z"/>
<path d="M5082 6464 c4 -21 22 -23 26 -1 2 10 -3 17 -13 17 -10 0 -15 -6 -13
-16z"/>
<path d="M2700 6451 c0 -12 6 -21 16 -21 9 0 14 7 12 17 -5 25 -28 28 -28 4z"/>
<path d="M3087 6463 c-14 -13 -6 -33 13 -33 11 0 20 4 20 9 0 13 -26 32 -33
24z"/>
<path d="M4091 6456 c-12 -14 -5 -26 16 -26 15 0 18 26 4 34 -5 3 -14 0 -20
-8z"/>
<path d="M4472 6448 c2 -13 8 -23 13 -23 6 0 11 10 13 23 2 15 -2 22 -13 22
-11 0 -15 -7 -13 -22z"/>
<path d="M2952 6429 c2 -19 8 -33 13 -31 15 3 12 55 -3 60 -10 3 -13 -5 -10
-29z"/>
<path d="M4222 6429 c2 -19 8 -33 13 -31 15 3 12 55 -3 60 -10 3 -13 -5 -10
-29z"/>
<path d="M2217 6444 c-8 -8 1 -24 14 -24 5 0 9 7 9 15 0 15 -12 20 -23 9z"/>
<path d="M4955 6439 c-4 -6 -5 -13 -2 -16 7 -7 27 6 27 18 0 12 -17 12 -25 -2z"/>
<path d="M2826 6394 c-7 -19 2 -37 15 -29 12 8 12 45 0 45 -5 0 -12 -7 -15
-16z"/>
<path d="M4350 6385 c0 -14 4 -25 9 -25 12 0 19 21 13 38 -8 21 -22 13 -22
-13z"/>
<path d="M3010 6356 c0 -17 27 -29 35 -16 4 6 3 15 0 20 -9 15 -35 12 -35 -4z"/>
<path d="M4155 6360 c-11 -17 5 -32 21 -19 7 6 11 15 8 20 -7 12 -21 11 -29
-1z"/>
<path d="M2040 6267 c0 -27 19 -40 39 -27 20 12 8 45 -17 48 -18 3 -22 -1 -22
-21z"/>
<path d="M2186 6281 c-10 -16 6 -42 23 -39 9 2 17 13 19 26 3 16 -2 22 -17 22
-11 0 -22 -4 -25 -9z"/>
<path d="M4964 6275 c-8 -20 4 -35 27 -35 14 0 19 7 19 25 0 18 -5 25 -20 25
-11 0 -23 -7 -26 -15z"/>
<path d="M5117 6283 c-4 -3 -7 -15 -7 -25 0 -13 7 -18 25 -18 20 0 25 5 25 25
0 18 -5 25 -18 25 -10 0 -22 -3 -25 -7z"/>
<path d="M1877 6260 c-7 -29 20 -48 40 -27 9 8 13 23 10 31 -9 23 -44 20 -50
-4z"/>
<path d="M2305 6270 c-7 -12 2 -30 16 -30 5 0 9 9 9 20 0 21 -15 27 -25 10z"/>
<path d="M4865 6270 c-7 -12 2 -30 16 -30 5 0 9 9 9 20 0 21 -15 27 -25 10z"/>
<path d="M5277 6273 c-11 -10 -8 -41 3 -48 15 -9 40 14 40 36 0 19 -29 27 -43
12z"/>
<path d="M2955 6261 c-8 -15 3 -31 21 -31 9 0 14 7 12 17 -4 20 -24 28 -33 14z"/>
<path d="M4214 6259 c-10 -17 13 -36 27 -22 12 12 4 33 -11 33 -5 0 -12 -5
-16 -11z"/>
<path d="M1627 6223 c-12 -11 -8 -23 8 -23 8 0 15 7 15 15 0 16 -12 20 -23 8z"/>
<path d="M5550 6216 c0 -9 7 -16 16 -16 9 0 14 5 12 12 -6 18 -28 21 -28 4z"/>
<path d="M1592 6129 c2 -6 8 -10 13 -10 5 0 11 4 13 10 2 6 -4 11 -13 11 -9 0
-15 -5 -13 -11z"/>
<path d="M1756 6125 c-9 -24 4 -45 29 -45 13 0 25 7 29 15 9 24 -4 45 -29 45
-13 0 -25 -7 -29 -15z"/>
<path d="M5384 6125 c-10 -25 4 -47 28 -43 17 2 24 11 26 31 3 23 0 27 -23 27
-14 0 -28 -7 -31 -15z"/>
<path d="M5577 6134 c-8 -8 1 -24 14 -24 5 0 9 7 9 15 0 15 -12 20 -23 9z"/>
<path d="M1472 5999 c2 -6 8 -10 13 -10 5 0 11 4 13 10 2 6 -4 11 -13 11 -9 0
-15 -5 -13 -11z"/>
<path d="M5700 6000 c0 -5 7 -10 15 -10 8 0 15 5 15 10 0 6 -7 10 -15 10 -8 0
-15 -4 -15 -10z"/>
<path d="M1390 5915 c0 -8 7 -15 15 -15 8 0 15 7 15 15 0 8 -7 15 -15 15 -8 0
-15 -7 -15 -15z"/>
<path d="M5775 5921 c-7 -12 12 -24 25 -16 11 7 4 25 -10 25 -5 0 -11 -4 -15
-9z"/>
<path d="M1460 5825 c0 -8 7 -15 15 -15 8 0 15 7 15 15 0 8 -7 15 -15 15 -8 0
-15 -7 -15 -15z"/>
<path d="M5710 5825 c0 -8 7 -15 15 -15 8 0 15 7 15 15 0 8 -7 15 -15 15 -8 0
-15 -7 -15 -15z"/>
<path d="M5715 5720 c-4 -6 -3 -16 3 -22 6 -6 12 -6 17 2 4 6 3 16 -3 22 -6 6
-12 6 -17 -2z"/>
<path d="M1456 5711 c-3 -5 0 -11 8 -14 15 -6 26 1 26 15 0 11 -27 10 -34 -1z"/>
<path d="M1390 5565 c0 -19 5 -35 10 -35 6 0 10 16 10 35 0 19 -4 35 -10 35
-5 0 -10 -16 -10 -35z"/>
<path d="M1450 5590 c0 -5 7 -10 15 -10 8 0 15 5 15 10 0 6 -7 10 -15 10 -8 0
-15 -4 -15 -10z"/>
<path d="M5710 5590 c0 -5 7 -10 15 -10 8 0 15 5 15 10 0 6 -7 10 -15 10 -8 0
-15 -4 -15 -10z"/>
<path d="M5780 5571 c0 -17 5 -33 10 -36 6 -4 10 8 10 29 0 20 -4 36 -10 36
-5 0 -10 -13 -10 -29z"/>
<path d="M1297 5584 c-13 -13 -7 -42 10 -48 21 -8 36 6 31 30 -3 19 -29 30
-41 18z"/>
<path d="M5857 5570 c-6 -23 13 -36 39 -26 22 8 13 40 -12 44 -15 2 -23 -4
-27 -18z"/>
<path d="M1460 5495 c0 -9 5 -15 11 -13 6 2 11 8 11 13 0 5 -5 11 -11 13 -6 2
-11 -4 -11 -13z"/>
<path d="M5717 5504 c-8 -8 1 -24 14 -24 5 0 9 7 9 15 0 15 -12 20 -23 9z"/>
<path d="M1343 5388 c2 -7 12 -13 22 -13 10 0 20 6 23 13 2 7 -6 12 -23 12
-17 0 -25 -5 -22 -12z"/>
<path d="M1487 5394 c-8 -8 1 -24 14 -24 5 0 9 7 9 15 0 15 -12 20 -23 9z"/>
<path d="M5690 5385 c0 -9 5 -15 11 -13 6 2 11 8 11 13 0 5 -5 11 -11 13 -6 2
-11 -4 -11 -13z"/>
<path d="M5812 5388 c5 -15 37 -18 41 -3 1 6 -9 12 -22 13 -16 3 -22 -1 -19
-10z"/>
<path d="M1396 5303 c-3 -3 -6 -19 -6 -35 0 -37 22 -33 26 5 3 27 -7 42 -20
30z"/>
<path d="M1258 5288 c-8 -21 2 -38 24 -38 14 0 19 6 16 22 -3 25 -33 36 -40
16z"/>
<path d="M1507 5293 c-11 -10 -8 -41 5 -49 17 -11 40 26 27 43 -13 14 -22 16
-32 6z"/>
<path d="M5657 5294 c-4 -4 -7 -16 -7 -26 0 -14 6 -19 23 -16 14 2 22 10 22
23 0 20 -25 32 -38 19z"/>
<path d="M5782 5268 c2 -18 8 -33 13 -33 6 0 11 15 13 33 3 24 -1 32 -13 32
-12 0 -16 -8 -13 -32z"/>
<path d="M5894 5285 c-4 -9 -2 -21 4 -27 15 -15 44 -1 40 19 -4 23 -36 29 -44
8z"/>
<path d="M1172 5268 c6 -18 28 -21 28 -4 0 9 -7 16 -16 16 -9 0 -14 -5 -12
-12z"/>
<path d="M5992 5269 c2 -6 8 -10 13 -10 5 0 11 4 13 10 2 6 -4 11 -13 11 -9 0
-15 -5 -13 -11z"/>
<path d="M917 5254 c-13 -13 -7 -55 9 -61 24 -9 51 23 38 45 -12 19 -36 27
-47 16z"/>
<path d="M1082 5249 c2 -6 8 -10 13 -10 5 0 11 4 13 10 2 6 -4 11 -13 11 -9 0
-15 -5 -13 -11z"/>
<path d="M6090 5244 c0 -9 5 -14 12 -12 18 6 21 28 4 28 -9 0 -16 -7 -16 -16z"/>
<path d="M6237 5254 c-13 -13 -7 -55 9 -61 24 -9 51 23 38 45 -12 19 -36 27
-47 16z"/>
<path d="M952 4938 c3 -7 13 -15 22 -16 12 -3 17 1 14 10 -3 7 -13 15 -22 16
-12 3 -17 -1 -14 -10z"/>
<path d="M6210 4934 c0 -17 22 -14 28 4 2 7 -3 12 -12 12 -9 0 -16 -7 -16 -16z"/>
<path d="M730 4855 c0 -8 62 -37 68 -31 8 9 -30 35 -50 36 -10 0 -18 -2 -18
-5z"/>
<path d="M6423 4848 c-20 -10 -32 -28 -18 -28 12 0 55 24 55 32 0 10 -9 9 -37
-4z"/>
<path d="M1150 4818 c0 -23 118 -134 130 -122 16 16 4 35 -54 84 -60 49 -76
58 -76 38z"/>
<path d="M6014 4817 c-6 -7 -32 -31 -58 -55 -45 -42 -59 -72 -33 -72 19 0 130
116 123 129 -9 14 -18 13 -32 -2z"/>
<path d="M930 4751 c0 -12 71 -53 79 -46 7 8 -49 55 -66 55 -7 0 -13 -4 -13
-9z"/>
<path d="M6212 4736 c-18 -13 -29 -27 -23 -30 11 -7 81 32 81 45 0 15 -24 9
-58 -15z"/>
<path d="M1412 4673 c5 -25 28 -28 28 -4 0 12 -6 21 -16 21 -9 0 -14 -7 -12
-17z"/>
<path d="M5755 4679 c-4 -6 -4 -13 -1 -16 8 -8 36 5 36 17 0 13 -27 13 -35 -1z"/>
<path d="M1040 4675 c0 -10 82 -56 88 -50 10 9 -49 55 -70 55 -10 0 -18 -2
-18 -5z"/>
<path d="M6095 4656 c-16 -13 -27 -27 -24 -31 8 -7 79 34 79 46 0 16 -24 9
-55 -15z"/>
<path d="M720 4651 c0 -12 39 -25 48 -16 7 7 -17 25 -35 25 -7 0 -13 -4 -13
-9z"/>
<path d="M6431 4651 c-7 -5 -9 -11 -4 -14 13 -8 53 3 53 14 0 11 -31 11 -49 0z"/>
<path d="M875 4560 c3 -5 10 -10 16 -10 5 0 9 5 9 10 0 6 -7 10 -16 10 -8 0
-12 -4 -9 -10z"/>
<path d="M1290 4562 c0 -16 32 -52 46 -52 15 0 35 39 27 53 -6 9 -73 9 -73 -1z"/>
<path d="M5835 4560 c-7 -12 12 -50 25 -50 11 0 50 40 50 52 0 11 -68 10 -75
-2z"/>
<path d="M6295 4560 c-3 -5 1 -10 9 -10 8 0 18 5 21 10 3 6 -1 10 -9 10 -8 0
-18 -4 -21 -10z"/>
<path d="M1000 4511 c0 -9 19 -14 145 -37 92 -16 105 -17 105 -6 0 4 -51 18
-113 30 -127 25 -137 26 -137 13z"/>
<path d="M6048 4496 c-60 -11 -108 -24 -108 -28 0 -11 29 -10 87 1 151 29 173
35 173 42 0 12 -29 10 -152 -15z"/>
<path d="M654 4459 c-5 -9 12 -17 64 -33 15 -5 22 -3 22 6 0 16 -78 40 -86 27z"/>
<path d="M6493 4453 c-46 -16 -60 -40 -18 -29 49 12 76 26 70 36 -3 5 -7 10
-8 9 -1 0 -21 -7 -44 -16z"/>
<path d="M850 4392 c0 -12 14 -17 73 -27 33 -5 51 5 30 18 -19 12 -103 19
-103 9z"/>
<path d="M6273 4393 c-21 -3 -33 -10 -33 -19 0 -11 8 -13 33 -9 17 3 41 7 51
9 11 1 22 8 24 14 4 12 -11 13 -75 5z"/>
<path d="M1080 4370 c0 -13 7 -20 20 -20 13 0 20 7 20 20 0 13 -7 20 -20 20
-13 0 -20 -7 -20 -20z"/>
<path d="M6080 4371 c0 -15 6 -21 21 -21 14 0 19 5 17 17 -5 26 -38 29 -38 4z"/>
<path d="M720 4270 c0 -5 7 -10 15 -10 8 0 15 5 15 10 0 6 -7 10 -15 10 -8 0
-15 -4 -15 -10z"/>
<path d="M6450 4270 c0 -5 7 -10 15 -10 8 0 15 5 15 10 0 6 -7 10 -15 10 -8 0
-15 -4 -15 -10z"/>
<path d="M830 4225 c0 -8 7 -15 15 -15 8 0 15 7 15 15 0 8 -7 15 -15 15 -8 0
-15 -7 -15 -15z"/>
<path d="M6340 4225 c0 -8 7 -15 15 -15 8 0 15 7 15 15 0 8 -7 15 -15 15 -8 0
-15 -7 -15 -15z"/>
<path d="M960 4206 c0 -11 9 -16 26 -16 31 0 28 23 -4 28 -15 2 -22 -2 -22
-12z"/>
<path d="M6185 4210 c-8 -13 20 -24 40 -16 8 3 15 10 15 16 0 13 -47 13 -55 0z"/>
<path d="M1120 4115 c0 -10 7 -15 18 -13 21 4 19 22 -2 26 -10 2 -16 -3 -16
-13z"/>
<path d="M6040 4115 c0 -8 7 -15 15 -15 8 0 15 7 15 15 0 8 -7 15 -15 15 -8 0
-15 -7 -15 -15z"/>
<path d="M700 4102 c-5 -2 -8 -8 -4 -13 3 -5 53 -9 110 -9 80 0 105 3 101 13
-3 8 -32 12 -100 12 -53 0 -101 -2 -107 -3z"/>
<path d="M6297 4104 c-19 -19 1 -24 99 -24 80 0 105 3 102 13 -5 13 -188 23
-201 11z"/>
<path d="M1047 4073 c-13 -12 -7 -23 13 -23 11 0 20 7 20 15 0 15 -21 21 -33
8z"/>
<path d="M6120 4065 c0 -8 7 -15 15 -15 8 0 15 7 15 15 0 8 -7 15 -15 15 -8 0
-15 -7 -15 -15z"/>
<path d="M963 4024 c-8 -21 13 -42 28 -27 13 13 5 43 -11 43 -6 0 -13 -7 -17
-16z"/>
<path d="M6200 4025 c-10 -12 -10 -19 -2 -27 15 -15 48 14 38 31 -10 15 -21
14 -36 -4z"/>
<path d="M874 3945 c-4 -9 -2 -21 4 -27 15 -15 44 -1 40 19 -4 23 -36 29 -44
8z"/>
<path d="M6282 3938 c2 -13 10 -23 18 -23 8 0 16 10 18 23 3 17 -2 22 -18 22
-16 0 -21 -5 -18 -22z"/>
<path d="M635 3940 c3 -5 13 -10 21 -10 8 0 14 5 14 10 0 6 -9 10 -21 10 -11
0 -17 -4 -14 -10z"/>
<path d="M6530 3940 c0 -5 7 -10 15 -10 8 0 15 5 15 10 0 6 -7 10 -15 10 -8 0
-15 -4 -15 -10z"/>
<path d="M773 3864 c-8 -21 13 -42 28 -27 13 13 5 43 -11 43 -6 0 -13 -7 -17
-16z"/>
<path d="M6384 3865 c-4 -9 -2 -21 4 -27 15 -15 44 -1 40 19 -4 23 -36 29 -44
8z"/>
<path d="M682 3778 c5 -15 28 -18 29 -3 0 6 -7 12 -17 13 -10 3 -15 -1 -12
-10z"/>
<path d="M6482 3778 c6 -18 28 -21 28 -4 0 9 -7 16 -16 16 -9 0 -14 -5 -12
-12z"/>
<path d="M592 3481 c4 -13 18 -16 19 -4 0 4 -5 9 -11 12 -7 2 -11 -2 -8 -8z"/>
<path d="M6580 3481 c0 -6 5 -13 10 -16 6 -3 10 1 10 9 0 9 -4 16 -10 16 -5 0
-10 -4 -10 -9z"/>
<path d="M662 3423 c5 -26 38 -29 38 -4 0 15 -6 21 -21 21 -14 0 -19 -5 -17
-17z"/>
<path d="M6492 3423 c5 -26 38 -29 38 -4 0 15 -6 21 -21 21 -14 0 -19 -5 -17
-17z"/>
<path d="M770 3350 c-9 -16 -8 -22 5 -26 21 -8 39 10 32 30 -9 22 -24 20 -37
-4z"/>
<path d="M6394 3356 c-7 -19 3 -36 22 -36 10 0 14 8 12 22 -4 26 -26 36 -34
14z"/>
<path d="M863 3284 c-7 -19 11 -39 26 -30 16 10 13 33 -4 40 -9 3 -18 -1 -22
-10z"/>
<path d="M6297 3283 c-8 -7 11 -33 24 -33 5 0 9 9 9 20 0 19 -20 27 -33 13z"/>
<path d="M630 3250 c0 -5 5 -10 10 -10 6 0 10 5 10 10 0 6 -4 10 -10 10 -5 0
-10 -4 -10 -10z"/>
<path d="M6550 3250 c0 -5 5 -10 10 -10 6 0 10 5 10 10 0 6 -4 10 -10 10 -5 0
-10 -4 -10 -10z"/>
<path d="M957 3206 c-7 -16 1 -26 20 -26 7 0 13 9 13 20 0 23 -25 27 -33 6z"/>
<path d="M6205 3210 c-8 -13 3 -30 20 -30 14 0 27 24 18 34 -10 9 -31 7 -38
-4z"/>
<path d="M1047 3136 c-9 -22 18 -40 33 -22 6 9 9 20 5 26 -9 15 -32 12 -38 -4z"/>
<path d="M6113 3134 c-7 -18 17 -38 31 -24 11 11 1 40 -14 40 -6 0 -13 -7 -17
-16z"/>
<path d="M782 3123 c-24 -8 -41 -17 -39 -19 5 -5 69 16 82 27 11 11 10 11 -43
-8z"/>
<path d="M6370 3132 c0 -4 20 -14 45 -23 56 -20 58 -16 5 11 -43 22 -50 24
-50 12z"/>
<path d="M1124 3079 c-8 -14 11 -33 25 -25 6 4 11 14 11 22 0 16 -26 19 -36 3z"/>
<path d="M6040 3069 c0 -24 23 -21 28 4 2 10 -3 17 -12 17 -10 0 -16 -9 -16
-21z"/>
<path d="M863 3007 c-24 -11 -43 -27 -43 -34 0 -18 5 -17 61 15 77 42 61 59
-18 19z"/>
<path d="M6270 3020 c0 -11 100 -64 107 -56 9 9 -8 26 -47 46 -43 22 -60 25
-60 10z"/>
<path d="M1005 2972 c-8 -22 8 -34 39 -26 34 8 33 17 -3 31 -25 9 -31 8 -36
-5z"/>
<path d="M6140 2970 l-25 -7 28 -12 c39 -15 47 -14 47 9 0 21 -9 23 -50 10z"/>
<path d="M756 2921 c-4 -5 -2 -12 3 -15 5 -4 12 -2 15 3 4 5 2 12 -3 15 -5 4
-12 2 -15 -3z"/>
<path d="M6422 2921 c4 -13 18 -16 19 -4 0 4 -5 9 -11 12 -7 2 -11 -2 -8 -8z"/>
<path d="M942 2896 c1 -10 8 -17 13 -17 15 1 12 24 -3 29 -9 3 -13 -2 -10 -12z"/>
<path d="M6234 2896 c-8 -22 3 -33 18 -18 9 9 9 15 0 24 -9 9 -13 7 -18 -6z"/>
<path d="M6480 2896 c0 -13 20 -26 41 -26 18 0 8 17 -16 28 -20 9 -25 9 -25
-2z"/>
<path d="M670 2885 c-17 -20 9 -21 36 0 19 14 19 14 -2 15 -12 0 -27 -7 -34
-15z"/>
<path d="M862 2804 c4 -21 22 -23 26 -1 2 10 -3 17 -13 17 -10 0 -15 -6 -13
-16z"/>
<path d="M6304 2809 c-8 -14 11 -33 25 -25 6 4 11 14 11 22 0 16 -26 19 -36 3z"/>
<path d="M1201 2746 c-8 -9 -11 -26 -7 -41 12 -47 71 -22 64 27 -4 28 -39 36
-57 14z"/>
<path d="M5936 2744 c-9 -23 21 -66 42 -62 12 2 17 13 17 38 0 30 -4 35 -26
38 -18 2 -29 -3 -33 -14z"/>
<path d="M1074 2679 c-10 -17 13 -36 27 -22 12 12 4 33 -11 33 -5 0 -12 -5
-16 -11z"/>
<path d="M6095 2680 c-7 -12 2 -30 16 -30 5 0 9 9 9 20 0 21 -15 27 -25 10z"/>
<path d="M1160 2565 c0 -9 5 -15 11 -13 6 2 11 8 11 13 0 5 -5 11 -11 13 -6 2
-11 -4 -11 -13z"/>
<path d="M6010 2565 c0 -8 7 -15 15 -15 8 0 15 7 15 15 0 8 -7 15 -15 15 -8 0
-15 -7 -15 -15z"/>
<path d="M1060 2510 c0 -43 3 -50 20 -50 17 0 20 7 20 50 0 43 -3 50 -20 50
-17 0 -20 -7 -20 -50z"/>
<path d="M6096 2544 c-3 -9 -6 -31 -6 -50 0 -30 3 -34 25 -34 23 0 25 3 25 50
0 42 -3 50 -19 50 -10 0 -22 -7 -25 -16z"/>
<path d="M1276 2133 c-11 -11 -6 -23 9 -23 8 0 15 4 15 9 0 13 -16 22 -24 14z"/>
<path d="M5890 2120 c0 -5 7 -10 15 -10 8 0 15 5 15 10 0 6 -7 10 -15 10 -8 0
-15 -4 -15 -10z"/>
<path d="M1312 1958 c-16 -16 -15 -38 2 -38 13 0 26 20 26 41 0 13 -14 11 -28
-3z"/>
<path d="M5862 1948 c2 -12 9 -23 15 -26 19 -6 29 28 12 39 -23 14 -31 10 -27
-13z"/>
<path d="M1070 1865 c-20 -25 -8 -50 25 -50 21 0 31 5 33 18 4 21 -14 47 -33
47 -7 0 -18 -7 -25 -15z"/>
<path d="M6082 1868 c-30 -30 3 -77 40 -57 30 16 16 69 -17 69 -6 0 -16 -5
-23 -12z"/>
<path d="M1980 1765 c-18 -21 -3 -55 25 -55 15 0 26 7 30 20 7 23 -10 50 -30
50 -7 0 -18 -7 -25 -15z"/>
<path d="M5164 1766 c-11 -29 0 -51 26 -51 21 0 25 5 25 30 0 24 -5 31 -23 33
-13 2 -24 -3 -28 -12z"/>
<path d="M1860 1725 c0 -9 5 -15 11 -13 6 2 11 8 11 13 0 5 -5 11 -11 13 -6 2
-11 -4 -11 -13z"/>
<path d="M5310 1724 c0 -17 22 -14 28 4 2 7 -3 12 -12 12 -9 0 -16 -7 -16 -16z"/>
<path d="M1155 1721 c-7 -12 12 -24 25 -16 11 7 4 25 -10 25 -5 0 -11 -4 -15
-9z"/>
<path d="M6017 1723 c-12 -11 -8 -23 8 -23 8 0 15 7 15 15 0 16 -12 20 -23 8z"/>
<path d="M1760 1691 c0 -22 23 -34 38 -19 15 15 3 38 -19 38 -12 0 -19 -7 -19
-19z"/>
<path d="M5390 1691 c0 -27 19 -36 37 -18 18 18 9 37 -18 37 -12 0 -19 -7 -19
-19z"/>
<path d="M1320 1680 c0 -5 5 -10 10 -10 6 0 10 5 10 10 0 6 -4 10 -10 10 -5 0
-10 -4 -10 -10z"/>
<path d="M1433 1674 c-8 -21 13 -42 28 -27 13 13 5 43 -11 43 -6 0 -13 -7 -17
-16z"/>
<path d="M1650 1670 c0 -15 5 -20 18 -18 9 2 17 10 17 18 0 8 -8 16 -17 18
-13 2 -18 -3 -18 -18z"/>
<path d="M5517 1684 c-14 -14 -7 -35 11 -32 9 2 17 10 17 17 0 16 -18 25 -28
15z"/>
<path d="M5850 1680 c0 -5 7 -10 15 -10 8 0 15 5 15 10 0 6 -7 10 -15 10 -8 0
-15 -4 -15 -10z"/>
<path d="M1542 1663 c2 -10 10 -18 18 -18 8 0 16 8 18 18 2 12 -3 17 -18 17
-15 0 -20 -5 -18 -17z"/>
<path d="M5620 1660 c0 -11 7 -20 15 -20 8 0 15 9 15 20 0 11 -7 20 -15 20 -8
0 -15 -9 -15 -20z"/>
<path d="M5730 1666 c0 -8 4 -17 9 -20 11 -7 33 18 24 27 -12 12 -33 7 -33 -7z"/>
<path d="M2050 1621 c0 -15 6 -21 21 -21 14 0 19 5 17 17 -5 26 -38 29 -38 4z"/>
<path d="M5110 1621 c0 -15 6 -21 21 -21 14 0 19 5 17 17 -5 26 -38 29 -38 4z"/>
<path d="M1884 1566 c-62 -70 -72 -86 -56 -86 15 0 124 129 120 142 -2 6 -31
-19 -64 -56z"/>
<path d="M5252 1616 c6 -28 112 -146 121 -137 6 6 -13 36 -53 80 -64 73 -74
81 -68 57z"/>
<path d="M1310 1579 c0 -5 5 -7 10 -4 6 3 10 8 10 11 0 2 -4 4 -10 4 -5 0 -10
-5 -10 -11z"/>
<path d="M5870 1580 c0 -5 5 -10 10 -10 6 0 10 5 10 10 0 6 -4 10 -10 10 -5 0
-10 -4 -10 -10z"/>
<path d="M1220 1560 c0 -5 4 -10 9 -10 6 0 13 5 16 10 3 6 -1 10 -9 10 -9 0
-16 -4 -16 -10z"/>
<path d="M2000 1535 c0 -8 7 -15 15 -15 8 0 15 7 15 15 0 8 -7 15 -15 15 -8 0
-15 -7 -15 -15z"/>
<path d="M5165 1541 c-7 -12 12 -24 25 -16 11 7 4 25 -10 25 -5 0 -11 -4 -15
-9z"/>
<path d="M1530 1530 c0 -5 7 -10 15 -10 8 0 15 5 15 10 0 6 -7 10 -15 10 -8 0
-15 -4 -15 -10z"/>
<path d="M5640 1530 c0 -5 4 -10 9 -10 6 0 13 5 16 10 3 6 -1 10 -9 10 -9 0
-16 -4 -16 -10z"/>
<path d="M2106 1503 c-8 -19 8 -38 23 -29 16 10 13 46 -3 46 -8 0 -17 -8 -20
-17z"/>
<path d="M5064 1505 c-7 -17 4 -37 17 -30 12 8 12 45 -1 45 -6 0 -13 -7 -16
-15z"/>
<path d="M1410 1480 c0 -5 7 -10 16 -10 8 0 12 5 9 10 -3 6 -10 10 -16 10 -5
0 -9 -4 -9 -10z"/>
<path d="M5760 1480 c0 -5 7 -10 16 -10 8 0 12 5 9 10 -3 6 -10 10 -16 10 -5
0 -9 -4 -9 -10z"/>
<path d="M1621 1456 c-28 -30 -24 -55 4 -29 11 10 26 26 34 36 22 28 -11 22
-38 -7z"/>
<path d="M5530 1473 c0 -10 52 -63 62 -63 15 0 8 21 -17 45 -23 24 -45 33 -45
18z"/>
<path d="M1961 1424 c-24 -31 -26 -44 -8 -44 11 0 47 49 47 64 0 14 -20 4 -39
-20z"/>
<path d="M5200 1444 c0 -15 36 -64 47 -64 18 0 16 7 -8 41 -18 26 -39 38 -39
23z"/>
<path d="M2167 1424 c-13 -13 -7 -24 14 -24 11 0 19 5 17 12 -5 14 -22 21 -31
12z"/>
<path d="M5006 1423 c-11 -11 -6 -23 9 -23 8 0 15 4 15 9 0 13 -16 22 -24 14z"/>
<path d="M1516 1351 c-21 -21 -34 -41 -29 -44 8 -5 93 64 93 76 0 18 -30 3
-64 -32z"/>
<path d="M2037 1370 c-4 -15 0 -20 14 -20 12 0 19 7 19 20 0 11 -6 20 -14 20
-7 0 -16 -9 -19 -20z"/>
<path d="M5125 1380 c-8 -13 14 -42 26 -34 5 3 9 14 9 25 0 20 -24 26 -35 9z"/>
<path d="M5620 1382 c0 -10 73 -82 83 -82 17 0 4 22 -30 55 -38 34 -53 42 -53
27z"/>
<path d="M1738 1339 c-18 -10 -25 -39 -9 -39 12 0 33 28 29 39 -2 6 -9 6 -20
0z"/>
<path d="M5430 1342 c0 -14 36 -43 43 -35 4 3 0 15 -10 25 -17 19 -33 24 -33
10z"/>
<path d="M2170 1320 c0 -13 7 -20 20 -20 13 0 20 7 20 20 0 13 -7 20 -20 20
-13 0 -20 -7 -20 -20z"/>
<path d="M4985 1331 c-9 -16 3 -31 26 -31 14 0 19 6 17 17 -4 20 -33 29 -43
14z"/>
<path d="M1902 1318 c-14 -14 -16 -38 -2 -38 9 0 30 31 30 44 0 10 -15 7 -28
-6z"/>
<path d="M5270 1322 c0 -15 28 -47 35 -40 8 8 -13 48 -25 48 -6 0 -10 -4 -10
-8z"/>
<path d="M1610 1285 c-10 -13 -9 -15 9 -15 11 0 21 4 21 9 0 18 -18 21 -30 6z"/>
<path d="M5565 1290 c-4 -6 -3 -16 3 -22 6 -6 12 -6 17 2 4 6 3 16 -3 22 -6 6
-12 6 -17 -2z"/>
<path d="M2647 1284 c-14 -14 -7 -35 11 -32 9 2 17 10 17 17 0 16 -18 25 -28
15z"/>
<path d="M4520 1270 c0 -15 5 -20 18 -18 9 2 17 10 17 18 0 8 -8 16 -17 18
-13 2 -18 -3 -18 -18z"/>
<path d="M1840 1228 c-1 -7 -14 -28 -30 -47 -29 -34 -32 -63 -4 -40 12 10 54
84 54 96 0 10 -20 1 -20 -9z"/>
<path d="M5332 1233 c2 -5 17 -29 33 -55 29 -47 45 -60 45 -36 0 14 -62 97
-73 98 -5 0 -7 -3 -5 -7z"/>
<path d="M2172 1203 c5 -26 38 -29 38 -4 0 15 -6 21 -21 21 -14 0 -19 -5 -17
-17z"/>
<path d="M4986 1205 c-6 -17 16 -31 33 -21 13 9 2 36 -14 36 -7 0 -16 -7 -19
-15z"/>
<path d="M2026 1181 c-7 -11 22 -23 35 -15 5 3 7 10 4 15 -8 12 -32 12 -39 0z"/>
<path d="M2563 1175 c-3 -9 -3 -18 0 -21 9 -9 27 6 27 22 0 19 -19 18 -27 -1z"/>
<path d="M4605 1181 c-8 -15 3 -31 21 -31 9 0 14 7 12 17 -4 20 -24 28 -33 14z"/>
<path d="M5135 1181 c-3 -5 -1 -12 5 -16 12 -7 30 2 30 16 0 12 -27 12 -35 0z"/>
<path d="M2694 1169 c-10 -17 13 -36 27 -22 12 12 4 33 -11 33 -5 0 -12 -5
-16 -11z"/>
<path d="M4470 1166 c0 -17 27 -29 35 -16 4 6 3 15 0 20 -9 15 -35 12 -35 -4z"/>
<path d="M2167 1104 c-8 -8 1 -24 14 -24 5 0 9 7 9 15 0 15 -12 20 -23 9z"/>
<path d="M5005 1099 c-10 -15 1 -23 20 -15 9 3 13 10 10 16 -8 13 -22 13 -30
-1z"/>
<path d="M2020 1085 c0 -8 7 -15 15 -15 8 0 15 7 15 15 0 8 -7 15 -15 15 -8 0
-15 -7 -15 -15z"/>
<path d="M2660 1085 c0 -8 5 -15 10 -15 6 0 10 7 10 15 0 8 -4 15 -10 15 -5 0
-10 -7 -10 -15z"/>
<path d="M4517 1093 c-12 -11 -8 -23 8 -23 8 0 15 7 15 15 0 16 -12 20 -23 8z"/>
<path d="M5147 1094 c-9 -10 2 -24 19 -24 8 0 14 7 14 15 0 15 -21 21 -33 9z"/>
<path d="M2472 1051 c-33 -41 -41 -64 -19 -55 12 5 67 77 67 88 0 16 -20 2
-48 -33z"/>
<path d="M4680 1079 c0 -20 63 -90 73 -80 6 6 -3 25 -24 50 -32 41 -49 51 -49
30z"/>
<path d="M1730 1070 c0 -5 5 -10 10 -10 6 0 10 5 10 10 0 6 -4 10 -10 10 -5 0
-10 -4 -10 -10z"/>
<path d="M2728 1055 c-25 -22 -37 -45 -22 -45 10 0 74 52 74 61 0 16 -25 9
-52 -16z"/>
<path d="M4420 1073 c0 -13 53 -63 67 -63 20 0 16 14 -15 43 -27 26 -52 35
-52 20z"/>
<path d="M5450 1070 c0 -5 5 -10 10 -10 6 0 10 5 10 10 0 6 -4 10 -10 10 -5 0
-10 -4 -10 -10z"/>
<path d="M2557 1016 c-9 -13 -13 -27 -10 -30 7 -7 53 33 53 46 0 17 -28 7 -43
-16z"/>
<path d="M4600 1027 c0 -17 38 -52 47 -44 9 10 -18 57 -34 57 -7 0 -13 -6 -13
-13z"/>
<path d="M1665 1011 c-6 -11 9 -23 19 -14 9 9 7 23 -3 23 -6 0 -12 -4 -16 -9z"/>
<path d="M1916 1011 c-7 -11 3 -41 14 -41 13 0 32 29 25 40 -8 12 -32 13 -39
1z"/>
<path d="M5243 1004 c-5 -14 11 -33 28 -34 10 0 20 31 13 41 -9 15 -34 10 -41
-7z"/>
<path d="M5510 1011 c0 -6 5 -13 10 -16 6 -3 10 1 10 9 0 9 -4 16 -10 16 -5 0
-10 -4 -10 -9z"/>
<path d="M2797 994 c-14 -14 -7 -35 11 -32 9 2 17 10 17 17 0 16 -18 25 -28
15z"/>
<path d="M4375 991 c-8 -15 3 -31 21 -31 9 0 14 7 12 17 -4 20 -24 28 -33 14z"/>
<path d="M2100 980 c0 -5 7 -10 15 -10 8 0 15 5 15 10 0 6 -7 10 -15 10 -8 0
-15 -4 -15 -10z"/>
<path d="M5070 980 c0 -5 7 -10 15 -10 8 0 15 5 15 10 0 6 -7 10 -15 10 -8 0
-15 -4 -15 -10z"/>
<path d="M2375 940 c-8 -13 4 -32 16 -25 12 8 12 35 0 35 -6 0 -13 -4 -16 -10z"/>
<path d="M4800 935 c0 -9 5 -15 11 -13 6 2 11 8 11 13 0 5 -5 11 -11 13 -6 2
-11 -4 -11 -13z"/>
<path d="M2850 896 c0 -10 9 -16 21 -16 24 0 21 23 -4 28 -10 2 -17 -3 -17
-12z"/>
<path d="M4312 893 c2 -10 10 -18 18 -18 22 0 18 29 -3 33 -14 3 -18 -1 -15
-15z"/>
<path d="M2750 860 c0 -16 5 -30 10 -30 6 0 10 14 10 30 0 17 -4 30 -10 30 -5
0 -10 -13 -10 -30z"/>
<path d="M4424 875 c-8 -19 2 -45 16 -45 5 0 10 14 10 30 0 31 -16 41 -26 15z"/>
<path d="M2121 861 c-18 -12 -9 -45 13 -49 17 -4 35 12 36 30 0 13 -36 27 -49
19z"/>
<path d="M5035 850 c-8 -26 1 -40 26 -40 25 0 35 25 19 45 -17 21 -37 19 -45
-5z"/>
<path d="M2440 845 c-10 -12 -10 -15 3 -15 19 0 31 16 18 24 -5 3 -14 -1 -21
-9z"/>
<path d="M4735 850 c-4 -6 -3 -16 3 -22 6 -6 12 -6 17 2 4 6 3 16 -3 22 -6 6
-12 6 -17 -2z"/>
<path d="M2584 805 c-16 -40 -17 -45 -6 -45 7 0 42 63 42 75 0 3 -5 5 -11 5
-5 0 -17 -16 -25 -35z"/>
<path d="M4580 835 c0 -12 35 -75 42 -75 11 0 10 4 -9 45 -14 29 -33 47 -33
30z"/>
<path d="M2845 808 c-9 -22 -2 -68 10 -71 14 -3 19 63 6 76 -7 7 -12 5 -16 -5z"/>
<path d="M4335 808 c-9 -22 -2 -68 10 -71 14 -3 19 63 6 76 -7 7 -12 5 -16 -5z"/>
<path d="M2301 739 c-12 -16 -21 -35 -19 -41 2 -6 15 5 27 26 29 46 23 57 -8
15z"/>
<path d="M4870 767 c0 -14 33 -67 43 -67 9 0 -3 24 -27 55 -8 11 -16 16 -16
12z"/>
<path d="M2962 734 c3 -27 31 -54 43 -42 11 11 -5 47 -26 59 -18 9 -20 8 -17
-17z"/>
<path d="M4206 741 c-17 -19 -22 -51 -7 -51 24 0 41 14 41 35 0 32 -14 38 -34
16z"/>
<path d="M2531 694 c-6 -15 -9 -29 -6 -33 8 -7 35 28 35 46 0 22 -16 15 -29
-13z"/>
<path d="M4640 709 c0 -8 7 -24 15 -35 11 -15 14 -16 15 -3 0 8 -7 24 -15 35
-11 15 -14 16 -15 3z"/>
<path d="M4477 674 c-15 -15 -7 -45 11 -42 9 2 17 12 17 22 0 20 -16 31 -28
20z"/>
<path d="M2690 649 c0 -25 33 -22 38 4 2 12 -3 17 -17 17 -15 0 -21 -6 -21
-21z"/>
<path d="M3100 645 c0 -8 7 -15 15 -15 8 0 15 7 15 15 0 8 -7 15 -15 15 -8 0
-15 -7 -15 -15z"/>
<path d="M4070 645 c0 -8 7 -15 15 -15 8 0 15 7 15 15 0 8 -7 15 -15 15 -8 0
-15 -7 -15 -15z"/>
<path d="M2827 593 c-8 -14 5 -73 14 -67 12 7 12 74 0 74 -6 0 -12 -3 -14 -7z"/>
<path d="M4350 565 c0 -19 5 -35 10 -35 6 0 10 16 10 35 0 19 -4 35 -10 35 -5
0 -10 -16 -10 -35z"/>
<path d="M2206 565 c-3 -8 2 -22 11 -30 14 -15 18 -15 31 -1 8 8 12 22 9 30
-8 20 -43 21 -51 1z"/>
<path d="M3164 569 c-8 -14 11 -33 25 -25 16 10 13 36 -3 36 -8 0 -18 -5 -22
-11z"/>
<path d="M3994 569 c-8 -14 11 -33 25 -25 16 10 13 36 -3 36 -8 0 -18 -5 -22
-11z"/>
<path d="M4943 564 c-3 -8 1 -22 9 -30 13 -14 17 -14 32 1 13 13 14 20 5 31
-15 19 -38 18 -46 -2z"/>
<path d="M2989 555 c-5 -24 -1 -49 9 -53 8 -2 12 7 12 27 0 17 -4 31 -10 31
-5 0 -10 -2 -11 -5z"/>
<path d="M4190 530 c0 -16 5 -30 10 -30 6 0 10 14 10 30 0 17 -4 30 -10 30 -5
0 -10 -13 -10 -30z"/>
<path d="M3917 503 c-4 -3 -7 -12 -7 -20 0 -15 26 -18 34 -4 7 11 -18 33 -27
24z"/>
<path d="M3255 489 c-10 -15 1 -23 20 -15 9 3 13 10 10 16 -8 13 -22 13 -30
-1z"/>
<path d="M2832 460 c0 -14 2 -19 5 -12 2 6 2 18 0 25 -3 6 -5 1 -5 -13z"/>
<path d="M4354 469 c-3 -6 -1 -16 5 -22 8 -8 11 -5 11 11 0 24 -5 28 -16 11z"/>
<path d="M3330 405 c0 -8 7 -15 15 -15 8 0 15 7 15 15 0 8 -7 15 -15 15 -8 0
-15 -7 -15 -15z"/>
<path d="M3840 405 c0 -8 7 -15 15 -15 8 0 15 7 15 15 0 8 -7 15 -15 15 -8 0
-15 -7 -15 -15z"/>
<path d="M3405 330 c-9 -15 3 -30 20 -24 7 3 11 12 8 20 -6 16 -19 18 -28 4z"/>
<path d="M3764 329 c-10 -17 13 -36 27 -22 12 12 4 33 -11 33 -5 0 -12 -5 -16
-11z"/>
<path d="M3590 200 c0 -11 5 -20 10 -20 6 0 10 9 10 20 0 11 -4 20 -10 20 -5
0 -10 -9 -10 -20z"/>
</g>
</svg>
