<?xml version="1.0" standalone="no"?>
<!DOCTYPE svg PUBLIC "-//W3C//DTD SVG 20010904//EN"
 "http://www.w3.org/TR/2001/REC-SVG-20010904/DTD/svg10.dtd">
<svg version="1.0" xmlns="http://www.w3.org/2000/svg"
 width="455.000000pt" height="640.000000pt" viewBox="0 0 455.000000 640.000000"
 preserveAspectRatio="xMidYMid meet">

<g transform="translate(0.000000,640.000000) scale(0.100000,-0.100000)"
fill="#000000" stroke="none">
<path d="M2240 6320 c0 -5 5 -10 10 -10 6 0 10 5 10 10 0 6 -4 10 -10 10 -5 0
-10 -4 -10 -10z"/>
<path d="M2240 6141 c0 -87 -3 -186 -6 -220 -6 -56 -11 -65 -56 -112 l-50 -52
51 -51 51 -52 0 -137 c0 -85 4 -137 10 -137 6 0 10 47 10 120 0 117 7 142 30
101 6 -13 8 -68 4 -153 l-6 -133 -51 -80 c-49 -78 -278 -434 -402 -625 -34
-52 -101 -157 -150 -232 -49 -76 -93 -138 -98 -138 -7 0 -187 98 -501 272
-167 93 -954 527 -985 543 -17 8 -31 12 -31 7 0 -4 116 -147 258 -318 141
-170 267 -322 278 -337 12 -15 25 -27 28 -27 3 0 155 -59 338 -131 483 -189
489 -191 485 -196 -3 -2 -116 24 -251 58 -136 34 -249 59 -253 56 -3 -3 59
-84 138 -180 131 -158 148 -175 182 -181 26 -4 36 -10 30 -19 -7 -13 -419
-651 -530 -822 -36 -55 -98 -151 -138 -214 -40 -62 -71 -119 -68 -127 4 -12
117 -14 709 -14 459 0 704 -3 704 -10 0 -5 -11 -63 -25 -128 l-26 -119 30
-114 c60 -227 77 -280 86 -282 5 -1 24 75 42 168 69 363 79 399 53 175 -5 -41
-16 -133 -24 -205 -21 -180 -25 -195 -42 -195 -17 0 -107 -44 -146 -72 -16
-11 -32 -17 -37 -14 -13 8 -34 -21 -27 -39 6 -17 45 -21 47 -5 1 6 2 15 3 22
1 12 101 71 149 87 23 9 27 7 27 -9 0 -12 -24 -31 -76 -60 -137 -75 -241 -205
-279 -350 -8 -30 -15 -95 -15 -145 0 -133 33 -235 106 -330 l38 -50 1 -105 c0
-98 3 -110 34 -178 58 -123 173 -214 306 -239 16 -4 33 -11 37 -17 4 -6 8 3 8
19 0 20 -3 26 -9 17 -7 -11 -18 -11 -65 1 -111 30 -213 111 -260 210 -28 59
-51 171 -40 196 4 9 6 28 5 44 l-3 28 79 -54 c85 -58 158 -86 244 -94 l56 -6
3 -111 c1 -61 5 -232 9 -381 l8 -270 3 355 c1 195 3 366 4 380 1 23 6 25 56
30 86 9 168 40 253 96 72 48 77 50 77 29 0 -17 -15 -33 -60 -61 -53 -34 -73
-54 -54 -54 3 0 30 16 60 36 30 20 57 34 60 32 2 -3 0 -35 -5 -73 -13 -86 -50
-162 -111 -225 -78 -81 -213 -133 -248 -98 -9 9 -12 5 -12 -21 0 -26 3 -31 13
-23 6 5 28 13 47 17 183 39 329 218 330 403 0 38 6 51 50 99 211 237 198 606
-30 833 -73 73 -168 136 -192 128 -7 -3 17 -20 52 -39 132 -69 246 -219 285
-374 44 -175 0 -379 -114 -523 -73 -93 -86 -56 -16 43 126 176 144 397 49 587
-36 71 -114 158 -184 206 -70 46 -90 52 -90 23 0 -13 20 -33 55 -56 203 -135
287 -404 194 -622 -23 -54 -78 -143 -88 -143 -3 0 -15 19 -26 42 -38 79 -150
167 -257 202 -16 5 -10 28 53 208 38 112 64 197 58 190 -7 -6 -21 -12 -30 -12
-9 0 -51 -25 -93 -56 -42 -31 -82 -54 -89 -51 -7 3 -55 35 -106 71 -52 36 -96
65 -98 63 -2 -2 28 -94 66 -204 l69 -200 -52 -16 c-99 -32 -209 -121 -243
-199 -9 -21 -20 -38 -24 -38 -4 0 -21 21 -37 48 -137 213 -113 469 61 646 54
55 128 106 155 106 5 0 7 -22 4 -49 l-4 -49 63 -41 c35 -23 51 -31 35 -19 -16
13 -40 32 -54 43 l-24 21 176 96 c97 53 176 95 176 93 0 -2 -36 -77 -80 -166
-44 -89 -78 -164 -76 -166 2 -3 51 26 108 64 56 37 104 68 106 69 1 0 -18 176
-43 390 -25 214 -44 395 -43 403 2 8 25 -106 52 -252 27 -147 53 -267 57 -267
4 0 10 8 13 18 2 9 28 102 56 205 l52 188 -26 112 c-15 62 -26 118 -26 125 0
9 151 12 724 12 575 0 726 3 734 13 11 13 1 32 -166 287 -41 63 -101 156 -133
205 -32 50 -145 225 -252 390 -156 241 -191 301 -178 306 16 7 97 97 115 128
5 9 50 65 99 124 49 59 87 110 84 113 -2 3 -47 -6 -98 -20 -52 -14 -156 -41
-232 -61 -77 -20 -141 -34 -144 -31 -3 3 3 9 13 12 17 7 308 120 665 260 l116
46 129 155 c71 85 137 164 148 176 10 12 65 78 122 147 56 69 116 142 133 162
17 20 28 38 24 41 -5 2 -120 -59 -258 -135 -241 -134 -337 -188 -933 -517
-150 -83 -277 -151 -282 -151 -8 0 -65 84 -225 332 -32 51 -96 149 -140 218
-147 226 -245 380 -245 385 0 3 7 5 16 5 8 0 12 5 9 10 -4 6 -15 8 -24 5 -13
-4 -24 7 -45 45 -15 27 -31 52 -36 55 -6 4 -10 69 -10 148 l0 143 70 69 c39
38 70 74 70 80 0 6 -31 42 -70 80 -58 58 -70 75 -70 102 0 18 -4 33 -10 33 -5
0 -10 -10 -10 -23 0 -13 -7 -32 -15 -43 -13 -17 -14 4 -15 189 0 131 -4 207
-10 207 -6 0 -10 -60 -10 -159z m45 -490 c-4 -3 -13 2 -20 12 -16 22 -9 174 9
196 8 11 12 -12 14 -94 1 -59 0 -110 -3 -114z m125 104 c0 -6 -22 -33 -50 -60
l-50 -49 0 109 0 109 50 -49 c28 -27 50 -54 50 -60z m-180 -2 l0 -56 -25 23
c-14 13 -25 28 -25 34 0 9 39 56 47 56 2 0 3 -26 3 -57z m254 -770 c75 -116
136 -214 136 -218 0 -6 -304 -155 -315 -155 -3 0 -5 61 -5 136 0 87 -4 133
-10 129 -6 -4 -10 -63 -11 -143 l0 -137 -172 -83 -172 -83 -23 -75 c-13 -42
-21 -78 -19 -81 3 -2 24 9 48 26 39 26 54 30 124 32 46 2 79 -1 79 -7 -6 -40
-26 -159 -35 -202 -10 -49 -13 -54 -59 -77 -27 -14 -56 -25 -65 -25 -28 0
-365 191 -358 204 4 6 52 81 106 166 55 85 140 218 190 295 49 77 109 169 132
205 23 36 82 125 130 199 65 101 89 131 96 120 5 -8 9 -69 9 -137 0 -80 4
-121 10 -117 6 4 10 64 10 147 0 168 -20 181 174 -119z m-2354 25 c0 -6 -6 -5
-15 2 -8 7 -15 14 -15 16 0 2 7 1 15 -2 8 -4 15 -11 15 -16z m4304 7 c-4 -8
-11 -12 -16 -9 -6 4 -5 10 3 15 19 12 19 11 13 -6z m-3893 -225 l69 -41 -1
-157 c0 -105 -3 -150 -10 -137 -5 11 -42 102 -83 203 -48 119 -69 182 -60 178
9 -3 46 -24 85 -46z m3552 28 c-4 -7 -40 -93 -79 -190 -39 -98 -73 -176 -75
-174 -2 2 -3 71 -1 153 l3 148 67 37 c71 38 99 47 85 26z m-3289 -173 c91 -49
166 -93 166 -96 0 -12 -340 -147 -341 -135 -4 73 -2 325 3 323 4 -1 81 -42
172 -92z m1954 -86 c62 -96 134 -209 161 -251 l50 -76 -194 -106 c-106 -58
-198 -106 -203 -106 -6 0 -37 11 -70 26 l-58 25 -18 189 -17 188 108 146 c59
80 113 144 118 142 6 -1 61 -81 123 -177z m1157 -147 c-2 -3 -75 25 -161 62
-85 36 -160 66 -165 66 -28 0 8 24 159 106 l167 92 3 -160 c1 -89 0 -163 -3
-166z m-1475 104 c-16 -25 -34 -47 -39 -50 -10 -7 -184 54 -177 62 5 5 174 29
219 31 l28 1 -31 -44z m-1477 -114 c-9 -67 -20 -122 -25 -122 -5 0 -62 21
-126 46 -64 25 -128 50 -142 56 -22 8 -8 17 140 78 91 38 166 67 167 66 1 -1
-5 -57 -14 -124z m220 33 l69 -38 -78 -78 c-43 -43 -80 -77 -82 -74 -5 5 -82
265 -82 277 0 5 24 -4 53 -20 28 -16 83 -46 120 -67z m2322 -37 c-60 -197 -44
-187 -135 -88 l-79 84 122 67 c67 37 124 65 126 64 2 -2 -14 -59 -34 -127z
m248 60 c81 -34 144 -65 140 -69 -4 -4 -62 -29 -128 -54 -66 -26 -130 -51
-141 -55 -21 -8 -22 -5 -33 68 -26 187 -26 186 -5 178 10 -4 86 -34 167 -68z
m-1481 31 c45 -18 86 -35 90 -38 5 -4 -37 -28 -92 -53 l-100 -46 0 53 c0 49 9
115 15 115 2 0 41 -14 87 -31z m-117 -86 l-6 -53 -71 0 -70 0 74 81 c71 79 73
81 76 53 2 -16 1 -52 -3 -81z m-1116 -44 c22 -74 38 -135 37 -137 -2 -1 -29 9
-60 23 -55 24 -57 26 -51 58 8 49 25 170 25 186 0 29 11 1 49 -130z m1043 94
c-22 -27 -51 -58 -64 -70 l-24 -23 -18 31 c-10 17 -16 32 -14 34 8 7 144 74
151 75 5 0 -9 -21 -31 -47z m1497 -154 c1 -34 -2 -37 -51 -58 -28 -12 -53 -19
-55 -17 -4 4 59 222 74 256 7 16 31 -120 32 -181z m-2999 171 c0 -5 -2 -10 -4
-10 -3 0 -8 5 -11 10 -3 6 -1 10 4 10 6 0 11 -4 11 -10z m1805 -77 c-3 -21
-12 -121 -20 -223 -20 -238 -27 -311 -31 -307 -2 1 -39 107 -82 235 -54 157
-76 235 -69 240 23 15 183 90 195 91 9 1 11 -10 7 -36z m-1024 -55 l94 -52
-170 -33 c-93 -18 -170 -31 -171 -30 -2 2 115 129 152 166 1 0 43 -22 95 -51z
m1988 -30 c38 -40 68 -74 66 -76 -3 -3 -308 48 -313 53 -4 4 160 95 170 95 4
0 39 -33 77 -72z m-932 -106 l12 -127 -32 -90 c-17 -49 -33 -82 -35 -72 -2 9
4 93 12 185 9 92 16 185 16 206 0 78 15 22 27 -102z m-915 8 l31 -55 -28 -42
c-16 -24 -32 -43 -36 -43 -12 0 -323 122 -332 130 -9 8 275 69 311 66 18 -1
32 -15 54 -56z m672 -111 c9 -92 16 -177 15 -190 0 -27 -67 135 -68 166 -1 24
30 197 34 193 2 -2 11 -78 19 -169z m1080 141 c93 -16 171 -31 172 -33 4 -4
-270 -114 -295 -119 -9 -2 -32 22 -55 56 l-39 59 18 33 c10 19 21 34 24 34 3
0 82 -14 175 -30z m-1716 0 c28 -17 31 -23 22 -40 -13 -25 -22 -20 -49 25 -23
40 -19 43 27 15z m1501 -2 c-9 -16 -14 -19 -17 -9 -2 7 2 17 9 22 20 13 21 11
8 -13z m-715 -408 c-1 -3 -26 -4 -56 -2 l-55 4 -17 191 c-9 106 -16 201 -15
212 0 11 33 -74 73 -190 39 -115 71 -212 70 -215z m671 341 c-3 -8 -27 -50
-53 -94 l-47 -79 -140 7 c-77 4 -141 9 -143 10 -1 1 80 48 180 103 165 91 184
99 196 84 7 -9 10 -23 7 -31z m-1152 -99 l107 -59 -150 -7 c-83 -4 -154 -5
-158 -2 -4 2 -22 33 -41 69 l-34 64 22 32 22 31 62 -34 c34 -19 110 -61 170
-94z m1227 -3 c0 -8 -124 -59 -141 -59 -10 0 -1 16 59 114 l24 39 29 -44 c16
-24 29 -47 29 -50z m-1813 7 c1 -1 -4 -47 -12 -101 -8 -55 -15 -104 -15 -110
-2 -12 -80 215 -80 231 0 9 14 8 53 -3 28 -9 53 -16 54 -17z m333 -16 c11 -22
20 -42 20 -45 0 -7 -72 23 -83 34 -11 11 22 63 34 55 5 -3 18 -23 29 -44z
m1776 -69 c-22 -66 -42 -119 -43 -118 -8 8 -32 202 -26 208 7 7 71 25 99 28 5
1 -8 -53 -30 -118z m-75 -29 c9 -59 15 -109 12 -111 -11 -14 -153 157 -153
184 0 12 109 46 120 38 3 -3 12 -52 21 -111z m-1928 90 l67 -17 -91 -90 -91
-90 6 60 c15 134 19 155 30 155 6 0 41 -8 79 -18z m781 -98 c21 -52 36 -97 34
-99 -5 -5 -171 132 -176 144 -2 7 75 49 94 50 6 1 28 -42 48 -95z m377 67 l38
-17 -94 -78 c-52 -42 -95 -72 -95 -66 0 7 11 39 24 73 14 34 30 75 35 90 12
31 18 31 92 -2z m586 -13 c29 -33 86 -119 81 -123 -4 -5 -254 87 -263 97 -4 4
113 40 156 47 3 1 15 -9 26 -21z m-1688 -25 c-40 -69 -70 -103 -100 -119 -17
-8 -33 -13 -35 -11 -4 4 146 167 154 167 2 0 -6 -17 -19 -37z m152 20 c16 -3
29 -8 29 -12 0 -6 -149 -71 -163 -71 -3 0 8 23 25 51 27 43 35 49 56 44 13 -3
37 -9 53 -12z m450 -127 c27 -66 47 -121 45 -124 -4 -4 -297 165 -376 217 -24
15 -19 16 115 22 77 3 146 5 154 5 8 -1 34 -51 62 -120z m839 100 c-20 -19
-372 -227 -377 -223 -3 4 27 78 75 190 l21 47 148 0 c125 0 145 -2 133 -14z
m-1135 -117 l87 -122 -44 6 c-107 16 -365 57 -386 62 -23 6 -23 6 -5 36 10 17
23 35 30 41 15 12 204 96 220 97 6 1 50 -54 98 -120z m1335 52 c142 -55 180
-77 162 -92 -8 -7 -472 -83 -477 -78 -3 4 154 229 159 229 2 0 71 -27 156 -59z
m-1736 -76 c-4 -8 -18 -15 -33 -15 l-26 1 25 14 c32 18 41 18 34 0z m1115
-174 c-1 -67 -14 -198 -18 -179 -7 37 -63 287 -67 301 -4 14 5 10 40 -15 l46
-32 -1 -75z m897 2 c48 -76 115 -181 149 -233 34 -52 109 -167 165 -255 122
-190 172 -268 255 -395 33 -52 65 -101 69 -107 6 -10 -137 -13 -702 -13 l-709
0 -17 73 c-9 39 -43 191 -77 337 -53 233 -59 269 -49 302 12 43 -5 38 246 72
113 15 177 28 187 37 8 9 71 64 141 124 69 60 124 110 122 113 -8 8 -44 11
-161 12 -66 1 -111 5 -100 8 35 9 339 60 366 61 24 1 37 -15 115 -136z m-1828
105 c83 -12 152 -26 152 -30 0 -5 -52 -8 -115 -8 -63 0 -115 -4 -115 -8 0 -5
64 -64 141 -132 l141 -123 200 -26 200 -26 12 -30 c7 -16 11 -37 10 -45 -45
-219 -146 -666 -153 -673 -4 -4 -312 -6 -684 -5 l-677 3 52 80 c102 159 272
422 326 505 31 47 90 139 132 205 136 215 215 335 220 335 3 0 74 -10 158 -22z
m651 -127 c-16 -79 -31 -146 -33 -148 -2 -2 -9 48 -16 111 l-13 116 28 22 c44
35 60 47 62 45 1 -1 -12 -67 -28 -146z m76 59 l25 -73 -55 -74 c-31 -40 -57
-73 -59 -73 -4 0 0 18 34 188 13 62 25 111 26 109 2 -2 15 -37 29 -77z m125
-17 c12 -54 28 -125 35 -157 8 -32 10 -55 6 -50 -4 5 -34 42 -65 81 l-58 73
27 75 c15 41 29 75 31 75 1 0 12 -44 24 -97z m-550 33 c0 -6 -90 -219 -94
-224 -3 -2 -60 45 -129 105 -117 101 -123 108 -98 114 29 7 321 11 321 5z
m245 -5 c-16 -14 -285 -192 -300 -197 -9 -4 -2 23 22 78 19 45 39 93 44 106 8
21 13 22 126 22 67 0 113 -4 108 -9z m687 -33 c9 -24 28 -73 42 -110 l26 -67
-68 43 c-37 24 -112 73 -167 110 l-100 66 125 0 126 0 16 -42z m290 32 c31 0
47 -4 43 -10 -4 -6 -59 -56 -123 -111 -97 -84 -117 -97 -125 -83 -5 9 -25 55
-44 103 -19 47 -37 92 -40 100 -5 12 13 13 117 8 68 -4 145 -7 172 -7z m-236
-227 c-5 -6 -198 -34 -202 -30 -5 4 -114 238 -114 243 0 2 72 -44 160 -103 88
-58 158 -108 156 -110z m-736 203 c0 -2 -25 -57 -56 -121 -36 -76 -60 -115
-68 -112 -7 3 -44 8 -82 12 -121 13 -122 11 42 123 137 93 164 109 164 98z
m279 -157 c48 -62 59 -84 49 -90 -17 -11 -251 -12 -246 -1 8 19 122 172 128
172 4 0 35 -37 69 -81z m-109 -118 c0 -8 -64 -51 -76 -51 -3 0 -8 10 -13 23
-8 20 -5 22 38 28 25 3 47 7 49 7 1 1 2 -2 2 -7z m179 -21 c-6 -16 -13 -30
-15 -30 -7 0 -84 52 -84 56 0 2 25 4 54 4 l55 0 -10 -30z m-201 -157 c28 -43
52 -83 52 -88 0 -6 -43 -53 -95 -105 -52 -52 -95 -90 -95 -85 0 23 74 355 80
355 3 0 29 -35 58 -77z m220 -53 c12 -52 28 -124 36 -159 l15 -65 -95 95 c-54
53 -92 100 -89 107 3 7 26 43 51 79 33 45 49 61 54 51 4 -7 17 -56 28 -108z
m-35 -160 c48 -49 87 -94 87 -99 0 -8 -130 -75 -135 -69 -7 9 -51 258 -46 258
4 0 46 -40 94 -90z m-164 -34 c-12 -57 -25 -110 -29 -116 -5 -8 -26 -2 -70 20
l-63 32 89 89 c48 48 90 87 92 84 2 -2 -6 -51 -19 -109z m-91 -119 c30 -16 52
-34 52 -44 0 -40 -23 -144 -30 -136 -8 8 -90 200 -90 210 0 6 1 5 68 -30z
m342 19 c0 -2 -12 -30 -26 -62 -15 -33 -35 -79 -46 -104 l-21 -45 -17 80 c-10
44 -17 81 -16 82 3 3 112 51 119 52 4 1 7 -1 7 -3z m-382 -103 c22 -51 37 -93
34 -93 -4 1 -29 21 -55 45 l-49 45 12 51 c7 27 14 49 15 47 2 -2 21 -45 43
-95z m375 -45 c-26 -26 -51 -48 -55 -48 -4 0 12 41 35 92 l42 91 12 -44 13
-43 -47 -48z m-119 -20 c6 -57 6 -58 -20 -58 -19 0 -24 4 -20 18 3 9 10 37 16
61 6 23 13 41 14 40 2 -2 6 -30 10 -61z m-129 -15 c6 -40 5 -43 -15 -43 -20 0
-22 4 -16 31 3 17 6 43 6 58 1 37 16 8 25 -46z m-138 2 l48 -44 -66 -1 -67 0
9 38 c5 20 9 40 9 45 0 16 20 5 67 -38z m447 14 c11 -58 11 -59 -56 -59 l-62
0 44 45 c24 25 49 45 56 45 6 0 14 -14 18 -31z m-425 -126 c-59 -76 -153 -183
-156 -179 -3 2 5 48 17 100 l22 96 65 0 c61 0 64 -1 52 -17z m146 -26 c6 -38
0 -58 -46 -163 -50 -113 -78 -165 -66 -119 3 11 13 89 23 173 l17 152 33 0
c31 0 33 -2 39 -43z m133 -149 c12 -105 21 -193 19 -194 -2 -2 -31 66 -65 152
-58 145 -62 158 -52 195 10 35 14 39 44 39 l32 0 22 -192z m191 96 c13 -52 21
-97 19 -100 -3 -2 -33 28 -68 68 -35 40 -75 85 -89 101 l-25 27 70 0 70 0 23
-96z m-476 14 c-9 -24 -42 -104 -74 -178 l-57 -134 -11 40 c-28 104 -31 93 64
208 47 58 88 106 91 106 2 0 -4 -19 -13 -42z m484 -135 l25 -33 -17 -71 c-10
-39 -21 -67 -26 -62 -4 4 -39 85 -78 178 l-70 170 70 -75 c39 -41 82 -90 96
-107z m-242 -67 c47 -119 65 -173 59 -185 -14 -27 -307 -401 -312 -397 -2 2
33 156 78 343 93 388 100 416 105 412 2 -2 33 -80 70 -173z m-178 -188 c-34
-141 -65 -259 -68 -262 -3 -3 -2 20 2 52 5 31 13 102 19 157 9 81 20 121 57
208 25 59 47 107 48 105 2 -2 -25 -119 -58 -260z m268 -125 c8 -59 13 -108 12
-109 -85 -48 -341 -183 -343 -182 -1 2 65 89 148 193 82 105 152 196 155 203
10 23 15 4 28 -105z m30 -248 l7 -81 -80 -57 c-43 -31 -82 -57 -85 -57 -4 0
26 67 66 148 39 81 75 143 78 137 4 -5 10 -46 14 -90z m-231 -643 c27 -84 28
-94 21 -205 l-7 -117 -41 6 c-105 15 -245 81 -301 143 -16 18 -17 21 0 53 45
90 144 173 239 201 28 8 52 13 55 11 3 -1 19 -43 34 -92z m214 53 c76 -38 138
-99 174 -170 l21 -39 -39 -34 c-77 -67 -179 -113 -276 -126 l-48 -6 0 116 c0
103 3 124 31 204 23 67 36 90 49 90 9 0 49 -16 88 -35z"/>
<path d="M2287 4924 c-8 -8 1 -24 14 -24 5 0 9 7 9 15 0 15 -12 20 -23 9z"/>
<path d="M1962 5427 c-23 -23 -42 -47 -42 -53 0 -5 20 -30 45 -54 l45 -44 50
49 49 49 -42 47 c-23 26 -47 47 -52 48 -6 1 -30 -18 -53 -42z m90 -14 c15 -15
28 -31 28 -37 0 -14 -51 -66 -65 -66 -6 0 -25 15 -43 33 l-32 33 31 32 c38 39
45 39 81 5z"/>
<path d="M2190 1596 c0 -2 14 -14 30 -26 17 -12 30 -19 30 -16 0 2 -13 14 -30
26 -16 12 -30 19 -30 16z"/>
<path d="M1670 1173 c0 -13 5 -23 10 -23 13 0 13 11 0 30 -8 12 -10 11 -10 -7z"/>
<path d="M1684 1114 c3 -9 6 -18 6 -20 0 -3 4 -3 10 1 11 7 2 35 -12 35 -6 0
-7 -7 -4 -16z"/>
<path d="M1706 1056 c3 -9 11 -16 16 -16 13 0 5 23 -10 28 -7 2 -10 -2 -6 -12z"/>
<path d="M1730 1011 c0 -5 7 -14 15 -21 16 -14 18 -10 9 14 -6 17 -24 22 -24
7z"/>
<path d="M1770 964 c0 -17 17 -36 24 -26 3 5 -1 15 -9 22 -8 7 -15 9 -15 4z"/>
<path d="M1810 912 c0 -12 19 -26 26 -19 2 2 -2 10 -11 17 -9 8 -15 8 -15 2z"/>
<path d="M1902 828 c5 -15 28 -23 28 -10 0 5 -7 13 -16 16 -10 4 -14 1 -12 -6z"/>
<path d="M1955 790 c3 -5 14 -10 23 -10 15 0 15 2 2 10 -20 13 -33 13 -25 0z"/>
<path d="M2006 772 c-3 -6 1 -13 10 -16 23 -9 28 -2 10 13 -8 7 -17 8 -20 3z"/>
<path d="M2485 759 c-11 -17 0 -20 21 -4 17 13 17 14 2 15 -9 0 -20 -5 -23
-11z"/>
<path d="M2065 740 c3 -5 13 -10 21 -10 8 0 12 5 9 10 -3 6 -13 10 -21 10 -8
0 -12 -4 -9 -10z"/>
<path d="M2430 740 c-12 -8 -11 -10 8 -10 12 0 22 5 22 10 0 13 -11 13 -30 0z"/>
<path d="M2120 730 c0 -12 28 -21 35 -11 2 5 -4 11 -15 14 -11 3 -20 2 -20 -3z"/>
<path d="M2360 720 c0 -5 6 -10 14 -10 8 0 18 5 21 10 3 6 -3 10 -14 10 -12 0
-21 -4 -21 -10z"/>
<path d="M2188 713 c6 -2 18 -2 25 0 6 3 1 5 -13 5 -14 0 -19 -2 -12 -5z"/>
<path d="M2305 710 c3 -5 12 -7 20 -3 21 7 19 13 -6 13 -11 0 -18 -4 -14 -10z"/>
</g>
</svg>
