<?xml version="1.0" standalone="no"?>
<!DOCTYPE svg PUBLIC "-//W3C//DTD SVG 20010904//EN"
 "http://www.w3.org/TR/2001/REC-SVG-20010904/DTD/svg10.dtd">
<svg version="1.0" xmlns="http://www.w3.org/2000/svg"
 width="626.000000pt" height="626.000000pt" viewBox="0 0 626.000000 626.000000"
 preserveAspectRatio="xMidYMid meet">

<g transform="translate(0.000000,626.000000) scale(0.100000,-0.100000)"
fill="#000000" stroke="none">
<path d="M4900 5663 c-70 -11 -179 -66 -257 -130 -121 -97 -333 -424 -522
-802 -51 -101 -94 -181 -97 -179 -9 9 26 90 125 288 56 111 99 205 96 210 -3
5 0 12 6 16 8 4 9 3 5 -4 -4 -7 -5 -12 -2 -12 3 0 10 10 17 21 8 17 8 20 -1
14 -8 -5 -11 -3 -9 4 3 7 9 13 14 14 11 1 36 31 53 63 7 13 7 25 1 35 -8 12
-10 12 -8 -1 3 -30 -1 -39 -17 -33 -10 4 -15 1 -14 -8 1 -8 2 -21 1 -29 -1
-12 -4 -12 -15 3 -12 15 -15 16 -26 2 -11 -13 -10 -14 5 -9 13 5 16 3 11 -7
-3 -8 -9 -22 -12 -32 -9 -24 -30 -15 -27 12 2 13 -3 21 -12 21 -8 0 -20 10
-26 23 -6 12 -8 19 -4 15 4 -4 17 -3 29 3 20 10 20 10 2 -5 -23 -18 -14 -21
15 -6 10 6 19 17 19 25 0 18 -4 18 -33 5 -20 -9 -20 -9 -3 2 10 7 31 23 47 36
16 13 34 20 40 16 8 -5 9 -3 4 6 -6 10 -3 12 15 7 12 -3 34 -1 49 4 25 10 25
11 7 25 -11 7 -17 17 -13 20 4 4 15 1 24 -7 15 -11 16 -11 6 1 -10 11 -3 23
40 62 50 47 49 47 -34 -14 -47 -35 -139 -101 -205 -148 -65 -47 -182 -132
-259 -190 -77 -58 -162 -119 -190 -137 -27 -18 -45 -32 -40 -32 6 0 19 6 29
14 10 8 23 12 28 9 8 -5 -1 -25 -47 -100 l-18 -29 21 20 c11 11 36 46 55 77
26 43 37 55 44 45 6 -6 50 -79 98 -162 48 -82 91 -154 96 -159 5 -6 9 -25 9
-42 0 -41 -76 -308 -124 -436 -52 -139 -96 -282 -166 -547 -6 -24 -15 -40 -20
-35 -11 11 -90 222 -90 240 0 7 44 84 99 171 108 174 166 273 158 273 -3 0
-60 -91 -128 -202 l-124 -201 -3 64 c-2 35 1 159 7 274 6 116 10 300 9 410
l-2 200 -6 -265 c-4 -146 -13 -368 -19 -495 l-13 -230 -50 -128 c-28 -70 -55
-130 -59 -133 -10 -6 -49 69 -77 147 -11 30 -36 91 -55 137 l-35 83 28 92 c16
51 47 162 70 247 24 85 65 229 92 320 92 304 106 355 112 395 7 44 -128 -387
-170 -544 -8 -29 -18 -59 -21 -65 -4 -6 -9 -20 -10 -30 -5 -27 -13 -33 -14
-10 0 18 -1 18 -9 -1 -8 -18 -9 -18 -9 5 -1 20 -3 22 -12 10 -8 -11 -12 -12
-16 -2 -2 6 -22 15 -44 18 -21 4 -39 12 -39 18 0 6 -4 5 -9 -3 -5 -8 -16 -16
-24 -17 -12 -1 -9 13 13 62 30 67 33 88 4 32 -9 -18 -20 -35 -23 -38 -4 -3
-24 -31 -44 -62 -37 -57 -63 -71 -92 -50 -14 9 -112 164 -216 339 -46 78 -85
141 -86 139 -2 -2 8 -72 21 -157 50 -310 102 -726 92 -737 -7 -6 -7 -7 -51
153 -20 72 -67 225 -105 340 -38 116 -79 248 -90 295 -12 46 -26 91 -31 100
-12 21 -11 12 6 -44 8 -27 15 -73 15 -103 0 -36 4 -53 13 -53 20 -1 227 -664
227 -730 0 -37 -113 -270 -130 -270 -4 0 -27 65 -53 144 l-47 145 6 345 c4
242 2 346 -5 346 -7 0 -10 -43 -9 -127 3 -245 -2 -523 -9 -523 -9 1 -16 12
-154 232 -54 86 -135 228 -180 317 l-82 160 89 175 c49 97 91 176 94 176 3 0
25 -38 50 -84 24 -47 46 -83 48 -82 1 2 -21 51 -49 109 l-51 106 -132 99
c-292 221 -511 379 -500 360 5 -7 20 -31 35 -53 98 -146 299 -541 379 -745 35
-90 6 -43 -50 80 -56 123 -174 349 -273 520 -135 235 -201 314 -332 396 -94
58 -169 84 -245 84 -71 0 -82 -11 -102 -110 -15 -76 -16 -550 0 -695 l9 -90 2
84 c0 46 4 81 8 77 4 -4 13 -62 19 -129 15 -149 18 -355 5 -341 -6 5 -12 34
-14 64 -2 30 -2 -39 1 -155 3 -115 9 -221 14 -235 22 -59 88 -427 88 -491 0
-38 4 -69 9 -69 5 0 13 -9 16 -21 6 -19 8 -18 23 10 10 16 55 73 102 126 47
53 95 114 108 137 12 23 62 81 110 130 116 118 116 122 2 13 -52 -50 -108
-102 -123 -115 l-28 -24 -139 139 c-77 77 -140 143 -140 147 0 7 31 14 417 88
240 47 275 56 295 78 l23 24 -54 -7 c-30 -4 -137 -10 -238 -14 -147 -5 -186
-9 -193 -21 -13 -20 -13 -33 0 -25 6 3 10 1 10 -4 0 -6 -9 -11 -21 -11 -13 0
-18 -4 -13 -12 5 -8 0 -9 -14 -6 -14 4 -20 2 -15 -5 4 -6 -2 -8 -15 -5 -12 4
-20 2 -16 -3 3 -5 -23 -9 -58 -9 -46 0 -59 -3 -48 -11 12 -8 10 -9 -10 -7 -14
1 -31 -1 -38 -6 -7 -4 -16 -6 -19 -3 -3 3 -8 65 -11 137 -4 115 -3 130 11 124
9 -3 18 -24 22 -53 3 -26 10 -53 14 -59 6 -10 72 -10 312 -2 339 12 412 17
404 31 -3 5 0 6 8 3 8 -3 43 22 83 58 110 100 109 100 79 32 -15 -32 -52 -115
-82 -184 -110 -252 -219 -438 -353 -605 -75 -94 -113 -145 -108 -145 3 0 33
37 68 83 35 45 78 96 96 113 l33 32 225 -83 c309 -113 455 -202 482 -295 7
-24 11 -46 9 -48 -2 -3 -22 11 -45 31 -22 19 -77 53 -121 76 -71 36 -89 41
-147 41 -128 0 -405 -56 -622 -126 -47 -15 -93 -28 -102 -29 -10 -1 -57 -55
-105 -121 l-88 -119 -5 95 -5 95 -6 -115 c-6 -103 -12 -133 -62 -290 -31 -97
-72 -214 -90 -260 -33 -80 -34 -85 -15 -88 10 -2 105 4 210 13 105 9 205 16
222 15 52 -3 52 -1 -4 35 l-55 34 45 1 c48 0 401 -27 459 -35 42 -6 45 -9 31
-34 -9 -18 -8 -21 12 -22 15 -1 11 -4 -12 -8 -26 -5 1 -10 99 -19 73 -7 147
-15 165 -19 23 -4 7 9 -59 49 -128 77 -200 88 -760 110 -165 6 -301 12 -303
14 -7 5 101 330 113 340 8 6 12 19 9 30 -3 13 23 58 87 144 50 69 93 126 94
128 11 13 360 95 455 107 62 8 62 9 -27 -59 -34 -25 -68 -52 -75 -59 -7 -7
-26 -22 -43 -33 -29 -18 -146 -102 -154 -110 -2 -2 12 -4 31 -4 25 0 49 10 82
36 65 49 92 45 116 -19 10 -27 30 -64 45 -83 25 -33 108 -95 171 -127 45 -23
174 -55 272 -67 46 -6 101 -20 122 -30 45 -23 105 -91 122 -137 7 -18 15 -33
19 -33 3 0 19 34 34 75 15 41 31 77 35 80 9 5 130 -202 130 -222 0 -7 -25 -20
-56 -30 l-56 -17 -19 26 c-11 15 -29 37 -40 50 -19 21 -18 19 2 -17 13 -22 42
-68 66 -103 24 -35 43 -67 43 -71 0 -5 -35 8 -77 29 -96 46 -214 93 -219 87
-2 -2 46 -25 108 -52 62 -26 133 -58 158 -71 43 -23 44 -24 15 -24 -17 0 -73
7 -125 15 -52 8 -111 14 -130 13 -26 0 -28 -2 -10 -5 14 -2 85 -13 159 -25 96
-15 139 -18 151 -11 14 9 19 3 34 -39 17 -50 69 -108 165 -187 23 -18 41 -38
41 -44 0 -5 20 -32 45 -58 49 -52 55 -79 27 -107 -28 -28 -159 -98 -238 -128
-81 -30 -86 -33 -79 -44 3 -5 60 17 128 48 115 53 127 56 202 56 76 1 87 -2
214 -57 123 -53 161 -65 129 -40 -7 5 -35 18 -63 27 -57 21 -159 75 -222 118
-56 38 -58 70 -7 119 20 18 44 51 55 71 10 20 31 45 45 55 63 44 106 89 138
147 l35 63 83 6 c101 7 290 36 308 47 10 6 1 24 -34 68 l-47 60 -85 7 c-46 4
-86 10 -88 13 -2 4 11 18 30 32 18 14 38 39 44 57 16 46 86 121 139 148 26 13
76 29 112 35 118 22 244 60 289 88 24 15 75 63 113 107 59 69 75 81 111 88 48
9 192 5 221 -7 11 -4 -17 12 -62 37 -74 39 -256 170 -283 201 -21 26 413 -76
466 -109 24 -15 174 -208 174 -224 0 -7 -8 -7 -25 -1 -35 13 -31 6 10 -19 39
-22 44 -38 18 -48 -10 -3 -106 -49 -213 -102 -107 -53 -281 -137 -387 -186
-106 -50 -192 -94 -193 -98 0 -4 8 -4 18 1 17 9 66 20 132 29 58 7 85 12 90
13 3 1 15 2 28 2 21 0 21 1 1 5 -13 3 -19 10 -15 20 3 8 6 19 6 24 0 6 10 8
23 4 17 -5 19 -4 7 4 -12 8 -9 12 18 17 18 4 30 9 28 12 -7 6 59 42 77 42 8 0
24 9 37 20 13 12 30 18 37 16 7 -3 13 -2 13 3 0 14 100 61 118 55 13 -5 14 -4
3 4 -11 8 -10 11 5 16 11 3 23 5 28 5 5 0 12 3 15 8 3 5 32 24 64 41 44 25 56
28 48 15 -11 -21 -174 -252 -191 -270 -6 -7 -7 -13 -3 -13 4 0 1 -5 -7 -10
-10 -6 46 -9 162 -7 98 1 178 3 178 5 0 5 -87 316 -102 367 -7 22 -50 89 -96
148 -66 86 -81 113 -76 130 4 12 22 59 41 105 19 46 33 88 31 94 -2 6 -21 -33
-43 -87 -35 -86 -62 -124 -78 -109 -7 7 -177 59 -327 99 -146 39 -263 61 -375
70 -78 7 -82 6 -150 -29 -38 -20 -93 -54 -122 -76 -28 -22 -54 -40 -57 -40
-12 0 9 77 26 97 11 12 69 56 128 97 105 74 114 78 322 145 117 38 222 71 232
73 15 2 39 -24 98 -107 154 -216 221 -306 231 -312 6 -4 7 -1 2 8 -27 45 -258
377 -310 444 -91 118 -145 204 -223 360 -70 139 -175 375 -169 381 1 2 46 -35
100 -80 l97 -83 102 -7 c192 -12 453 -26 511 -26 31 0 57 -4 57 -10 0 -17
-333 -6 -570 19 -41 5 -76 8 -77 7 -3 -2 303 -355 356 -411 27 -27 97 -119
157 -203 133 -188 136 -188 145 11 5 99 16 171 43 286 31 131 37 177 42 320 5
156 4 165 -11 146 -16 -19 -17 -19 -11 10 11 60 45 312 52 395 6 65 10 78 15
55 10 -42 13 40 13 365 1 232 -1 272 -17 317 -16 46 -23 54 -55 63 -37 10 -57
11 -102 3z m-3479 -125 c153 -92 254 -199 394 -413 200 -309 368 -595 349
-595 -4 0 -66 24 -138 54 -196 82 -242 99 -228 85 7 -8 12 -38 12 -71 l0 -59
-35 3 c-19 1 -38 -2 -42 -7 -4 -4 -1 -6 8 -3 9 4 16 1 16 -7 0 -11 -5 -11 -19
-4 -11 6 -17 17 -14 24 6 16 -18 27 -39 19 -8 -4 -22 -1 -30 6 -9 7 -18 11
-20 8 -5 -5 157 -110 283 -183 45 -26 80 -50 78 -53 -5 -4 -193 97 -300 160
-39 24 -51 27 -58 16 -8 -10 -9 -9 -5 4 4 9 -1 19 -10 23 -21 7 -37 -17 -20
-30 6 -5 12 -17 12 -25 0 -8 14 -19 30 -24 60 -18 61 -18 48 -23 -10 -3 -9 -9
3 -20 14 -15 13 -18 -13 -34 -16 -10 -67 -23 -121 -30 -76 -10 -90 -14 -81
-25 10 -12 -3 -14 -74 -14 l-85 0 -6 38 c-15 96 -57 447 -76 631 -22 222 -26
361 -10 361 6 0 10 7 10 15 0 39 84 215 102 215 4 0 40 -19 79 -42z m3499 -15
c47 -60 93 -207 105 -338 12 -136 -60 -780 -95 -845 -13 -24 -55 -26 -225 -10
-109 10 -165 24 -165 41 0 5 -7 9 -15 9 -22 0 -18 15 8 34 l22 17 -22 -6 c-18
-5 -22 -3 -17 9 4 11 1 16 -10 16 -20 0 -21 14 -1 30 8 7 13 16 10 20 -7 11
62 72 202 177 150 113 273 223 248 223 -4 0 -23 -17 -43 -37 -20 -21 -62 -57
-93 -80 -31 -23 -62 -47 -70 -55 -22 -21 -116 -88 -123 -88 -4 0 -4 4 -1 10 3
6 -1 7 -10 3 -11 -4 -13 -8 -6 -13 7 -4 -5 -20 -31 -40 -23 -19 -38 -28 -34
-21 4 6 3 17 -2 24 -6 7 -10 17 -11 22 0 12 -61 26 -74 18 -5 -3 -12 -1 -16 5
-6 11 -120 -25 -295 -92 -38 -15 -70 -25 -72 -23 -3 2 15 37 39 78 25 41 72
126 107 189 71 131 206 339 290 450 55 72 173 195 215 224 36 25 138 76 151
76 7 0 22 -12 34 -27z m-560 -265 c-15 -6 -27 -5 -34 3 -8 9 -7 10 7 6 9 -4
17 -2 17 3 0 5 7 7 17 3 14 -5 12 -8 -7 -15z m-216 -153 c-10 -8 -23 -15 -28
-15 -6 0 -1 7 10 15 10 8 23 15 28 15 6 0 1 -7 -10 -15z m12 -20 c-1 -8 -5
-17 -8 -21 -5 -4 -4 16 1 34 3 9 9 -1 7 -13z m-1329 -477 c-3 -8 -6 -5 -6 6
-1 11 2 17 5 13 3 -3 4 -12 1 -19z m29 -30 c4 -7 3 -8 -4 -4 -7 4 -12 2 -12
-5 0 -7 -3 -10 -6 -6 -6 5 3 27 11 27 2 0 7 -5 11 -12z m-9 -80 c-3 -8 -6 -5
-6 6 -1 11 2 17 5 13 3 -3 4 -12 1 -19z m50 15 c-4 -3 -2 -12 5 -20 8 -10 8
-17 1 -24 -8 -8 -15 -5 -23 11 -10 18 -9 24 1 31 17 10 25 12 16 2z m-567
-198 c45 -88 111 -203 146 -256 35 -53 88 -139 119 -190 58 -99 58 -99 25
-174 -10 -22 -32 -77 -50 -122 -18 -46 -35 -83 -39 -83 -4 0 -14 30 -22 68
-36 149 -131 471 -160 542 -64 157 -139 412 -112 385 6 -5 47 -82 93 -170z
m537 123 c-3 -7 -5 -2 -5 12 0 14 2 19 5 13 2 -7 2 -19 0 -25z m1559 -197 c63
-20 182 -47 447 -102 59 -12 107 -25 107 -28 0 -9 -132 -136 -212 -205 l-66
-57 -104 114 c-154 169 -274 311 -256 305 9 -4 46 -16 84 -27z m-2074 -407
c15 -104 31 -218 34 -254 l7 -64 -27 17 c-15 10 -93 43 -174 73 -81 30 -185
68 -232 86 -47 17 -89 35 -94 39 -16 14 46 79 123 130 81 55 310 171 325 166
6 -2 22 -89 38 -193z m1696 155 c227 -106 272 -132 328 -191 31 -32 55 -60 53
-62 -2 -2 -65 -22 -139 -46 -244 -76 -324 -107 -395 -154 -64 -42 -85 -52 -85
-42 0 2 16 37 35 77 29 64 38 100 61 267 21 144 31 192 41 192 8 0 53 -18 101
-41z m-968 2 c0 -6 -4 -13 -10 -16 -19 -11 -10 -27 11 -22 19 5 19 3 -6 -23
-28 -29 -28 -30 -10 -50 10 -11 25 -20 33 -20 12 0 12 4 -3 20 -18 20 -18 21
3 43 l22 21 0 -146 c0 -167 6 -158 -105 -157 -43 0 -54 3 -40 9 19 8 19 9 -2
9 -13 1 -23 -3 -23 -9 0 -5 -5 -10 -11 -10 -5 0 -7 5 -4 10 3 6 2 10 -3 10 -6
0 -12 -7 -16 -15 -7 -18 -36 -20 -36 -2 0 6 7 21 15 31 8 11 15 27 15 35 0 14
41 99 96 201 37 68 74 109 74 81z m90 -11 c0 9 7 7 20 -5 20 -18 21 -18 14 1
-5 15 -1 14 15 -6 29 -35 177 -338 169 -345 -2 -2 -26 1 -54 5 -29 5 -78 10
-110 11 -33 1 -65 4 -71 7 -10 3 -13 47 -13 174 0 150 2 169 15 158 12 -10 15
-10 15 0z m-466 -358 c21 -64 47 -137 58 -161 21 -46 108 -407 128 -526 10
-64 9 -80 -15 -179 -36 -150 -36 -151 -78 -85 -54 85 -65 111 -102 238 -19 66
-55 178 -79 249 -24 72 -52 167 -61 212 l-17 82 57 144 c31 79 60 144 63 144
4 0 24 -53 46 -118z m960 -76 c25 -71 46 -145 46 -165 0 -20 -12 -67 -26 -106
-66 -180 -102 -287 -124 -374 -18 -70 -39 -117 -80 -185 -30 -50 -59 -91 -65
-91 -5 0 -26 61 -47 135 l-37 135 19 65 c11 36 46 155 79 265 32 110 77 238
98 285 22 47 48 107 58 133 10 26 21 44 25 40 5 -4 29 -66 54 -137z m-291 59
c9 -4 17 -10 17 -14 0 -4 -58 -68 -128 -142 l-129 -134 -142 134 c-78 74 -140
139 -138 145 2 6 26 14 53 18 62 8 443 3 467 -7z m97 -167 c0 -22 -90 -347
-105 -377 l-12 -24 -37 48 c-28 37 -35 56 -33 79 3 17 2 23 0 14 -2 -10 -8
-18 -12 -18 -9 0 -60 54 -96 103 l-28 38 44 47 c24 26 77 81 118 124 41 42 79
85 84 94 8 15 16 7 43 -47 18 -35 33 -71 34 -81z m-487 0 l138 -131 -29 -31
c-16 -17 -40 -45 -53 -62 -73 -94 -141 -174 -147 -174 -4 0 -20 55 -35 123
-16 67 -39 162 -52 212 l-24 89 30 53 c17 29 31 53 32 53 1 0 64 -59 140 -132z
m-722 -285 c0 -87 4 -178 8 -203 7 -44 7 -44 14 -15 12 51 26 177 28 245 0 36
4 74 7 86 7 20 8 20 75 4 37 -9 77 -26 90 -38 13 -12 28 -22 35 -22 6 0 18
-10 26 -22 9 -12 16 -18 16 -13 1 28 20 -25 20 -55 0 -91 -59 -178 -152 -224
-107 -54 -243 -22 -346 81 -65 66 -95 130 -100 220 -4 72 -4 73 24 84 33 13
124 26 202 28 l52 1 1 -157z m1941 118 c37 -10 69 -16 72 -14 2 2 9 -10 15
-27 37 -107 -90 -283 -247 -343 -64 -25 -166 -22 -227 7 -89 42 -135 107 -135
189 0 45 4 49 80 90 19 11 44 27 55 37 28 26 105 64 112 56 5 -5 15 -109 33
-346 1 -8 6 -4 12 10 6 14 13 95 16 181 l5 156 46 10 c68 15 89 14 163 -6z
m-1119 -58 c-8 -21 -20 -41 -26 -45 -18 -11 -5 -17 25 -11 15 3 29 13 31 22 3
9 5 -52 6 -136 l1 -151 78 -104 c42 -57 99 -134 126 -171 60 -83 79 -95 24
-15 -10 15 -17 33 -16 40 2 7 -2 12 -8 11 -7 -1 -31 26 -55 60 -23 34 -55 77
-71 95 -27 32 -38 59 -18 47 6 -3 10 -1 10 5 0 7 -7 10 -14 7 -10 -4 -13 -1
-9 9 4 11 8 12 20 3 7 -7 11 -19 8 -27 -8 -21 36 -67 48 -50 6 9 7 7 3 -5 -8
-25 4 -44 15 -26 6 10 8 7 7 -10 -2 -13 3 -26 10 -28 7 -3 12 3 12 14 1 17 1
17 11 1 5 -10 21 -18 33 -18 22 0 26 -8 41 -77 9 -43 19 -86 21 -95 3 -10 1
-18 -4 -18 -6 0 -1 -17 9 -37 26 -50 26 -142 0 -174 -18 -22 -19 -22 -54 -6
-41 20 -80 21 -158 5 -46 -9 -72 -9 -123 1 -91 18 -130 16 -164 -8 -36 -25
-45 -17 -63 51 -11 40 -10 63 10 175 13 70 32 170 44 221 19 84 19 101 8 167
l-12 74 70 83 c39 46 80 89 91 96 11 7 20 18 20 25 0 11 19 37 26 37 2 0 -4
-17 -13 -37z m77 -333 c0 -5 -4 -10 -10 -10 -5 0 -10 5 -10 10 0 6 5 10 10 10
6 0 10 -4 10 -10z m1837 -97 c-3 -10 -5 -4 -5 12 0 17 2 24 5 18 2 -7 2 -21 0
-30z m-1407 -68 c16 -32 30 -65 30 -73 0 -8 -14 -28 -31 -44 -25 -25 -35 -28
-62 -22 -40 8 -89 33 -85 43 18 43 103 170 109 164 5 -5 22 -35 39 -68z m-243
33 c-3 -8 -6 -5 -6 6 -1 11 2 17 5 13 3 -3 4 -12 1 -19z m1671 -29 c-3 -8 -7
-3 -11 10 -4 17 -3 21 5 13 5 -5 8 -16 6 -23z m32 -74 c0 -5 -5 -3 -10 5 -5 8
-10 20 -10 25 0 6 5 3 10 -5 5 -8 10 -19 10 -25z m-658 -2 c-6 -3 -9 -9 -6
-15 4 -6 -1 -8 -15 -3 -12 3 -21 2 -21 -4 0 -5 -9 -9 -20 -8 -11 1 -20 3 -20
5 0 7 85 40 90 35 3 -3 -1 -8 -8 -10z m-908 -72 c4 -5 -3 -7 -14 -4 -23 6 -26
13 -6 13 8 0 17 -4 20 -9z m61 -21 c3 -5 2 -10 -4 -10 -5 0 -13 5 -16 10 -3 6
-2 10 4 10 5 0 13 -4 16 -10z m-1441 -29 c-2 -3 -12 3 -22 13 -16 17 -16 18 5
5 12 -7 20 -15 17 -18z m1633 7 c24 -12 88 -86 80 -94 -9 -9 -157 -33 -247
-40 l-94 -7 22 34 c12 19 27 33 33 31 6 -1 8 2 4 7 -3 6 6 29 20 51 l26 41 67
-6 c37 -3 77 -11 89 -17z"/>
<path d="M1923 4895 c0 -8 4 -12 9 -9 5 3 6 10 3 15 -9 13 -12 11 -12 -6z"/>
<path d="M1939 4873 c-1 -4 -1 -11 0 -15 0 -4 -6 -5 -14 -2 -17 7 -18 -5 -6
-59 5 -21 7 -36 4 -33 -9 8 -34 -15 -27 -25 2 -5 -7 -11 -21 -15 -31 -8 -34
-24 -2 -18 15 3 13 1 -7 -7 -27 -11 -24 -13 114 -75 78 -35 146 -64 152 -64 5
0 -6 29 -26 65 -56 102 -139 225 -148 219 -4 -3 -5 1 -2 9 3 8 1 18 -5 22 -6
3 -12 3 -12 -2z"/>
<path d="M1320 4840 c8 -5 20 -10 25 -10 6 0 3 5 -5 10 -8 5 -19 10 -25 10 -5
0 -3 -5 5 -10z"/>
<path d="M1280 4820 c0 -5 9 -18 21 -29 13 -12 18 -24 13 -32 -5 -9 -9 -8 -15
7 -11 28 -10 -28 1 -86 l9 -45 -4 52 c-3 44 -1 55 17 67 20 14 20 15 -11 45
-17 17 -31 26 -31 21z"/>
<path d="M1345 4749 c-5 -7 -4 -10 3 -5 6 3 13 -3 17 -14 3 -11 11 -20 16 -20
14 0 11 9 -10 31 -14 15 -21 17 -26 8z"/>
<path d="M1311 4604 c0 -11 3 -14 6 -6 3 7 2 16 -1 19 -3 4 -6 -2 -5 -13z"/>
<path d="M4259 4802 c-9 -15 -45 -73 -79 -130 -35 -56 -61 -104 -59 -106 4 -3
171 67 224 94 19 10 19 10 -2 6 -14 -2 -23 1 -23 8 0 7 -9 21 -20 31 -11 10
-20 26 -20 37 0 10 -5 18 -10 18 -7 0 -7 7 0 21 18 33 8 53 -11 21z"/>
<path d="M4560 4640 c0 -5 7 -7 15 -4 20 8 19 -6 -2 -22 -10 -7 -13 -14 -7
-14 17 0 37 27 29 40 -8 13 -35 13 -35 0z"/>
<path d="M4907 4382 c-14 -30 -17 -32 -12 -9 7 36 0 35 -14 -3 -9 -26 -8 -30
9 -30 12 0 22 12 30 36 16 48 8 52 -13 6z"/>
<path d="M2886 4487 c3 -10 9 -15 12 -12 3 3 0 11 -7 18 -10 9 -11 8 -5 -6z"/>
<path d="M3006 3874 c-3 -9 -2 -12 5 -8 7 4 9 -6 7 -27 -2 -24 -10 -37 -28
-46 -14 -7 -19 -13 -12 -13 17 0 15 -25 -4 -41 -13 -10 -17 -10 -26 2 -7 10
-8 6 -4 -16 6 -29 6 -29 -10 -10 -15 18 -16 18 -10 1 3 -10 1 -25 -5 -32 -9
-11 -7 -14 7 -15 35 -2 77 3 98 11 13 5 -1 7 -39 5 -40 -3 -49 -2 -26 3 29 6
36 13 48 52 25 83 31 125 17 138 -9 8 -14 8 -18 -4z"/>
<path d="M2981 3817 c-13 -21 -12 -21 5 -5 10 10 16 20 13 22 -3 3 -11 -5 -18
-17z"/>
<path d="M2890 3649 c0 -5 5 -7 10 -4 6 3 10 8 10 11 0 2 -4 4 -10 4 -5 0 -10
-5 -10 -11z"/>
<path d="M3038 3653 c6 -2 18 -2 25 0 6 3 1 5 -13 5 -14 0 -19 -2 -12 -5z"/>
<path d="M3260 3656 c0 -2 18 -6 39 -8 22 -2 37 0 35 4 -5 8 -74 11 -74 4z"/>
<path d="M3027 3163 c-4 -3 -7 -11 -7 -17 0 -6 5 -5 12 2 6 6 9 14 7 17 -3 3
-9 2 -12 -2z"/>
<path d="M3330 2710 c0 -5 5 -10 10 -10 6 0 10 5 10 10 0 6 -4 10 -10 10 -5 0
-10 -4 -10 -10z"/>
<path d="M3550 2440 c-13 -8 -13 -10 2 -10 9 0 20 5 23 10 8 13 -5 13 -25 0z"/>
<path d="M3510 2419 c0 -5 5 -7 10 -4 6 3 10 8 10 11 0 2 -4 4 -10 4 -5 0 -10
-5 -10 -11z"/>
<path d="M4350 5220 c-6 -11 -8 -20 -6 -20 3 0 10 9 16 20 6 11 8 20 6 20 -3
0 -10 -9 -16 -20z"/>
<path d="M3530 4810 c-6 -11 -8 -20 -6 -20 3 0 10 9 16 20 6 11 8 20 6 20 -3
0 -10 -9 -16 -20z"/>
<path d="M3500 4759 c-7 -11 -10 -23 -7 -25 2 -2 9 7 15 21 14 30 7 33 -8 4z"/>
<path d="M1213 4665 c0 -33 2 -45 4 -27 2 18 2 45 0 60 -2 15 -4 0 -4 -33z"/>
<path d="M3661 4674 c0 -11 3 -14 6 -6 3 7 2 16 -1 19 -3 4 -6 -2 -5 -13z"/>
<path d="M3305 4430 c-3 -5 -1 -10 4 -10 6 0 11 5 11 10 0 6 -2 10 -4 10 -3 0
-8 -4 -11 -10z"/>
<path d="M1619 3463 c-13 -16 -12 -17 4 -4 9 7 17 15 17 17 0 8 -8 3 -21 -13z"/>
<path d="M1569 3393 c-13 -16 -12 -17 4 -4 16 13 21 21 13 21 -2 0 -10 -8 -17
-17z"/>
<path d="M4759 3173 l-24 -28 28 24 c25 23 32 31 24 31 -2 0 -14 -12 -28 -27z"/>
<path d="M4699 3103 c-45 -52 -64 -79 -29 -43 41 43 64 70 58 70 -2 0 -15 -12
-29 -27z"/>
<path d="M4793 2953 c20 -2 54 -2 75 0 20 2 3 4 -38 4 -41 0 -58 -2 -37 -4z"/>
<path d="M1310 2935 c0 -11 14 -49 30 -83 17 -35 28 -67 26 -71 -3 -4 0 -13 6
-21 8 -12 9 -12 4 3 -11 35 3 15 28 -39 31 -68 32 -77 4 -44 -16 19 -20 20
-14 6 4 -12 2 -23 -6 -28 -8 -5 2 -8 27 -9 l40 -2 -40 -6 -40 -7 53 -5 c28 -2
52 -1 52 3 0 3 -28 55 -62 115 -33 59 -72 131 -84 158 -14 29 -24 42 -24 30z"/>
<path d="M1375 2935 c11 -9 75 -45 142 -80 68 -36 131 -69 140 -75 70 -39 440
-210 452 -208 16 3 -98 61 -414 210 -115 55 -239 115 -275 134 -36 20 -56 28
-45 19z"/>
<path d="M4820 2599 c-338 -8 -650 -36 -731 -64 -42 -15 -153 -85 -145 -92 1
-2 25 1 52 7 184 37 867 59 1067 34 42 -6 77 -8 77 -5 -1 3 -15 33 -33 66
l-32 60 -255 -6z"/>
<path d="M2008 2523 c6 -2 18 -2 25 0 6 3 1 5 -13 5 -14 0 -19 -2 -12 -5z"/>
<path d="M1885 2490 l-50 -7 68 -1 c43 -1 66 2 62 8 -3 6 -12 9 -18 8 -7 0
-34 -4 -62 -8z"/>
<path d="M1405 2475 c-82 -7 -181 -14 -218 -14 -40 -1 -66 -5 -62 -10 10 -17
186 -115 254 -142 50 -20 65 -31 66 -47 1 -19 0 -20 -14 -8 -28 24 -101 67
-101 59 0 -5 15 -17 33 -29 18 -12 77 -58 131 -103 l98 -82 82 7 c44 3 166 11
270 18 l188 11 -103 70 c-57 39 -106 73 -109 76 -3 3 -68 49 -146 102 -104 71
-151 97 -180 101 -21 2 -106 -2 -189 -9z m175 -330 c11 -13 10 -14 -4 -9 -9 3
-16 10 -16 15 0 13 6 11 20 -6z"/>
<path d="M4489 2476 c-2 -2 -125 -14 -274 -26 -165 -13 -281 -27 -299 -36 -16
-7 -33 -11 -38 -7 -17 10 1 -15 99 -138 l92 -116 83 -11 c46 -6 151 -16 233
-22 83 -6 177 -16 209 -21 l59 -10 107 65 c60 36 130 81 157 101 26 19 79 57
117 85 109 79 65 58 -58 -28 -111 -78 -182 -123 -266 -170 -43 -24 -44 -24
-25 -3 16 19 17 24 5 31 -11 7 -12 10 -2 10 7 0 11 4 7 9 -3 5 0 13 6 16 5 4
8 13 5 20 -8 21 11 31 191 104 92 38 185 76 206 85 23 10 36 12 32 6 -6 -9 -2
-9 14 -1 50 27 32 31 -264 51 -168 12 -312 13 -317 3 -4 -10 -115 -106 -233
-202 l-90 -73 69 63 c110 102 178 162 216 191 l35 28 -36 0 c-20 0 -38 -2 -40
-4z"/>
<path d="M1690 2463 c8 -3 22 -11 30 -17 13 -10 13 -9 1 7 -7 9 -21 17 -30 16
-13 0 -14 -1 -1 -6z"/>
<path d="M1773 2453 c9 -2 25 -2 35 0 9 3 1 5 -18 5 -19 0 -27 -2 -17 -5z"/>
<path d="M1888 2443 c30 -2 50 -8 47 -14 -4 -5 -1 -9 4 -9 6 0 11 -8 11 -18 0
-24 19 -42 36 -35 8 3 14 -1 14 -11 0 -9 -6 -16 -12 -16 -7 0 1 -9 17 -20 17
-11 26 -20 20 -21 -50 -4 -84 -15 -74 -22 43 -34 199 -136 214 -141 16 -5 39
16 120 111 55 65 111 129 125 143 l25 25 -50 2 c-27 1 -146 9 -262 17 -117 9
-230 15 -250 14 -29 -1 -25 -3 15 -5z"/>
<path d="M1894 2328 c10 -6 22 -6 26 -2 5 5 -3 10 -18 11 -22 1 -24 0 -8 -9z"/>
<path d="M1948 2323 c7 -3 16 -2 19 1 4 3 -2 6 -13 5 -11 0 -14 -3 -6 -6z"/>
<path d="M4094 2119 c3 -8 9 -21 12 -30 4 -11 37 -24 97 -39 51 -12 143 -39
204 -59 l113 -37 56 57 56 57 -114 16 c-62 8 -174 20 -248 26 -74 6 -146 14
-159 17 -18 4 -22 2 -17 -8z"/>
<path d="M2010 2109 c-63 -4 -167 -13 -230 -20 -63 -7 -123 -12 -132 -11 -27
1 -22 -8 38 -69 l56 -56 88 33 c74 28 203 64 312 88 20 5 25 10 21 26 -3 11
-13 19 -22 19 -9 -1 -68 -5 -131 -10z"/>
<path d="M1475 2053 c-68 -15 -246 -72 -345 -110 -130 -50 -342 -144 -337
-149 2 -2 57 20 123 50 188 84 324 132 574 204 35 10 24 14 -15 5z"/>
<path d="M2035 2031 c-60 -16 -147 -43 -192 -61 -71 -27 -81 -34 -69 -46 8 -8
18 -14 23 -14 7 -1 394 82 401 85 1 1 -3 16 -9 33 -6 19 -18 32 -27 32 -10 -1
-66 -14 -127 -29z"/>
<path d="M4091 2033 c-6 -13 -11 -26 -11 -28 0 -3 26 -12 58 -21 31 -8 117
-34 191 -55 l133 -40 24 22 24 23 -62 24 c-53 20 -253 78 -324 95 -16 3 -25
-2 -33 -20z"/>
<path d="M4738 2043 c7 -3 16 -2 19 1 4 3 -2 6 -13 5 -11 0 -14 -3 -6 -6z"/>
<path d="M4788 2033 c7 -3 16 -2 19 1 4 3 -2 6 -13 5 -11 0 -14 -3 -6 -6z"/>
<path d="M4828 2023 c7 -3 16 -2 19 1 4 3 -2 6 -13 5 -11 0 -14 -3 -6 -6z"/>
<path d="M4868 2013 c7 -3 16 -2 19 1 4 3 -2 6 -13 5 -11 0 -14 -3 -6 -6z"/>
<path d="M4930 1995 c19 -7 42 -13 50 -13 8 0 -1 6 -20 13 -19 7 -42 13 -50
13 -8 0 1 -6 20 -13z"/>
<path d="M2135 1964 c-33 -7 -120 -28 -192 -45 -73 -17 -133 -35 -133 -40 0
-6 14 -23 30 -38 l31 -28 185 48 c102 26 187 49 189 51 5 5 -36 68 -43 67 -4
0 -34 -7 -67 -15z"/>
<path d="M4045 1954 c-9 -14 -13 -30 -8 -34 4 -4 58 -22 118 -39 61 -18 139
-41 173 -53 l64 -20 29 28 c16 15 26 31 22 34 -14 12 -340 110 -365 110 -9 0
-23 -12 -33 -26z"/>
<path d="M5075 1951 c59 -28 239 -100 242 -97 5 4 -202 91 -237 100 -21 5 -22
5 -5 -3z"/>
<path d="M4511 1916 c8 -8 212 -86 216 -83 5 5 -192 87 -208 87 -7 0 -10 -2
-8 -4z"/>
<path d="M3990 1873 c-20 -26 -20 -28 -3 -34 88 -33 254 -95 278 -104 28 -12
32 -11 68 24 l39 38 -174 51 c-96 29 -177 52 -181 52 -3 0 -15 -12 -27 -27z"/>
<path d="M1630 1880 c-8 -5 -10 -10 -5 -10 6 0 17 5 25 10 8 5 11 10 5 10 -5
0 -17 -5 -25 -10z"/>
<path d="M2130 1861 c-58 -15 -135 -36 -173 -46 l-67 -18 37 -32 37 -32 51 22
c27 12 100 39 162 59 105 35 111 39 100 57 -15 24 -19 24 -147 -10z"/>
<path d="M1570 1857 c-167 -74 -490 -254 -530 -294 -8 -8 30 14 85 48 55 35
187 107 294 161 106 54 189 98 185 97 -5 0 -20 -5 -34 -12z"/>
<path d="M2145 1784 c-71 -25 -138 -48 -147 -51 -10 -3 -18 -8 -18 -12 0 -4
36 -42 80 -86 58 -58 77 -82 69 -91 -8 -9 -5 -11 9 -7 14 3 40 -19 105 -89 47
-51 101 -113 121 -138 248 -312 300 -372 679 -774 l92 -98 55 58 c30 32 93 99
141 149 186 197 346 383 504 584 49 63 145 173 214 243 68 71 122 130 120 132
-2 2 -65 34 -139 71 -74 37 -140 71 -147 77 -8 6 -23 3 -44 -8 l-33 -17 36
-32 c20 -17 84 -57 143 -89 58 -32 105 -59 105 -61 0 -13 -155 -164 -161 -158
-13 14 -69 154 -59 148 6 -3 10 1 10 9 0 22 20 20 21 -1 0 -14 2 -13 9 4 7 16
14 21 27 16 17 -7 17 -6 1 11 -22 21 -23 27 -3 20 32 -13 12 8 -66 65 l-80 60
-82 -39 c-143 -68 -564 -250 -579 -250 -8 0 -123 48 -254 106 -131 58 -255
113 -274 121 -19 9 -75 36 -125 60 -49 24 -98 42 -107 40 -10 -3 -15 -1 -12 5
8 13 -45 68 -65 68 -9 0 -74 -21 -146 -46z m74 -117 c-2 -2 -17 -11 -34 -21
l-30 -17 24 20 c13 12 28 21 34 21 6 0 8 -1 6 -3z m-79 -52 c-7 -9 -15 -13
-17 -11 -7 7 7 26 19 26 6 0 6 -6 -2 -15z m140 -15 c0 -5 -9 -10 -20 -10 -11
0 -20 -5 -20 -10 0 -6 16 -8 43 -3 38 6 41 5 28 -10 -7 -10 -11 -18 -7 -18 3
-1 10 -2 15 -3 5 0 13 -5 18 -10 4 -5 3 -7 -3 -3 -13 8 -16 -61 -2 -69 6 -4 8
2 3 15 -4 12 -2 21 4 21 6 0 11 -7 11 -15 0 -20 -22 -65 -31 -65 -5 0 -5 -8
-2 -17 4 -10 -15 5 -43 33 -67 70 -106 115 -102 119 2 1 21 14 42 29 40 27 66
33 66 16z m87 -72 c-3 -8 -6 -5 -6 6 -1 11 2 17 5 13 3 -3 4 -12 1 -19z m585
-305 c27 -26 58 -61 69 -78 19 -30 23 -25 19 23 -1 22 0 23 22 11 37 -19 59
-48 56 -71 -2 -15 3 -24 15 -26 13 -3 17 1 15 15 -2 13 4 19 21 21 18 3 22 0
18 -12 -13 -34 11 -23 37 17 33 52 136 164 136 148 0 -9 5 -9 21 -1 15 9 24 8
35 -1 19 -16 54 -19 54 -6 0 6 2 8 5 6 10 -10 -67 -222 -135 -374 -10 -22 -45
-101 -78 -175 -33 -74 -74 -166 -92 -205 l-31 -70 -56 115 c-128 269 -213 468
-259 605 l-33 100 22 6 c53 13 89 1 139 -48z"/>
<path d="M2315 1450 c3 -5 8 -10 11 -10 2 0 4 5 4 10 0 6 -5 10 -11 10 -5 0
-7 -4 -4 -10z"/>
<path d="M3916 1791 l-27 -28 146 -72 c80 -39 149 -71 154 -71 4 0 26 20 50
45 37 39 40 46 24 51 -10 4 -45 18 -78 32 -92 38 -196 72 -220 72 -12 0 -34
-13 -49 -29z"/>
<path d="M4790 1800 c19 -11 40 -19 45 -19 6 0 -6 8 -25 19 -19 11 -39 19 -45
19 -5 0 6 -8 25 -19z"/>
<path d="M4911 1746 c2 -2 15 -9 29 -15 24 -11 24 -11 6 3 -16 13 -49 24 -35
12z"/>
<path d="M1865 1690 c-3 -6 1 -7 9 -4 18 7 21 14 7 14 -6 0 -13 -4 -16 -10z"/>
<path d="M3880 1520 c0 -5 5 -10 11 -10 5 0 7 5 4 10 -3 6 -8 10 -11 10 -2 0
-4 -4 -4 -10z"/>
<path d="M2054 1488 l-19 -23 23 19 c21 18 27 26 19 26 -2 0 -12 -10 -23 -22z"/>
</g>
</svg>
